<svg width="231" height="61" viewBox="0 0 231 61" fill="none" xmlns="http://www.w3.org/2000/svg">
<path d="M6.35242 30.7125C6.35242 40.4591 14.2535 48.3601 24 48.3601H24.7065C25.0925 48.3601 25.4118 48.6791 25.4118 49.0726V50.4712C25.4118 50.8708 25.0977 51.1837 24.7101 51.1837H24C12.6941 51.1837 3.52877 42.0184 3.52877 30.7125V29.8855L2.20216 31.2121C1.92597 31.4883 1.47792 31.4852 1.19966 31.207L0.210663 30.2181C-0.0718141 29.9355 -0.0681577 29.4892 0.209351 29.2117L3.94231 25.4787C4.49367 24.9274 5.38751 24.9274 5.93887 25.4787L9.67183 29.2117C9.94662 29.4865 9.94878 29.9398 9.67052 30.2181L8.68152 31.207C8.39904 31.4895 7.95437 31.4875 7.67902 31.2121L6.35242 29.8855V30.7125ZM41.6476 30.7125C41.6476 20.9659 33.7465 13.0649 24 13.0649H23.2973C22.9045 13.0649 22.5883 12.7459 22.5883 12.3524V10.9538C22.5883 10.5542 22.904 10.2413 23.2935 10.2413H24.0001C35.306 10.2413 44.4713 19.4066 44.4713 30.7125V31.5395L45.7979 30.2129C46.0741 29.9367 46.5222 29.9398 46.8004 30.2181L47.7894 31.207C48.0719 31.4895 48.0682 31.9358 47.7907 32.2133L44.0578 35.9463C43.5064 36.4976 42.6126 36.4976 42.0612 35.9463L38.3282 32.2133C38.0534 31.9385 38.0512 31.4852 38.3295 31.207L39.3185 30.2181C39.601 29.9355 40.0455 29.9375 40.321 30.2129L41.6476 31.5395V30.7125Z" fill="black"/>
<path d="M16.2907 30.4709C16.2907 25.7923 20.0827 22 24.7616 22C29.4402 22 33.2325 25.7919 33.2325 30.4709C33.2325 35.1494 29.4405 38.9417 24.7616 38.9417C20.083 38.9417 16.2907 35.1498 16.2907 30.4709Z" fill="#019DBB"/>
<path d="M75.9907 20.45C79.3574 20.45 82.0574 21.45 84.0907 23.45C86.1574 25.45 87.1907 28.4667 87.1907 32.5V48H77.6907V34.05C77.6907 30.35 76.2074 28.5 73.2407 28.5C71.6074 28.5 70.2907 29.0333 69.2907 30.1C68.324 31.1667 67.8407 32.7667 67.8407 34.9V48H58.3407V20.9H67.3907V23.85C68.4574 22.75 69.724 21.9167 71.1907 21.35C72.6574 20.75 74.2574 20.45 75.9907 20.45ZM123.705 20.45C127.038 20.45 129.688 21.45 131.655 23.45C133.655 25.45 134.655 28.4667 134.655 32.5V48H125.155V34.05C125.155 32.15 124.788 30.75 124.055 29.85C123.355 28.95 122.355 28.5 121.055 28.5C119.622 28.5 118.472 29 117.605 30C116.738 31 116.305 32.5167 116.305 34.55V48H106.805V34.05C106.805 30.35 105.438 28.5 102.705 28.5C101.238 28.5 100.072 29 99.2052 30C98.3385 31 97.9052 32.5167 97.9052 34.55V48H88.4052V20.9H97.4552V23.75C98.4552 22.65 99.6385 21.8333 101.005 21.3C102.405 20.7333 103.922 20.45 105.555 20.45C107.455 20.45 109.155 20.8 110.655 21.5C112.155 22.2 113.372 23.2667 114.305 24.7C115.372 23.3333 116.722 22.2833 118.355 21.55C119.988 20.8167 121.772 20.45 123.705 20.45ZM144.951 24.15C145.918 22.9167 147.168 22 148.701 21.4C150.268 20.7667 152.051 20.45 154.051 20.45V29C153.185 28.9 152.468 28.85 151.901 28.85C149.868 28.85 148.268 29.4 147.101 30.5C145.968 31.6 145.401 33.2833 145.401 35.55V48H135.901V20.9H144.951V24.15Z" fill="#019DBB"/>
<path d="M175.869 48L168.619 37.15L161.469 48H150.169L162.919 30.3L150.719 13H161.869L168.869 23.1L175.769 13H186.469L174.269 29.9L187.269 48H175.869ZM187.946 20.9H197.446V48H187.946V20.9ZM192.696 17.9C190.963 17.9 189.563 17.4167 188.496 16.45C187.43 15.4833 186.896 14.2833 186.896 12.85C186.896 11.4167 187.43 10.2167 188.496 9.25C189.563 8.28333 190.963 7.8 192.696 7.8C194.43 7.8 195.83 8.26667 196.896 9.2C197.963 10.1 198.496 11.2667 198.496 12.7C198.496 14.2 197.963 15.45 196.896 16.45C195.83 17.4167 194.43 17.9 192.696 17.9ZM230.42 20.9L219.22 48H209.42L198.27 20.9H208.02L214.52 37.45L221.37 20.9H230.42Z" fill="black"/>
</svg>
