<svg width="578" height="400" viewBox="0 0 578 400" fill="none" xmlns="http://www.w3.org/2000/svg">
<path d="M537.65 399.513L576.638 192.812C577.76 186.854 576.744 180.693 573.764 175.41L495.663 37.0582C491.433 29.5655 483.74 24.6821 475.155 24.0389L154.164 0.0721857C145.827 -0.552594 137.707 2.90666 132.387 9.34741L5.89304 162.441C0.963708 168.409 -1.01814 176.274 0.499286 183.863L43.6586 399.513H537.65Z" fill="#F2F2F2"/>
<path d="M560.779 400H22.8422C22.6813 400 22.5709 399.89 22.5709 399.729C22.5709 399.568 22.6813 399.458 22.8422 399.458H560.83C560.99 399.458 561.101 399.568 561.101 399.729C561.101 399.89 560.94 400 560.779 400Z" fill="#B0B4B9"/>
<path d="M360.46 380.466C360.46 380.466 360.258 382.777 359.987 383.54C358.846 386.733 355.223 387.748 352.009 388.795L334.384 395.025C332.797 395.53 332.99 397.85 334.655 397.85H336.862C337.133 398.236 337.598 398.47 338.104 398.47C338.568 398.47 339.111 398.236 339.46 397.928C339.497 397.891 339.538 397.891 339.575 397.85H339.883C339.92 397.887 339.998 397.887 340.039 397.965C340.311 398.273 340.738 398.507 341.203 398.507C341.63 398.507 342.132 398.314 342.481 398.043C342.637 397.887 342.909 397.928 343.024 398.08C343.258 398.351 343.566 398.507 343.953 398.507C344.302 398.507 344.725 398.351 345.038 398.121C345.194 398.006 345.424 398.043 345.544 398.158C345.778 398.351 346.049 398.507 346.394 398.507C346.859 398.507 347.245 398.236 347.438 397.887H347.594L371.018 397.538C371.041 397.538 371.059 397.538 371.082 397.538C373.45 397.478 375.446 395.741 375.915 393.421L377.846 382.419L360.46 380.466Z" fill="#FC9D9D"/>
<path opacity="0.15" d="M371.372 381.308L360.281 381.822L372.02 385.019L370.636 390.582C370.071 392.843 368.084 394.501 365.753 394.561C365.73 394.561 365.712 394.561 365.689 394.561L342.444 394.91H342.288C342.095 395.296 341.667 395.53 341.244 395.53C340.936 395.53 340.624 395.415 340.394 395.181C340.237 395.066 340.044 395.025 339.888 395.144C339.58 395.378 339.152 395.53 338.803 395.53C338.416 395.53 338.104 395.374 337.874 395.103C337.717 394.947 337.488 394.947 337.331 395.066C336.982 395.374 336.481 395.53 336.053 395.53C335.588 395.53 335.161 395.337 334.89 394.988C334.853 394.951 334.811 394.91 334.733 394.873H334.696L334.347 394.988C334.232 395.025 334.154 395.066 334.076 395.103C334.039 395.14 333.961 395.181 333.919 395.218C332.834 395.989 333.147 397.85 334.618 397.85H336.825C337.097 398.236 337.561 398.47 338.067 398.47C338.531 398.47 339.074 398.236 339.423 397.928C339.46 397.891 339.502 397.891 339.538 397.85H339.846C339.883 397.887 339.961 397.887 340.003 397.965C340.274 398.273 340.702 398.507 341.166 398.507C341.594 398.507 342.095 398.314 342.444 398.043C342.601 397.887 342.872 397.928 342.987 398.08C343.222 398.351 343.53 398.507 343.916 398.507C344.265 398.507 344.688 398.351 345.001 398.121C345.157 398.006 345.387 398.043 345.507 398.158C345.741 398.351 346.013 398.507 346.358 398.507C346.822 398.507 347.208 398.236 347.401 397.887H347.558L369.367 397.538C373.542 398.135 374.752 395.948 375.644 394.322L377.846 382.419L371.372 381.308Z" fill="black"/>
<path opacity="0.15" d="M350.923 389.181C350.923 389.181 354.331 395.181 360.722 397.345H354.253L350.923 389.181Z" fill="black"/>
<path d="M333.455 399.513H373.432C374.011 399.513 374.517 399.049 374.517 398.429C374.517 397.85 374.053 397.345 373.432 397.345H332.411V398.429C332.411 399.008 332.875 399.513 333.455 399.513Z" fill="#4D61FC"/>
<path d="M332.411 397.345C332.489 395.061 333.961 393.086 336.131 392.314L349.379 387.711C349.958 387.518 350.542 387.826 350.694 388.409C351.273 390.343 352.708 394.487 355.536 397.349H373.432C374.011 397.349 374.517 397.813 374.517 398.433C374.517 399.054 374.053 399.518 373.432 399.518H333.455C332.875 399.518 332.411 399.054 332.411 398.475V397.345Z" fill="#4D61FC"/>
<path d="M332.411 397.345C332.489 395.061 333.961 393.086 336.131 392.314L349.379 387.711C349.958 387.518 350.542 387.826 350.694 388.409C351.273 390.343 352.708 394.487 355.536 397.349H373.432C374.011 397.349 374.517 397.813 374.517 398.433C374.517 399.054 374.053 399.518 373.432 399.518H333.455C332.875 399.518 332.411 399.054 332.411 398.475V397.345Z" fill="#21252B"/>
<path opacity="0.4" d="M332.411 397.345C332.489 395.525 333.418 393.899 334.889 392.934C332.99 394.29 333.34 395.645 336.053 395.525C350.036 394.868 351.857 394.868 353.485 394.712C353.448 394.676 353.448 394.634 353.448 394.597C354.069 395.567 354.763 396.531 355.577 397.345H373.437C374.016 397.345 374.522 397.809 374.522 398.429C374.522 399.049 374.057 399.513 373.437 399.513H333.459C332.88 399.513 332.415 399.049 332.415 398.47L332.411 397.345Z" fill="black"/>
<path opacity="0.4" d="M332.411 396.995H355.223L355.536 397.345H332.411V396.995Z" fill="black"/>
<path d="M474.948 322.904H425.917C422.574 322.904 420.169 319.634 421.116 316.372L426.441 207.628C427.071 205.464 429.025 203.98 431.241 203.98H480.273C483.616 203.98 486.02 207.251 485.073 210.513L479.753 319.257C479.118 321.421 477.164 322.904 474.948 322.904Z" fill="#84888F"/>
<path d="M468.202 322.904H425.498C422.155 322.904 419.75 319.634 420.697 316.372L426.022 207.628C426.652 205.464 428.606 203.98 430.823 203.98H473.527C476.87 203.98 479.275 207.251 478.327 210.513L473.007 319.257C472.373 321.421 470.418 322.904 468.202 322.904Z" fill="#B0B4B9"/>
<path d="M459.98 322.904H408.084C405.666 322.904 403.702 320.942 403.702 318.526C403.702 316.109 405.666 314.147 408.084 314.147H459.98C462.399 314.147 464.363 316.109 464.363 318.526C464.363 320.947 462.404 322.904 459.98 322.904Z" fill="#B0B4B9"/>
<path d="M451.34 391.092H406.733V395.502H451.34V391.092Z" fill="#B0B4B9"/>
<path d="M410.88 394.62C411.262 396.908 409.712 399.072 407.418 399.453C405.128 399.835 402.962 398.286 402.58 395.994C402.199 393.706 403.748 391.542 406.043 391.161C408.337 390.78 410.503 392.328 410.88 394.62Z" fill="#B0B4B9"/>
<path d="M406.043 391.161C406.273 391.124 406.503 391.111 406.733 391.111V391.092H451.34V395.502H410.931C410.843 397.441 409.413 399.123 407.418 399.453C405.128 399.835 402.962 398.286 402.58 395.994C402.199 393.706 403.748 391.542 406.043 391.161Z" fill="#B0B4B9"/>
<path d="M468.239 391.092H423.631V395.502H468.239V391.092Z" fill="#84888F"/>
<path d="M427.779 394.62C428.16 396.908 426.611 399.072 424.316 399.453C422.026 399.835 419.861 398.286 419.479 395.994C419.097 393.706 420.647 391.542 422.941 391.161C425.236 390.78 427.402 392.328 427.779 394.62Z" fill="#84888F"/>
<path d="M447.588 320.277H443.174V392.898H447.588V320.277Z" fill="#84888F"/>
<path d="M472.387 394.62C472.768 396.908 471.219 399.072 468.924 399.453C466.634 399.835 464.468 398.286 464.087 395.994C463.705 393.706 465.255 391.542 467.549 391.161C469.844 390.78 472.01 392.328 472.387 394.62Z" fill="#84888F"/>
<path d="M473.568 322.904H421.677C419.258 322.904 417.295 320.942 417.295 318.526C417.295 316.109 419.258 314.147 421.677 314.147H473.568C475.987 314.147 477.95 316.109 477.95 318.526C477.95 320.947 475.987 322.904 473.568 322.904Z" fill="#84888F"/>
<path d="M523.712 285.27H520.356V399.495H523.712V285.27Z" fill="#61656D"/>
<path d="M520.356 285.27H484.848V399.49H520.356V285.27Z" fill="#61656D"/>
<path opacity="0.5" d="M520.356 285.27H484.848V399.49H520.356V285.27Z" fill="black"/>
<path d="M528.025 278.733H291.836V285.265H528.025C529.833 285.265 531.295 283.804 531.295 281.999C531.295 280.198 529.833 278.733 528.025 278.733Z" fill="#61656D"/>
<path d="M360.276 381.822L377.842 382.419L384.969 314.332H453.341V285.385H373.349C373.138 285.385 372.926 285.39 372.715 285.399C366.526 285.711 361.725 290.962 361.628 297.155L360.276 381.822Z" fill="#3F4249"/>
<path d="M391.968 380.466C391.968 380.466 391.765 382.777 391.494 383.54C390.354 386.733 386.73 387.748 383.516 388.795L365.891 395.025C364.304 395.53 364.498 397.85 366.162 397.85H368.369C368.641 398.236 369.105 398.47 369.611 398.47C370.075 398.47 370.618 398.236 370.967 397.928C371.004 397.891 371.045 397.891 371.082 397.85H371.39C371.427 397.887 371.505 397.887 371.547 397.965C371.818 398.273 372.246 398.507 372.71 398.507C373.138 398.507 373.639 398.314 373.988 398.043C374.145 397.887 374.416 397.928 374.531 398.08C374.765 398.351 375.074 398.507 375.46 398.507C375.809 398.507 376.232 398.351 376.545 398.121C376.701 398.006 376.931 398.043 377.051 398.158C377.285 398.351 377.557 398.507 377.901 398.507C378.366 398.507 378.752 398.236 378.945 397.887H379.102L402.525 397.538C402.548 397.538 402.567 397.538 402.59 397.538C404.958 397.478 406.953 395.741 407.422 393.421L409.657 382.419L391.968 380.466Z" fill="#FC9D9D"/>
<path opacity="0.15" d="M402.879 381.308L391.742 382.373L403.523 385.019L402.139 390.582C401.573 392.843 399.587 394.501 397.256 394.561C397.233 394.561 397.214 394.561 397.191 394.561L373.947 394.91H373.791C373.598 395.296 373.17 395.53 372.747 395.53C372.439 395.53 372.126 395.415 371.896 395.181C371.74 395.066 371.547 395.025 371.39 395.144C371.082 395.378 370.655 395.53 370.305 395.53C369.919 395.53 369.606 395.374 369.376 395.103C369.22 394.947 368.99 394.947 368.834 395.066C368.484 395.374 367.983 395.53 367.556 395.53C367.091 395.53 366.663 395.337 366.392 394.988C366.355 394.951 366.314 394.91 366.236 394.873H366.199L365.85 394.988C365.735 395.025 365.656 395.066 365.578 395.103C365.542 395.14 365.463 395.181 365.422 395.218C364.337 395.989 364.649 397.85 366.121 397.85H368.328C368.599 398.236 369.064 398.47 369.57 398.47C370.034 398.47 370.577 398.236 370.926 397.928C370.963 397.891 371.004 397.891 371.041 397.85H371.349C371.386 397.887 371.464 397.887 371.505 397.965C371.777 398.273 372.204 398.507 372.669 398.507C373.096 398.507 373.598 398.314 373.947 398.043C374.103 397.887 374.375 397.928 374.49 398.08C374.724 398.351 375.032 398.507 375.419 398.507C375.768 398.507 376.191 398.351 376.504 398.121C376.66 398.006 376.89 398.043 377.01 398.158C377.244 398.351 377.515 398.507 377.86 398.507C378.325 398.507 378.711 398.236 378.904 397.887H379.06L400.87 397.538C405.045 398.135 406.254 395.948 407.147 394.322L409.653 382.419L402.879 381.308Z" fill="black"/>
<path opacity="0.15" d="M382.431 389.181C382.431 389.181 385.838 395.181 392.23 397.345H385.76L382.431 389.181Z" fill="black"/>
<path opacity="0.2" d="M368.788 382.111L377.846 382.419L384.974 314.332H453.345V285.385H384.932C382.376 285.385 379.916 286.722 377.856 288.647C374.858 291.449 373.165 295.372 372.958 299.47L368.788 382.111Z" fill="black"/>
<path d="M364.962 399.513H404.939C405.519 399.513 406.024 399.049 406.024 398.429C406.024 397.85 405.56 397.345 404.939 397.345H363.918V398.429C363.918 399.008 364.383 399.513 364.962 399.513Z" fill="#4D61FC"/>
<path d="M363.918 397.345C363.996 395.061 365.468 393.086 367.638 392.314L380.886 387.711C381.465 387.518 382.049 387.826 382.201 388.409C382.78 390.343 384.215 394.487 387.043 397.349H404.939C405.519 397.349 406.024 397.813 406.024 398.433C406.024 399.054 405.56 399.518 404.939 399.518H364.962C364.383 399.518 363.918 399.054 363.918 398.475V397.345Z" fill="#4D61FC"/>
<path d="M363.918 397.345C363.996 395.061 365.468 393.086 367.638 392.314L380.886 387.711C381.465 387.518 382.049 387.826 382.201 388.409C382.78 390.343 384.215 394.487 387.043 397.349H404.939C405.519 397.349 406.024 397.813 406.024 398.433C406.024 399.054 405.56 399.518 404.939 399.518H364.962C364.383 399.518 363.918 399.054 363.918 398.475V397.345Z" fill="#21252B"/>
<path opacity="0.4" d="M363.918 397.345C363.996 395.525 364.925 393.899 366.397 392.934C364.498 394.29 364.847 395.645 367.56 395.525C381.543 394.868 383.364 394.868 384.992 394.712C384.955 394.676 384.955 394.634 384.955 394.597C385.576 395.567 386.27 396.531 387.084 397.345H404.944C405.523 397.345 406.029 397.809 406.029 398.429C406.029 399.049 405.565 399.513 404.944 399.513H364.967C364.387 399.513 363.923 399.049 363.923 398.47L363.918 397.345Z" fill="black"/>
<path opacity="0.4" d="M363.918 396.995H386.735L387.043 397.345H363.918V396.995Z" fill="black"/>
<path d="M391.742 382.373L409.652 382.419L424.716 314.332H456.748C462.85 314.332 467.797 309.389 467.797 303.292V285.381H413.989C408.875 285.381 404.268 288.477 402.327 293.199L391.742 382.373Z" fill="#3F4249"/>
<path opacity="0.2" d="M413.598 308.18C416.504 302.53 419.718 300.867 426.073 300.867H459.139L457.474 285.385H467.586V303.655C467.586 309.554 462.799 314.332 456.9 314.332H424.762L409.662 382.419L401.403 382.396L413.598 308.18Z" fill="black"/>
<path d="M391.011 278.696L398.759 225.37C399.573 219.875 403.638 215.424 409.023 214.147L429.747 209.231L450.628 209.424L469.917 214.027C476.773 215.653 481.229 222.269 480.181 229.238L477.932 244.021L474.134 252.226C473.941 252.69 473.826 253.154 473.706 253.618L467.788 278.733L391.011 278.696Z" fill="#4D61FC"/>
<path d="M409.928 238.31L457.64 240.226L456.624 250.071L408.958 247.902L409.928 238.31Z" fill="white"/>
<path opacity="0.2" d="M455.506 260.66L458.569 230.588C458.606 230.202 458.063 230.083 457.948 230.473L448.42 261.703L455.506 260.66Z" fill="black"/>
<path d="M398.603 274.557C398.989 275.021 399.688 275.136 400.189 274.75L407.045 269.72L398.332 273.707C398.295 274.015 398.41 274.323 398.603 274.557Z" fill="#868A91"/>
<path opacity="0.2" d="M410.728 230.437L407.05 266.697L403.836 269.872L400.893 267.938L407.321 233.106C407.979 230.244 410.728 230.01 410.728 230.437Z" fill="black"/>
<path d="M450.664 209.424C450.664 209.424 451.051 211.009 449.814 211.785C448.42 212.598 443.036 216.195 435.444 213.912C435.444 213.912 433.044 213.255 430.759 211.592C430.253 211.206 429.866 210.664 429.788 210.007C429.788 209.929 429.788 209.892 429.788 209.814V209.272C429.788 209.272 429.788 209.272 427.659 209.778C427.659 210.434 427.852 211.675 428.938 212.759C429.558 213.379 438.736 220.459 450.434 213.921C450.434 213.921 452.991 212.915 452.72 209.934C450.664 209.424 450.664 209.424 450.664 209.424Z" fill="white"/>
<path d="M421.305 265.654L415.805 266.39L404.066 265.347C402.824 265.462 402.282 265.696 401.353 266.509L394.11 272.973C393.646 273.4 393.605 274.094 393.996 274.558C394.382 275.022 395.081 275.136 395.582 274.751L402.438 269.72L397.982 274.985C397.476 275.564 397.711 276.496 398.447 276.767C398.874 276.923 399.297 276.804 399.61 276.533L405.574 270.689L401.04 275.141C400.497 275.683 400.691 276.574 401.39 276.845C401.739 277.002 402.125 276.923 402.397 276.731L408.751 272.086L404.452 275.26C403.946 275.61 403.946 276.381 404.452 276.731C404.723 276.923 405.073 276.965 405.344 276.845L411.115 274.447C411.657 274.213 412.315 274.213 412.858 274.484L415.065 275.568C416.849 276.459 418.863 276.923 420.836 276.923H424.436C429.595 276.919 421.305 265.654 421.305 265.654Z" fill="#FC9D9D"/>
<path opacity="0.15" d="M404.452 275.443C404.489 275.443 404.53 275.443 404.567 275.407L408.517 272.503C408.595 272.425 408.632 272.31 408.554 272.232C408.475 272.154 408.36 272.117 408.282 272.195L404.332 275.099C404.254 275.177 404.217 275.292 404.296 275.37C404.337 275.407 404.415 275.443 404.452 275.443Z" fill="black"/>
<path opacity="0.15" d="M401.086 275.329C401.123 275.329 401.201 275.329 401.201 275.292L405.463 271.112C405.542 271.034 405.542 270.919 405.463 270.841C405.385 270.762 405.27 270.762 405.192 270.841L400.93 275.021C400.851 275.099 400.851 275.214 400.93 275.292C400.966 275.329 401.045 275.329 401.086 275.329Z" fill="black"/>
<path opacity="0.15" d="M409.836 273.744C408.521 274.4 406.309 275.526 405.537 275.949C404.452 276.569 404.144 275.756 404.144 275.756C404.066 276.105 404.18 276.491 404.493 276.725C404.764 276.918 405.114 276.959 405.385 276.84L411.156 274.442C411.699 274.208 412.356 274.208 412.899 274.479L411.777 273.822C411.156 273.472 410.457 273.472 409.836 273.744Z" fill="black"/>
<path d="M422.197 266.118L455.47 261.244L457.64 240.19L478.401 241.233L474.18 268.131C473.366 273.202 469.03 276.914 463.917 276.914H426.073L422.197 266.118Z" fill="#4D61FC"/>
<path d="M417.663 266.118L455.47 261.281L457.64 240.227L478.401 241.27L474.18 268.167C473.366 273.239 469.03 276.951 463.917 276.951H421.424L417.663 266.118Z" fill="#4D61FC"/>
<path d="M421.419 265.654L417.663 266.118L421.383 276.919H426.031L421.419 265.654Z" fill="white"/>
<g opacity="0.2">
<path opacity="0.2" d="M421.033 265.383C421.07 265.539 421.19 265.617 421.305 265.617H421.341L455.506 260.665L455.585 260.045L421.263 265.038C421.111 265.075 420.996 265.227 421.033 265.383Z" fill="black"/>
</g>
<path opacity="0.15" d="M420.762 274.98L421.383 276.877H463.875C468.989 276.877 473.366 273.161 474.139 268.093L480.222 229.201C481.266 222.236 476.815 215.616 469.959 213.99L466.358 213.14C471.858 215.58 475.192 221.423 474.263 227.538L468.644 263.375C467.83 268.447 463.494 272.159 458.38 272.159L420.762 274.98Z" fill="black"/>
<path opacity="0.15" d="M417.005 275.021C417.897 275.021 418.592 274.208 418.518 273.317L417.667 266.118L421.424 276.914H420.881C418.867 276.914 416.89 276.45 415.111 275.559L412.476 274.318C413.092 274.401 414.72 275.021 417.005 275.021Z" fill="black"/>
<path d="M426.574 276.606H388.381C388.073 276.606 387.802 276.877 387.802 277.185V278.154C387.802 278.462 388.073 278.733 388.381 278.733H426.574C426.882 278.733 427.154 278.462 427.154 278.154V277.185C427.154 276.877 426.919 276.606 426.574 276.606Z" fill="#21252B"/>
<path opacity="0.6" d="M426.574 276.606H388.381C388.073 276.606 387.802 276.877 387.802 277.185V278.154C387.802 278.462 388.073 278.733 388.381 278.733H426.574C426.882 278.733 427.154 278.462 427.154 278.154V277.185C427.154 276.877 426.919 276.606 426.574 276.606Z" fill="black"/>
<path d="M400.815 276.606H334.223C333.915 276.606 333.643 276.877 333.643 277.185V278.154C333.643 278.462 333.915 278.733 334.223 278.733H400.81C401.118 278.733 401.389 278.462 401.389 278.154V277.185C401.353 276.877 401.123 276.606 400.815 276.606Z" fill="#21252B"/>
<g opacity="0.6">
<path opacity="0.6" d="M335.078 276.992H402.866C402.981 276.992 403.059 276.914 403.059 276.799C403.059 276.684 402.981 276.606 402.866 276.606H335.078C334.963 276.606 334.885 276.684 334.885 276.799C334.885 276.914 335 276.992 335.078 276.992Z" fill="black"/>
</g>
<path d="M400.966 276.606H390.933C390.16 276.606 389.498 276.063 389.346 275.292L380.941 231.134C380.748 230.128 381.52 229.237 382.527 229.237H392.561C393.333 229.237 393.995 229.779 394.147 230.551L402.553 274.708C402.709 275.714 401.973 276.606 400.966 276.606Z" fill="#21252B"/>
<path opacity="0.6" d="M400.966 276.606H390.933C390.16 276.606 389.498 276.063 389.346 275.292L380.941 231.134C380.748 230.128 381.52 229.237 382.527 229.237H392.561C393.333 229.237 393.995 229.779 394.147 230.551L402.553 274.708C402.709 275.714 401.973 276.606 400.966 276.606Z" fill="black"/>
<path d="M399.536 276.606H335.115C334.342 276.606 333.68 276.063 333.528 275.292L325.123 231.134C324.93 230.128 325.702 229.237 326.709 229.237H391.089C391.862 229.237 392.524 229.779 392.676 230.551L401.081 274.708C401.279 275.714 400.543 276.606 399.536 276.606Z" fill="#21252B"/>
<path opacity="0.6" d="M362.737 251.684C363.123 252.575 362.7 253.347 361.808 253.347C361.771 253.347 361.693 253.347 361.651 253.347C362.695 254.509 364.286 255.322 365.679 255.281C367.578 255.244 368.471 253.696 367.615 251.799C366.801 249.901 364.553 248.431 362.658 248.473C361.458 248.509 360.644 249.129 360.451 250.099C361.339 250.136 362.346 250.792 362.737 251.684Z" fill="black"/>
<path d="M428.046 186.395C428.046 186.395 445.786 173.389 447.529 187.557L448.034 191.274L450.669 209.424V209.461L450.706 209.847C450.784 210.389 450.628 210.89 450.32 211.28V211.317L450.283 211.354C450.168 211.51 450.012 211.662 449.818 211.781C448.384 212.672 447.455 213.136 446.292 213.564C441.022 215.576 434.943 214.804 430.294 211.244C429.945 210.816 429.752 210.274 429.788 209.695L430.096 200.255C429.788 199.285 429.591 198.206 429.476 197.002C428.896 191.43 428.046 186.395 428.046 186.395Z" fill="#FC9D9D"/>
<path d="M426.032 187.4C429.517 187.4 432.345 184.575 432.345 181.093C432.345 177.611 429.517 174.785 426.032 174.785C422.546 174.785 419.718 177.611 419.718 181.093C419.718 184.575 422.546 187.4 426.032 187.4Z" fill="#21252B"/>
<path d="M425.218 176.526C425.218 176.526 420.647 204.66 435.016 205.473C447.45 206.208 447.372 186.973 447.372 186.973L445.859 174.588L425.218 176.526Z" fill="#FC9D9D"/>
<path d="M426.146 178.195H438.773C440.36 178.195 441.638 179.472 441.638 181.057C441.638 182.641 442.916 183.919 444.503 183.919C444.93 183.919 445.275 184.268 445.275 184.69V187.479C445.275 187.828 445.547 188.136 445.933 188.136C446.241 188.136 446.512 187.902 446.554 187.594L446.94 184.925L447.446 183.997L450.545 185.623C450.545 185.623 454.807 177.882 452.016 171.34C450.43 167.587 446.517 166.54 444.733 166.425C444.153 166.388 443.611 166.076 443.261 165.612C442.447 164.413 440.511 162.4 436.562 162.864C433.54 163.214 431.954 164.955 431.214 166.388C430.749 167.201 429.742 167.587 428.85 167.279C427.535 166.815 425.636 166.581 423.581 168.051C419.562 170.84 421.732 177.845 426.146 178.195Z" fill="#21252B"/>
<path opacity="0.15" d="M448.186 192.201C448.186 192.201 447.023 192.394 446.365 191.93L448.572 194.87L448.186 192.201Z" fill="black"/>
<path d="M446.949 184.887C446.949 184.887 447.685 182.218 450.476 183.224C453.653 184.345 453.575 191.429 448.347 192.201C445.597 192.628 446.061 191.002 446.37 188.834C446.949 184.887 446.949 184.887 446.949 184.887Z" fill="#FC9D9D"/>
<path opacity="0.3" d="M450.743 185.003C450.2 184.695 449.657 184.576 449.193 184.732C448.729 184.888 448.342 185.237 448.071 185.775C447.8 186.353 447.643 187.015 447.685 187.709V188.333C447.685 188.526 447.841 188.641 448.034 188.641C448.227 188.641 448.342 188.485 448.342 188.292V187.672C448.305 187.516 448.379 186.588 448.65 186.046C448.843 185.66 449.115 185.389 449.386 185.311C449.657 185.232 450.007 185.311 450.43 185.545C450.586 185.623 450.779 185.582 450.857 185.43C450.936 185.315 450.899 185.118 450.743 185.003Z" fill="black"/>
<path d="M426.11 178.773L427.581 178.81C427.738 178.81 427.889 178.695 427.889 178.539C427.889 178.382 427.774 178.231 427.618 178.231L426.147 178.194C425.954 178.194 425.76 178.157 425.604 178.116C425.255 178.038 424.56 177.808 423.861 177.418C423.705 177.34 423.553 177.381 423.475 177.532C423.397 177.689 423.438 177.84 423.59 177.918C424.326 178.346 425.103 178.575 425.489 178.653C425.641 178.731 425.875 178.773 426.11 178.773Z" fill="#FC9D9D"/>
<path opacity="0.15" d="M429.788 208.105L429.945 203.617C431.223 204.779 434.787 206.286 438.543 205.087C438.543 205.087 438.58 205.05 438.543 205.087C440.865 204.315 442.378 202.882 443.27 201.642C443.349 201.527 443.542 201.485 443.657 201.564C443.772 201.642 443.813 201.835 443.735 201.949C442.613 203.461 440.636 205.276 437.458 205.937C433.701 208.882 429.788 208.105 429.788 208.105Z" fill="black"/>
<g opacity="0.45">
<path opacity="0.3" d="M433.508 199.942H433.545C434.667 199.942 435.251 199.942 435.251 199.942C435.444 199.942 435.637 199.786 435.637 199.556C435.637 199.363 435.481 199.17 435.251 199.17C435.251 199.17 434.672 199.17 433.545 199.17C433.352 199.17 433.159 199.326 433.159 199.556C433.196 199.749 433.352 199.901 433.508 199.942Z" fill="black"/>
</g>
<g opacity="0.45">
<path opacity="0.3" d="M432.809 198.353C435.945 198.587 437.224 196.805 437.651 195.913C437.73 195.72 437.651 195.528 437.495 195.449C437.302 195.371 437.109 195.449 437.031 195.606C436.603 196.456 435.21 198.353 431.375 197.388C431.182 197.351 430.989 197.466 430.947 197.659C430.906 197.852 431.025 198.045 431.218 198.086C431.761 198.238 432.304 198.316 432.809 198.353Z" fill="black"/>
</g>
<path d="M436.41 190.612C437.031 190.612 437.532 190.111 437.532 189.491C437.532 188.87 437.031 188.37 436.41 188.37C435.789 188.37 435.288 188.87 435.288 189.491C435.288 190.111 435.789 190.612 436.41 190.612Z" fill="#21252B"/>
<path d="M435.867 189.996C435.996 189.996 436.102 189.89 436.102 189.762C436.102 189.633 435.996 189.527 435.867 189.527C435.739 189.527 435.633 189.633 435.633 189.762C435.633 189.89 435.739 189.996 435.867 189.996Z" fill="white"/>
<path d="M427.425 191.31C428.046 191.31 428.547 190.809 428.547 190.189C428.547 189.569 428.046 189.068 427.425 189.068C426.804 189.068 426.303 189.569 426.303 190.189C426.303 190.809 426.804 191.31 427.425 191.31Z" fill="#21252B"/>
<path d="M426.882 190.657C427.011 190.657 427.117 190.551 427.117 190.423C427.117 190.294 427.011 190.188 426.882 190.188C426.754 190.188 426.648 190.294 426.648 190.423C426.648 190.551 426.754 190.657 426.882 190.657Z" fill="white"/>
<g opacity="0.45">
<path opacity="0.3" d="M431.761 195.647H433.31C433.503 195.647 433.66 195.49 433.66 195.297C433.66 195.104 433.503 194.948 433.31 194.948H431.761C431.375 194.948 431.062 194.64 431.062 194.25C431.062 193.864 431.37 193.552 431.761 193.552C431.954 193.552 432.11 193.395 432.11 193.203C432.11 193.01 431.954 192.853 431.761 192.853C431.025 192.853 430.404 193.474 430.404 194.209C430.409 195.026 430.988 195.647 431.761 195.647Z" fill="black"/>
</g>
<path d="M422.39 189.182L422.468 190.46C422.624 192.936 424.79 194.755 427.232 194.599C429.71 194.442 431.531 192.279 431.375 189.839L431.297 188.562C431.26 188.176 431.103 187.864 430.869 187.593L432.612 187.478C432.418 187.749 432.304 188.098 432.34 188.484L432.419 189.761C432.575 192.237 434.741 194.057 437.182 193.9C439.661 193.744 441.482 191.58 441.325 189.141L441.247 187.864C441.21 186.973 440.396 186.279 439.504 186.353L433.927 186.738H433.89L429.549 187.046L428.892 187.083L423.935 187.432C423.047 187.519 422.348 188.333 422.39 189.182ZM433.973 187.4H434.009L439.587 187.014C440.13 186.977 440.594 187.4 440.631 187.942L440.709 189.219C440.865 191.309 439.275 193.129 437.182 193.285C435.09 193.441 433.269 191.851 433.113 189.761L433.035 188.484C433.002 187.942 433.43 187.441 433.973 187.4ZM423.084 189.104C423.047 188.562 423.47 188.098 424.013 188.061L428.97 187.712L429.627 187.676C430.17 187.639 430.634 188.061 430.671 188.604L430.749 189.881C430.906 191.971 429.315 193.79 427.222 193.946C425.13 194.103 423.309 192.513 423.153 190.423L423.084 189.104Z" fill="#21252B"/>
<path d="M296.793 9.38464H289.992V400H296.793V9.38464Z" fill="white"/>
<path d="M387.148 172.654H202.676C202.335 172.654 202.059 172.378 202.059 172.038V56.9408C202.059 56.6009 202.335 56.3253 202.676 56.3253H387.148C387.489 56.3253 387.765 56.6009 387.765 56.9408V172.033C387.765 172.378 387.489 172.654 387.148 172.654Z" fill="#4D61FC"/>
<path opacity="0.2" d="M387.148 172.654H202.676C202.335 172.654 202.059 172.378 202.059 172.038V56.9408C202.059 56.6009 202.335 56.3253 202.676 56.3253H387.148C387.489 56.3253 387.765 56.6009 387.765 56.9408V172.033C387.765 172.378 387.489 172.654 387.148 172.654Z" fill="white"/>
<path d="M384.105 172.654H199.632C199.291 172.654 199.016 172.378 199.016 172.038V56.9408C199.016 56.6009 199.291 56.3253 199.632 56.3253H384.105C384.445 56.3253 384.721 56.6009 384.721 56.9408V172.033C384.725 172.378 384.45 172.654 384.105 172.654Z" fill="#3F4249"/>
<path d="M381.038 60.0418H202.699V168.937H381.038V60.0418Z" fill="#4D61FC"/>
<path opacity="0.7" d="M381.038 60.0418H249.872V168.937H381.038V60.0418Z" fill="white"/>
<path opacity="0.5" d="M249.872 60.0418H202.699V168.937H249.872V60.0418Z" fill="white"/>
<path d="M189.934 240.291C191.019 240.291 191.897 239.414 191.897 238.329C191.897 237.245 191.019 236.368 189.934 236.368C188.849 236.368 187.97 237.245 187.97 238.329C187.97 239.414 188.849 240.291 189.934 240.291Z" fill="black"/>
<path d="M189.934 239.014C190.311 239.014 190.619 238.706 190.619 238.329C190.619 237.952 190.311 237.645 189.934 237.645C189.557 237.645 189.249 237.952 189.249 238.329C189.249 238.706 189.557 239.014 189.934 239.014Z" fill="white"/>
<path d="M189.934 237.066V159.281H199.015" stroke="black" stroke-width="3" stroke-miterlimit="10"/>
<path d="M358.35 225.172C359.435 225.172 360.313 224.294 360.313 223.21C360.313 222.126 359.435 221.249 358.35 221.249C357.264 221.249 356.386 222.126 356.386 223.21C356.386 224.294 357.264 225.172 358.35 225.172Z" fill="black"/>
<path d="M358.35 223.895C358.727 223.895 359.035 223.587 359.035 223.21C359.035 222.834 358.727 222.526 358.35 222.526C357.973 222.526 357.665 222.834 357.665 223.21C357.665 223.587 357.973 223.895 358.35 223.895Z" fill="white"/>
<path d="M358.35 221.942V172.653" stroke="black" stroke-width="3" stroke-miterlimit="10"/>
<path d="M316.602 71.6094H259.731V73.6767H316.602V71.6094Z" fill="white"/>
<path d="M286.695 78.7903H259.731V80.8576H286.695V78.7903Z" fill="white"/>
<path d="M294.779 85.9743H267.815V88.0416H294.779V85.9743Z" fill="white"/>
<path d="M316.257 125.782H259.731V127.849H316.257V125.782Z" fill="#B074FF"/>
<path d="M288.737 132.985H259.731V135.052H288.737V132.985Z" fill="white"/>
<path d="M288.737 140.188H259.731V142.255H288.737V140.188Z" fill="white"/>
<path d="M307.934 149.215H278.928V151.283H307.934V149.215Z" fill="white"/>
<path d="M326.962 149.215H314.331V151.283H326.962V149.215Z" fill="white"/>
<path d="M310.022 158.247H297.391V160.314H310.022V158.247Z" fill="white"/>
<path d="M346.027 158.247H318.566V160.314H346.027V158.247Z" fill="white"/>
<path d="M368.613 158.247H349.618V160.314H368.613V158.247Z" fill="white"/>
<path d="M365.422 149.215H333.818V151.283H365.422V149.215Z" fill="white"/>
<path d="M323.918 132.985H294.912V135.052H323.918V132.985Z" fill="#00BEFF"/>
<path d="M363.891 125.782H324.107V127.849H363.891V125.782Z" fill="#FD8A88"/>
<path d="M321.973 78.7903H295.009V80.8576H321.973V78.7903Z" fill="#FD8A88"/>
<path d="M304.412 93.83H277.448V95.8973H304.412V93.83Z" fill="white"/>
<path d="M329.519 93.83H313.687V95.8973H329.519V93.83Z" fill="#00BEFF"/>
<path d="M372.673 93.83H336.903V95.8973H372.673V93.83Z" fill="white"/>
<path d="M293.726 102.081H277.448V104.149H293.726V102.081Z" fill="white"/>
<path d="M329.519 102.081H303V104.149H329.519V102.081Z" fill="white"/>
<path d="M372.673 102.081H333.211V104.149H372.673V102.081Z" fill="white"/>
<path d="M309.42 110.332H277.448V112.4H309.42V110.332Z" fill="white"/>
<path d="M334.526 110.332H313.687V112.4H334.526V110.332Z" fill="#FD8A88"/>
<path d="M374.825 110.332H339.055V112.4H374.825V110.332Z" fill="white"/>
<path d="M304.412 118.583H277.448V120.65H304.412V118.583Z" fill="white"/>
<path d="M329.519 118.583H313.687V120.65H329.519V118.583Z" fill="white"/>
<path d="M372.673 118.583H336.903V120.65H372.673V118.583Z" fill="white"/>
<path d="M369.156 78.7903H328.815V80.8576H369.156V78.7903Z" fill="#00F3BE"/>
<g opacity="0.5">
<path opacity="0.5" d="M213.238 69.5375H207.021V75.7486H213.238V69.5375Z" fill="white"/>
<path opacity="0.5" d="M245.026 71.6094H218.526V73.6767H245.026V71.6094Z" fill="white"/>
<path opacity="0.5" d="M213.238 78.7902H207.021V85.0013H213.238V78.7902Z" fill="white"/>
<path opacity="0.5" d="M245.026 80.8621H218.526V82.9294H245.026V80.8621Z" fill="white"/>
<path opacity="0.5" d="M213.238 88.0416H207.021V94.2526H213.238V88.0416Z" fill="white"/>
<path opacity="0.5" d="M245.026 90.1135H218.526V92.1808H245.026V90.1135Z" fill="white"/>
<path opacity="0.5" d="M221.846 97.9421H215.629V104.153H221.846V97.9421Z" fill="white"/>
<path opacity="0.5" d="M245.03 100.009H227.138V102.077H245.03V100.009Z" fill="white"/>
<path opacity="0.5" d="M221.846 107.498H215.629V113.709H221.846V107.498Z" fill="white"/>
<path opacity="0.5" d="M245.03 109.57H227.138V111.637H245.03V109.57Z" fill="white"/>
<path opacity="0.5" d="M221.846 117.058H215.629V123.269H221.846V117.058Z" fill="white"/>
<path opacity="0.5" d="M245.03 119.125H227.138V121.192H245.03V119.125Z" fill="white"/>
<path opacity="0.5" d="M213.238 127.688H207.021V133.899H213.238V127.688Z" fill="white"/>
<path opacity="0.5" d="M245.026 129.76H218.526V131.827H245.026V129.76Z" fill="white"/>
<path opacity="0.5" d="M221.846 137.588H215.629V143.799H221.846V137.588Z" fill="white"/>
<path opacity="0.5" d="M245.03 139.66H227.138V141.728H245.03V139.66Z" fill="white"/>
<path opacity="0.5" d="M221.846 147.148H215.629V153.359H221.846V147.148Z" fill="white"/>
<path opacity="0.5" d="M245.03 149.215H227.138V151.283H245.03V149.215Z" fill="white"/>
<path opacity="0.5" d="M221.846 156.703H215.629V162.915H221.846V156.703Z" fill="white"/>
<path opacity="0.5" d="M245.03 158.775H227.138V160.843H245.03V158.775Z" fill="white"/>
</g>
<g opacity="0.7">
<path opacity="0.7" d="M254.604 71.6094H252.535V73.6767H254.604V71.6094Z" fill="white"/>
<path opacity="0.7" d="M254.604 78.7903H252.535V80.8576H254.604V78.7903Z" fill="white"/>
<path opacity="0.7" d="M254.604 85.9743H252.535V88.0416H254.604V85.9743Z" fill="white"/>
<path opacity="0.7" d="M254.604 93.1551H252.535V95.2224H254.604V93.1551Z" fill="white"/>
<path opacity="0.7" d="M254.604 100.34H252.535V102.407H254.604V100.34Z" fill="white"/>
<path opacity="0.7" d="M254.604 107.52H252.535V109.588H254.604V107.52Z" fill="white"/>
<path opacity="0.7" d="M254.604 114.701H252.535V116.769H254.604V114.701Z" fill="white"/>
<path opacity="0.7" d="M254.604 121.885H252.535V123.953H254.604V121.885Z" fill="white"/>
<path opacity="0.7" d="M254.604 129.066H252.535V131.133H254.604V129.066Z" fill="white"/>
<path opacity="0.7" d="M254.604 136.246H252.535V138.313H254.604V136.246Z" fill="white"/>
<path opacity="0.7" d="M254.604 143.432H252.535V145.499H254.604V143.432Z" fill="white"/>
<path opacity="0.7" d="M254.604 150.612H252.535V152.68H254.604V150.612Z" fill="white"/>
<path opacity="0.7" d="M254.604 157.796H252.535V159.864H254.604V157.796Z" fill="white"/>
</g>
<path d="M99.7941 233.726C38.5959 254.656 47.144 339.378 54.7955 378.927C57.0993 390.83 67.4959 399.449 79.6353 399.449H248.805C260.853 399.449 271.272 390.973 273.599 379.162C275.535 369.326 276.675 355.925 274.822 338.983C270.431 298.781 238.57 292.57 238.57 292.57C238.57 292.57 198.192 285.992 182.098 265.158C166.004 244.324 140.401 219.838 99.7941 233.726Z" fill="#B1B5BA"/>
<path d="M180.742 275.637L175.523 269.812C174.838 269.072 174.424 268.861 173.458 268.64L163.968 268.374L148.559 265.502L142.291 272.15L155.718 274.575L156.964 275.214C159.038 276.33 161.489 276.56 163.724 275.77L163.779 275.775L165.674 275.113C166.133 274.948 166.676 275.008 167.09 275.224L171.486 277.653C171.693 277.787 171.969 277.764 172.203 277.626C172.612 277.396 172.69 276.749 172.341 276.432L169.214 273.487L173.895 277.764C174.093 277.952 174.415 278.044 174.695 277.966C175.265 277.81 175.509 277.125 175.123 276.638L171.895 272.637L176.139 277.856C176.387 278.104 176.7 278.251 177.045 278.127C177.666 277.98 177.919 277.235 177.588 276.758L174.488 272.113L179.51 276.758C179.855 277.125 180.462 277.088 180.779 276.739C181.013 276.601 181.082 276.004 180.742 275.637Z" fill="#F69797"/>
<path opacity="0.15" d="M147.391 271.304L156.343 273.381C157.042 273.514 157.718 273.868 158.27 274.318C159.075 274.961 160.62 275.907 162.744 276.096C162.744 276.096 159.493 277.097 155.704 274.626L145.4 272.834L147.391 271.304Z" fill="black"/>
<path d="M210.759 398.557L231.921 399.205C232.289 398.58 233.328 396.706 232.128 396.26L217.864 390.068C215.344 389.121 212.447 388.001 211.868 386.255C211.592 385.841 212.079 385.001 211.918 384.532L210.516 363.248L199.912 365.61L198.583 384.394C198.813 386.259 198.611 389.415 198.615 391.207L198.583 394.097C198.634 396.297 200.312 398.08 202.45 398.204H202.51L210.759 398.557Z" fill="#F69797"/>
<path opacity="0.15" d="M218.149 396.633L210.635 396.288H210.575C208.437 396.164 206.754 394.377 206.708 392.181L206.74 389.291C206.736 387.5 206.207 384.344 205.977 382.479L207.288 363.974L199.917 365.614L198.588 384.399C198.818 386.264 198.615 389.42 198.62 391.212L198.588 394.101C198.638 396.302 200.317 398.084 202.455 398.208H202.515L210.759 398.553L231.921 399.201C232.164 398.783 232.707 397.809 232.684 397.074L218.149 396.633Z" fill="black"/>
<path d="M199.916 316.023H154.081C144.733 316.023 137.164 308.516 136.994 299.236L136.824 288.583H211.711C218.838 288.583 224.356 294.822 223.473 301.887L211.72 385.529L198.611 383.876L198.123 369.097C195.948 340.49 196.711 333.696 199.916 316.023Z" fill="#3F4249"/>
<path opacity="0.2" d="M210.952 304.616C211.366 295.919 204.423 288.643 195.704 288.633C172.75 288.615 146.476 288.583 146.476 288.583H136.819L136.989 299.236C137.159 308.516 144.728 316.023 154.076 316.023H199.912C196.707 333.696 195.944 340.49 198.119 369.101L198.606 383.88L206.138 384.831L210.952 304.616Z" fill="black"/>
<path d="M234.748 399.513H255.735C256.08 398.884 257.055 396.991 255.85 396.591L241.572 390.463C239.048 389.604 237.328 389.03 235.838 387.141C235.553 386.742 235.263 386.282 235.093 385.823L223.97 360.616L210.267 367.203L221.906 387.367C222.936 388.855 223.165 390.803 223.225 392.581L223.28 395.443C223.395 397.62 225.115 399.338 227.235 399.394H227.29L234.748 399.513Z" fill="#F69797"/>
<path opacity="0.15" d="M256.135 398.594C255.965 398.994 255.79 399.338 255.675 399.568H234.689L227.175 399.453H227.12C224.94 399.398 223.221 397.62 223.166 395.502L223.11 392.64C223.055 390.863 222.765 388.86 221.791 387.426L217.606 380.21L217.836 378.207L224.2 382.791L228.214 392.53C228.214 392.53 232.054 397.744 243.522 398.199C254.99 398.599 254.99 398.599 254.99 398.599H256.135V398.594Z" fill="black"/>
<path d="M232.284 379.406L220.071 384.445L212.332 371.899C193.58 344.115 189.87 339.282 182.416 316.082H127.191C117.842 316.082 110.274 308.576 110.104 299.296L114.109 288.583L185.166 288.638C190.67 288.638 195.659 291.96 197.779 297.059L232.284 379.406Z" fill="#3F4249"/>
<path opacity="0.2" d="M212.332 360.616C197.539 335.184 197.778 332.524 191.129 311.387C189.295 305.543 185.11 304.285 182.126 304.285L155.976 304.455C147.147 304.225 131.835 305.144 124.556 300.214L111.828 288.587H114.113L110.223 299.24C110.393 308.58 117.962 316.027 127.31 316.027H182.531C190.559 339.971 193.755 344.234 212.447 371.844L220.186 384.39L224.315 382.672C224.255 382.727 214.967 365.196 212.332 360.616Z" fill="black"/>
<path d="M143.022 219.706C143.482 220.349 144.333 220.725 145.308 220.923C149.322 221.741 152.38 222.315 154.141 218.603C156.835 212.732 160.615 198.913 158.698 189.486C154.785 189.932 153.984 190.506 153.984 190.506C153.984 190.506 149.69 187.185 149.607 187.098C149.63 187.042 138.024 212.847 143.022 219.706Z" fill="#21252B"/>
<path d="M132.584 211.312L142.066 178.157C140.525 177.284 137.104 178.442 136.01 179.016C121.741 187.088 113.658 213.6 110.862 223.582C114.278 233.873 129.535 219.034 131.821 217.799C132.952 217.119 132.584 211.312 132.584 211.312Z" fill="#21252B"/>
<path d="M154.605 216.682L137.422 237.616L124.615 218.248L125.737 216.259C125.852 216.218 125.963 216.232 126.078 216.19C127.503 215.749 128.441 214.316 128.391 212.827L132.078 202.013L144.282 211.518C144.48 213.135 144.912 216.071 147.657 216.14L154.605 216.682Z" fill="#F69797"/>
<path d="M121.204 216.944C121.742 216.93 125.02 216.829 127.324 218.979C136.939 227.956 146.398 226.362 149.078 216.25L151.23 216.374C151.23 216.374 152.559 221.851 156.302 230.377C156.9 231.737 159.337 237.456 159.337 237.456C162.68 246.249 157.921 252.157 157.921 252.157C157.512 252.823 157.268 253.512 157.236 254.279C157.236 254.279 156.84 270.73 159.544 278.894C160.556 281.953 164.262 291.008 164.262 291.008C164.262 291.008 141.422 291.743 132.125 296.011L117.718 302.603C113.065 304.762 108.14 300.237 109.855 295.377L110.669 293.108C113.741 284.609 119.751 275.605 119.24 266.642L118.298 246.171L108.37 239.371L107.547 233.308C108.747 220.022 119.346 216.99 121.204 216.944Z" fill="#4D61FC"/>
<path d="M134.732 285.803L134.975 285.61C134.493 285.004 134.603 284.08 135.205 283.603L135.012 283.359C134.405 283.841 133.481 283.731 133.003 283.129L132.759 283.322C133.242 283.929 133.131 284.852 132.529 285.33L132.722 285.573C133.334 285.036 134.258 285.142 134.732 285.803Z" fill="#4D61FC"/>
<path opacity="0.3" d="M119.585 247.99C120.031 247.93 120.482 248.311 120.486 248.752C120.486 248.752 121.558 257.334 128.202 258.57C127.83 259.061 123.728 259.654 123.484 260.343C123.484 260.343 121.746 294.37 126.832 298.477L117.824 302.612C113.17 304.771 108.246 300.246 109.961 295.386L110.775 293.116C113.846 284.617 119.654 276.505 119.148 267.542L118.812 248.954C118.707 248.44 119.084 248.04 119.585 247.99Z" fill="black"/>
<path d="M157.438 288.412L157.682 288.219C157.199 287.613 157.309 286.689 157.912 286.212L157.718 285.968C157.111 286.45 156.187 286.34 155.709 285.738L155.465 285.931C155.948 286.538 155.838 287.461 155.235 287.939L155.428 288.182C156.04 287.649 156.909 287.746 157.438 288.412Z" fill="#4D61FC"/>
<path opacity="0.3" d="M157.866 252.152C156.886 253.448 155.557 254.385 154.072 254.867L156.831 257.137L157.185 254.275C157.185 254.27 157.272 253.016 157.866 252.152Z" fill="black"/>
<path d="M174.658 288.467L169.439 282.647C168.754 281.907 168.34 281.696 167.375 281.475L156.79 281.558L142.567 277.703L136.203 284.98L149.63 287.406L150.876 288.044C152.95 289.161 155.401 289.39 157.636 288.6L157.691 288.605L159.585 287.943C160.045 287.778 160.588 287.838 161.002 288.054L165.397 290.484C165.604 290.617 165.88 290.594 166.115 290.456C166.524 290.227 166.602 289.579 166.253 289.262L163.126 286.317L167.807 290.594C168.005 290.782 168.327 290.874 168.607 290.796C169.177 290.64 169.421 289.956 169.035 289.469L165.807 285.467L170.051 290.686C170.299 290.934 170.612 291.081 170.957 290.957C171.578 290.81 171.83 290.066 171.499 289.588L168.4 284.944L173.421 289.588C173.766 289.956 174.373 289.919 174.691 289.57C174.93 289.436 174.999 288.839 174.658 288.467Z" fill="#F69797"/>
<path opacity="0.15" d="M166.17 289.529C166.115 289.524 166.115 289.524 166.069 289.46L163.186 286.763C163.14 286.704 163.094 286.589 163.158 286.538C163.218 286.492 163.333 286.446 163.384 286.511L166.267 289.207C166.313 289.267 166.359 289.382 166.294 289.432C166.23 289.478 166.17 289.529 166.17 289.529Z" fill="black"/>
<path opacity="0.15" d="M168.842 289.727C168.786 289.722 168.731 289.713 168.74 289.658L165.706 285.9C165.66 285.84 165.669 285.73 165.729 285.684C165.788 285.638 165.899 285.647 165.945 285.707L168.98 289.465C169.026 289.525 169.016 289.635 168.957 289.681C168.952 289.741 168.897 289.731 168.842 289.727Z" fill="black"/>
<path d="M107.547 233.294L102.102 276.165C102.525 278.687 104.259 280.864 106.682 281.806L133.003 292.202L146.816 278.834L116.219 270.698L125.319 237.46L107.547 233.294Z" fill="#4D61FC"/>
<path opacity="0.3" d="M124.551 272.922L124.717 272.444L156.017 281.076L155.939 281.287L124.551 272.922Z" fill="black"/>
<path opacity="0.15" d="M141.307 284.141L150.26 286.217C150.959 286.35 151.635 286.704 152.187 287.154C152.992 287.797 154.537 288.744 156.661 288.932C156.661 288.932 153.41 289.934 149.621 287.462L139.316 285.67L141.307 284.141Z" fill="black"/>
<path d="M126.469 226.183C126.905 226.234 127.269 225.944 127.315 225.512C127.365 225.076 127.076 224.713 126.643 224.667C126.211 224.617 125.843 224.906 125.797 225.338C125.742 225.77 126.032 226.133 126.469 226.183Z" fill="#F4F4F4"/>
<path d="M148.062 289.147H181.634C181.905 289.147 182.126 289.368 182.126 289.639V290.512C182.126 290.783 181.905 291.003 181.634 291.003H148.062C147.791 291.003 147.57 290.783 147.57 290.512V289.639C147.57 289.363 147.735 289.147 148.062 289.147Z" fill="#21252B"/>
<path opacity="0.6" d="M148.062 289.147H181.634C181.905 289.147 182.126 289.368 182.126 289.639V290.512C182.126 290.783 181.905 291.003 181.634 291.003H148.062C147.791 291.003 147.57 290.783 147.57 290.512V289.639C147.57 289.363 147.735 289.147 148.062 289.147Z" fill="black"/>
<path d="M170.699 289.147H231.318C231.589 289.147 231.81 289.368 231.81 289.639V290.512C231.81 290.783 231.589 291.003 231.318 291.003H170.699C170.428 291.003 170.207 290.783 170.207 290.512V289.639C170.207 289.363 170.423 289.147 170.699 289.147Z" fill="#21252B"/>
<g opacity="0.6">
<path opacity="0.6" d="M228.49 289.473H168.892C168.782 289.473 168.727 289.418 168.727 289.308C168.727 289.198 168.782 289.142 168.892 289.142H228.49C228.601 289.142 228.656 289.198 228.656 289.308C228.656 289.418 228.545 289.473 228.49 289.473Z" fill="black"/>
</g>
<path d="M172.309 290.925L181.11 290.824C181.767 290.815 182.361 290.319 182.517 289.662L189.451 250.741C189.603 249.864 188.941 249.055 188.012 249.065L179.211 249.166C178.553 249.175 177.96 249.671 177.804 250.328L170.869 289.248C170.768 290.176 171.38 290.934 172.309 290.925Z" fill="#21252B"/>
<path opacity="0.6" d="M172.309 290.925L181.11 290.824C181.767 290.815 182.361 290.319 182.517 289.662L189.451 250.741C189.603 249.864 188.941 249.055 188.012 249.065L179.211 249.166C178.553 249.175 177.96 249.671 177.804 250.328L170.869 289.248C170.768 290.176 171.38 290.934 172.309 290.925Z" fill="black"/>
<path d="M173.569 290.907L230.21 290.26C230.868 290.251 231.461 289.754 231.617 289.097L238.551 250.177C238.703 249.3 238.041 248.491 237.112 248.501L180.471 249.148C179.813 249.157 179.22 249.654 179.064 250.311L172.185 289.231C172.028 290.163 172.64 290.921 173.569 290.907Z" fill="#21252B"/>
<path opacity="0.6" d="M205.628 268.635C205.31 269.402 205.701 270.11 206.465 270.1C206.52 270.1 206.575 270.1 206.575 270.1C205.655 271.148 204.299 271.874 203.039 271.832C201.342 271.796 200.56 270.44 201.31 268.791C202 267.091 203.954 265.81 205.651 265.791C206.69 265.833 207.407 266.37 207.637 267.188C206.869 267.257 206 267.813 205.628 268.635Z" fill="black"/>
<path d="M142.149 213.999L141.376 213.88C135.633 212.989 131.578 207.191 132.47 201.453L134.654 186.918C134.976 184.993 136.76 183.684 138.631 183.987L152.237 186.045C154.73 186.403 156.417 188.737 156.059 191.232L154.022 204.77C153.143 210.453 148.108 215.088 142.149 213.999Z" fill="#F69797"/>
<path d="M143.441 206.429L143.726 207.063C144.508 208.703 146.747 208.964 147.961 207.614L148.49 206.994C148.6 206.86 148.554 206.667 148.384 206.663L143.662 206.162C143.51 206.102 143.381 206.291 143.441 206.429Z" fill="white"/>
<path d="M143.05 199.914C143.661 200.149 144.296 199.859 144.53 199.248C144.765 198.637 144.475 198.003 143.864 197.769C143.252 197.535 142.618 197.824 142.383 198.435C142.149 199.046 142.438 199.68 143.05 199.914Z" fill="#21252B"/>
<path d="M143.753 199.597C143.854 199.634 143.997 199.574 144.034 199.468C144.071 199.367 144.011 199.225 143.905 199.188C143.799 199.151 143.661 199.211 143.624 199.317C143.588 199.418 143.652 199.555 143.753 199.597Z" fill="white"/>
<path d="M151.663 201.715C152.274 201.949 152.909 201.66 153.143 201.049C153.378 200.438 153.088 199.804 152.476 199.57C151.865 199.336 151.23 199.625 150.996 200.236C150.761 200.847 151.051 201.481 151.663 201.715Z" fill="#21252B"/>
<path d="M152.44 201.366C152.541 201.403 152.683 201.344 152.72 201.238C152.757 201.137 152.697 200.994 152.591 200.958C152.485 200.921 152.348 200.981 152.311 201.086C152.274 201.187 152.338 201.33 152.44 201.366Z" fill="white"/>
<g opacity="0.3">
<path opacity="0.3" d="M147.414 204.898L145.896 204.733C145.722 204.724 145.556 204.545 145.616 204.393C145.625 204.218 145.804 204.053 145.956 204.113L147.474 204.278C147.869 204.31 148.209 204.03 148.223 203.685C148.255 203.29 147.975 202.95 147.63 202.937C147.455 202.927 147.29 202.748 147.35 202.597C147.359 202.422 147.538 202.257 147.69 202.317C148.412 202.413 148.973 203.093 148.876 203.819C148.798 204.485 148.14 204.995 147.414 204.898Z" fill="black"/>
</g>
<path d="M158.629 195.532L159.19 195.743C160.303 179.866 144.876 174.138 135.937 179.049C130.538 182.025 126.239 188.576 126.239 188.576C126.46 191.696 129.039 195.068 129.412 197.314C129.563 198.306 131.987 194.843 132.847 194.585C132.966 194.572 133.477 195.702 133.826 196.473C134.047 196.965 134.718 197.048 134.966 196.556C135.9 194.866 136.498 192.987 136.797 191.117L137.04 189.399C140.894 189.573 152.752 189.449 155.341 189.555C155.98 189.564 156.164 190.625 156.105 191.246L154.826 199.698L157.673 196.51L158.629 195.532Z" fill="#21252B"/>
<path d="M133.076 202.152C133.076 202.152 128.046 202 127.558 196.965C127.02 191.912 133.242 191.696 133.605 196.745L133.692 202.212L133.076 202.152Z" fill="#F69797"/>
<path opacity="0.3" d="M129.375 194.503C129.959 194.199 130.465 194.098 130.925 194.273C131.384 194.447 131.784 194.774 132.024 195.389C132.276 195.954 132.424 196.648 132.373 197.392L132.35 197.911C132.318 198.306 131.656 198.348 131.66 197.884C131.702 197.314 131.702 197.314 131.702 197.314C131.711 197.14 131.711 196.207 131.44 195.697C131.251 195.274 130.98 195.054 130.727 194.957C130.469 194.861 130.088 194.948 129.665 195.141C129.522 195.205 129.301 195.178 129.237 195.036C129.136 194.82 129.214 194.613 129.375 194.503Z" fill="black"/>
<path d="M153.861 196.239C152.467 196.06 151.097 196.592 150.159 197.525C149.009 196.854 147.883 196.896 147.377 196.997C146.802 195.435 145.377 194.254 143.657 194.011C141.142 193.703 138.87 195.527 138.581 197.989C138.272 200.502 140.098 202.771 142.563 203.061C145.078 203.369 147.349 201.545 147.639 199.082C147.713 198.586 147.681 198.049 147.561 197.594C147.998 197.525 148.881 197.511 149.814 197.98C149.34 198.618 148.977 199.413 148.89 200.258C148.582 202.771 150.407 205.041 152.872 205.33C155.387 205.638 157.659 203.814 157.948 201.352C158.151 198.798 156.371 196.546 153.861 196.239ZM142.599 202.487C140.411 202.243 138.833 200.24 139.128 198.076C139.371 195.89 141.376 194.314 143.542 194.608C145.731 194.851 147.308 196.854 147.014 199.018C146.788 201.154 144.788 202.735 142.599 202.487ZM152.877 204.687C150.688 204.444 149.111 202.441 149.405 200.277C149.649 198.09 151.653 196.514 153.819 196.808C156.008 197.052 157.585 199.055 157.291 201.219C157.047 203.401 155.061 204.93 152.877 204.687Z" fill="white"/>
<path d="M131.628 201.196C132.138 201.389 132.704 201.136 132.897 200.626C133.09 200.116 132.837 199.551 132.327 199.358C131.816 199.165 131.251 199.418 131.058 199.928C130.865 200.438 131.117 201.003 131.628 201.196Z" fill="#4D61FC"/>
<path opacity="0.15" d="M132.184 201.113C131.563 201.053 131.186 200.502 131.228 199.932C131.255 199.707 131.333 199.505 131.439 199.372C131.159 199.5 130.989 199.785 130.924 200.111C130.832 200.663 131.228 201.159 131.798 201.2C132.023 201.228 132.212 201.182 132.373 201.067C132.34 201.173 132.29 201.154 132.184 201.113Z" fill="black"/>
<path opacity="0.15" d="M132.079 202.009L133.798 202.252L131.081 205.721L132.079 202.009Z" fill="black"/>
<path d="M156.072 191.177C148.209 185.861 144.738 199.326 136.447 194.199C128.681 189.39 140.089 182.14 140.089 182.14L148.007 183.62L157.512 188.622L156.072 191.177Z" fill="#21252B"/>
<path d="M137.307 195.169C137.307 195.169 136.263 194.834 135.021 193.488L137.307 195.169Z" fill="black"/>
<path d="M137.307 195.169C137.307 195.169 136.263 194.834 135.021 193.488" stroke="#F69797" stroke-width="1.2986" stroke-miterlimit="10" stroke-linecap="round"/>
<path opacity="0.15" d="M145.234 214.79C144.935 214.358 144.866 214.1 144.866 214.1C144.866 214.1 142.342 214.505 139.514 213.398C139.353 213.361 139.169 213.43 139.077 213.577C139.04 213.738 139.109 213.921 139.256 214.013C139.776 214.188 140.245 214.358 140.723 214.463C143.666 215.139 145.234 214.79 145.234 214.79Z" fill="black"/>
<path d="M132.079 202.01C132.079 202.01 131.49 221.272 133.798 228.747C133.798 228.747 132.12 228.976 129.858 229.027C129.568 229.031 129.076 222.664 128.772 222.664C128.446 222.664 128.303 229.031 127.963 229.022C125.223 228.944 122.128 228.517 120.151 227.198C117.847 225.678 120.215 211 124.33 204.311C127.237 199.593 132.079 202.01 132.079 202.01Z" fill="#21252B"/>
<path d="M151.23 216.374L153.934 216.567C156.15 216.723 157.87 218.57 157.87 220.789V235.03C157.865 235.03 152.324 221.432 151.23 216.374Z" fill="#4D61FC"/>
<path opacity="0.3" d="M157.866 234.015C155.861 229.32 151.879 221.915 151.879 221.915L157.866 230.924V234.015Z" fill="black"/>
<path d="M161.406 267.896L159.631 279.142C159.631 279.142 157.157 272.559 157.599 267.124L161.406 267.896Z" fill="#4D61FC"/>
<path opacity="0.3" d="M159.631 279.142C157.001 272.444 157.622 267.124 157.622 267.124L158.771 267.358C158.771 267.358 158.496 269.706 158.468 272.444C158.45 274.369 159.631 279.142 159.631 279.142Z" fill="black"/>
<path opacity="0.3" d="M110.554 230.979L105.68 265.355C104.797 270.79 108.007 276.142 113.29 277.704C113.336 277.718 113.377 277.732 113.423 277.741L141.358 284.145L132.998 292.203L106.779 281.875C104.305 280.878 102.521 278.692 102.112 276.059L107.542 233.294C108.154 226.187 112.136 218.869 120.684 216.999C115.677 218.46 111.092 224.024 110.554 230.979Z" fill="black"/>
<path d="M132.52 245.486C132.741 245.661 132.856 245.872 132.948 246.093C133.026 246.318 133.076 246.557 133.017 246.833C132.796 246.658 132.681 246.447 132.589 246.226C132.515 245.996 132.465 245.762 132.52 245.486Z" fill="white"/>
<path d="M132.768 246.998C132.607 247.205 132.41 247.301 132.207 247.37C132 247.43 131.784 247.462 131.531 247.384C131.692 247.177 131.89 247.081 132.092 247.012C132.304 246.952 132.52 246.92 132.768 246.998Z" fill="white"/>
<path d="M132.98 248.698C132.81 248.478 132.75 248.243 132.718 248.004C132.699 247.766 132.708 247.527 132.833 247.274C133.007 247.494 133.062 247.729 133.095 247.968C133.113 248.202 133.099 248.445 132.98 248.698Z" fill="white"/>
<path d="M133.016 247.126C133.223 246.965 133.44 246.924 133.656 246.901C133.872 246.896 134.088 246.919 134.313 247.057C134.106 247.218 133.89 247.264 133.674 247.282C133.458 247.287 133.242 247.264 133.016 247.126Z" fill="white"/>
<path d="M149.556 230.924C149.777 231.099 149.892 231.31 149.984 231.53C150.062 231.756 150.113 231.994 150.053 232.27C149.832 232.095 149.717 231.884 149.625 231.664C149.552 231.434 149.501 231.2 149.556 230.924Z" fill="white"/>
<path d="M149.805 232.435C149.644 232.642 149.446 232.739 149.244 232.808C149.037 232.867 148.821 232.899 148.568 232.821C148.729 232.615 148.927 232.518 149.129 232.449C149.336 232.389 149.552 232.362 149.805 232.435Z" fill="white"/>
<path d="M150.012 234.135C149.842 233.914 149.782 233.68 149.75 233.441C149.731 233.202 149.74 232.963 149.865 232.711C150.039 232.931 150.094 233.165 150.127 233.404C150.145 233.643 150.136 233.882 150.012 234.135Z" fill="white"/>
<path d="M150.053 232.564C150.26 232.403 150.476 232.362 150.693 232.339C150.909 232.334 151.125 232.357 151.35 232.495C151.143 232.656 150.927 232.701 150.711 232.72C150.495 232.724 150.274 232.701 150.053 232.564Z" fill="white"/>
<path d="M153.699 221.111C153.98 221.074 154.21 221.143 154.431 221.235C154.647 221.341 154.849 221.469 155.005 221.704C154.725 221.74 154.495 221.671 154.274 221.58C154.058 221.474 153.856 221.345 153.699 221.111Z" fill="white"/>
<path d="M154.95 221.997C154.982 222.254 154.913 222.466 154.821 222.659C154.716 222.847 154.587 223.022 154.357 223.146C154.325 222.884 154.394 222.677 154.486 222.484C154.587 222.3 154.72 222.121 154.95 221.997Z" fill="white"/>
<path d="M156.307 223.045C156.026 223.008 155.819 222.889 155.631 222.742C155.447 222.586 155.286 222.411 155.189 222.145C155.47 222.177 155.677 222.301 155.865 222.448C156.049 222.604 156.21 222.779 156.307 223.045Z" fill="white"/>
<path d="M155.217 221.915C155.249 221.658 155.369 221.474 155.507 221.304C155.654 221.148 155.824 221.01 156.081 220.945C156.049 221.207 155.93 221.391 155.792 221.556C155.64 221.713 155.47 221.85 155.217 221.915Z" fill="white"/>
<path d="M126.708 260.946C126.928 261.12 127.043 261.332 127.135 261.552C127.213 261.777 127.264 262.016 127.204 262.292C126.984 262.117 126.869 261.906 126.777 261.685C126.703 261.456 126.652 261.221 126.708 260.946Z" fill="white"/>
<path d="M126.956 262.457C126.795 262.663 126.597 262.76 126.395 262.829C126.188 262.888 125.972 262.921 125.719 262.842C125.88 262.636 126.078 262.539 126.28 262.47C126.492 262.411 126.708 262.383 126.956 262.457Z" fill="white"/>
<path d="M127.168 264.156C126.997 263.935 126.938 263.701 126.905 263.462C126.887 263.223 126.896 262.984 127.02 262.732C127.195 262.952 127.25 263.187 127.283 263.425C127.301 263.664 127.292 263.903 127.168 264.156Z" fill="white"/>
<path d="M127.204 262.585C127.411 262.424 127.627 262.383 127.844 262.36C128.06 262.356 128.276 262.379 128.501 262.516C128.294 262.677 128.078 262.723 127.862 262.741C127.646 262.746 127.43 262.723 127.204 262.585Z" fill="white"/>
<path d="M155.148 247.857C155.369 248.031 155.484 248.243 155.576 248.463C155.654 248.688 155.704 248.927 155.645 249.203C155.424 249.028 155.309 248.817 155.217 248.597C155.143 248.367 155.093 248.133 155.148 247.857Z" fill="white"/>
<path d="M155.396 249.368C155.235 249.575 155.038 249.672 154.835 249.74C154.628 249.8 154.412 249.828 154.159 249.754C154.32 249.548 154.518 249.451 154.72 249.382C154.927 249.322 155.143 249.29 155.396 249.368Z" fill="white"/>
<path d="M155.603 251.069C155.433 250.848 155.373 250.614 155.341 250.375C155.323 250.136 155.332 249.897 155.456 249.644C155.631 249.865 155.686 250.099 155.718 250.338C155.736 250.572 155.727 250.816 155.603 251.069Z" fill="white"/>
<path d="M155.645 249.497C155.852 249.336 156.068 249.295 156.284 249.272C156.5 249.267 156.716 249.29 156.941 249.428C156.734 249.589 156.518 249.635 156.302 249.653C156.086 249.658 155.865 249.635 155.645 249.497Z" fill="white"/>
<path d="M132.948 275.683C133.168 275.858 133.283 276.069 133.375 276.289C133.453 276.515 133.504 276.753 133.444 277.029C133.224 276.855 133.109 276.643 133.017 276.423C132.938 276.193 132.888 275.954 132.948 275.683Z" fill="white"/>
<path d="M133.196 277.195C133.035 277.401 132.837 277.498 132.635 277.567C132.428 277.626 132.212 277.659 131.959 277.58C132.12 277.374 132.318 277.277 132.52 277.208C132.727 277.149 132.943 277.116 133.196 277.195Z" fill="white"/>
<path d="M133.403 278.889C133.233 278.669 133.173 278.434 133.141 278.195C133.122 277.956 133.131 277.718 133.256 277.465C133.43 277.686 133.485 277.92 133.518 278.159C133.536 278.398 133.527 278.637 133.403 278.889Z" fill="white"/>
<path d="M133.444 277.323C133.651 277.162 133.867 277.121 134.083 277.098C134.299 277.093 134.516 277.116 134.741 277.254C134.534 277.415 134.318 277.46 134.102 277.479C133.886 277.479 133.665 277.456 133.444 277.323Z" fill="white"/>
<path d="M148.977 266.632C149.198 266.807 149.313 267.018 149.405 267.238C149.483 267.464 149.534 267.702 149.474 267.978C149.253 267.804 149.138 267.592 149.046 267.372C148.973 267.142 148.922 266.908 148.977 266.632Z" fill="white"/>
<path d="M149.225 268.143C149.064 268.35 148.867 268.447 148.664 268.516C148.457 268.575 148.241 268.607 147.988 268.529C148.149 268.323 148.347 268.226 148.549 268.157C148.761 268.098 148.977 268.065 149.225 268.143Z" fill="white"/>
<path d="M149.437 269.844C149.267 269.623 149.207 269.389 149.175 269.15C149.157 268.911 149.166 268.672 149.29 268.42C149.465 268.64 149.52 268.874 149.552 269.113C149.566 269.348 149.557 269.591 149.437 269.844Z" fill="white"/>
<path d="M149.474 268.273C149.681 268.112 149.897 268.071 150.113 268.048C150.329 268.043 150.545 268.066 150.77 268.204C150.563 268.365 150.347 268.411 150.131 268.429C149.915 268.434 149.699 268.411 149.474 268.273Z" fill="white"/>
<path d="M121.47 281.669C121.691 281.843 121.806 282.055 121.898 282.275C121.976 282.5 122.027 282.739 121.967 283.015C121.746 282.84 121.631 282.629 121.539 282.408C121.466 282.179 121.415 281.94 121.47 281.669Z" fill="white"/>
<path d="M121.719 283.18C121.558 283.387 121.36 283.483 121.158 283.552C120.951 283.612 120.735 283.644 120.482 283.566C120.643 283.359 120.84 283.263 121.043 283.194C121.254 283.134 121.47 283.102 121.719 283.18Z" fill="white"/>
<path d="M121.93 284.876C121.76 284.655 121.7 284.421 121.668 284.182C121.65 283.943 121.659 283.704 121.783 283.451C121.958 283.672 122.013 283.906 122.045 284.145C122.059 284.384 122.05 284.623 121.93 284.876Z" fill="white"/>
<path d="M121.967 283.308C122.174 283.147 122.39 283.106 122.606 283.083C122.822 283.078 123.038 283.101 123.264 283.239C123.057 283.4 122.841 283.446 122.625 283.464C122.408 283.464 122.192 283.441 121.967 283.308Z" fill="white"/>
<path d="M114.651 295.487C114.872 295.662 114.987 295.873 115.079 296.094C115.157 296.319 115.208 296.558 115.148 296.833C114.927 296.659 114.812 296.447 114.72 296.227C114.647 295.997 114.596 295.763 114.651 295.487Z" fill="white"/>
<path d="M114.899 296.999C114.738 297.205 114.541 297.302 114.338 297.371C114.131 297.43 113.915 297.463 113.662 297.385C113.823 297.178 114.021 297.081 114.223 297.012C114.43 296.953 114.646 296.921 114.899 296.999Z" fill="white"/>
<path d="M115.106 298.699C114.936 298.478 114.876 298.244 114.844 298.005C114.826 297.766 114.835 297.527 114.959 297.275C115.134 297.495 115.189 297.73 115.221 297.968C115.24 298.203 115.231 298.446 115.106 298.699Z" fill="white"/>
<path d="M115.148 297.127C115.355 296.966 115.571 296.925 115.787 296.902C116.003 296.897 116.219 296.92 116.444 297.058C116.237 297.219 116.021 297.265 115.805 297.283C115.589 297.288 115.368 297.265 115.148 297.127Z" fill="white"/>
<path d="M111.593 265.898C111.874 265.893 112.099 265.985 112.306 266.1C112.508 266.228 112.697 266.38 112.826 266.628C112.545 266.633 112.32 266.541 112.113 266.426C111.911 266.297 111.722 266.146 111.593 265.898Z" fill="white"/>
<path d="M112.738 266.918C112.743 267.18 112.651 267.377 112.536 267.561C112.412 267.736 112.26 267.896 112.021 267.993C112.016 267.731 112.108 267.533 112.223 267.35C112.347 267.175 112.495 267.014 112.738 266.918Z" fill="white"/>
<path d="M113.971 268.107C113.699 268.042 113.506 267.895 113.332 267.735C113.166 267.56 113.023 267.367 112.959 267.091C113.235 267.156 113.428 267.303 113.598 267.464C113.764 267.638 113.906 267.831 113.971 268.107Z" fill="white"/>
<path d="M113.014 266.863C113.074 266.61 113.212 266.44 113.368 266.288C113.534 266.151 113.718 266.031 113.975 265.999C113.915 266.252 113.777 266.422 113.621 266.573C113.456 266.706 113.272 266.826 113.014 266.863Z" fill="white"/>
<path d="M122.068 242.67C121.829 242.817 121.59 242.849 121.351 242.858C121.112 242.849 120.872 242.817 120.633 242.665C120.872 242.518 121.112 242.482 121.351 242.477C121.59 242.491 121.829 242.523 122.068 242.67Z" fill="white"/>
<path d="M120.564 242.376C120.426 242.151 120.403 241.935 120.408 241.719C120.426 241.504 120.472 241.292 120.633 241.081C120.771 241.306 120.794 241.522 120.79 241.738C120.767 241.958 120.725 242.17 120.564 242.376Z" fill="white"/>
<path d="M118.895 241.982C119.162 241.899 119.406 241.927 119.636 241.977C119.865 242.042 120.086 242.138 120.284 242.34C120.017 242.423 119.774 242.395 119.544 242.345C119.314 242.28 119.093 242.184 118.895 241.982Z" fill="white"/>
<path d="M120.357 242.565C120.436 242.813 120.403 243.029 120.344 243.24C120.275 243.443 120.174 243.64 119.967 243.801C119.888 243.548 119.921 243.332 119.98 243.126C120.054 242.923 120.151 242.726 120.357 242.565Z" fill="white"/>
<path d="M112.66 231.815C112.881 231.989 112.996 232.201 113.088 232.421C113.166 232.646 113.216 232.885 113.157 233.161C112.936 232.986 112.821 232.775 112.729 232.554C112.651 232.329 112.6 232.091 112.66 231.815Z" fill="white"/>
<path d="M112.908 233.331C112.747 233.538 112.55 233.634 112.347 233.703C112.141 233.763 111.924 233.79 111.672 233.717C111.832 233.51 112.03 233.414 112.232 233.345C112.439 233.285 112.656 233.253 112.908 233.331Z" fill="white"/>
<path d="M113.115 235.026C112.945 234.805 112.885 234.571 112.853 234.332C112.835 234.093 112.844 233.854 112.968 233.601C113.143 233.822 113.198 234.056 113.23 234.295C113.249 234.534 113.239 234.773 113.115 235.026Z" fill="white"/>
<path d="M113.157 233.459C113.364 233.298 113.58 233.257 113.796 233.234C114.012 233.229 114.228 233.252 114.453 233.39C114.247 233.551 114.03 233.597 113.814 233.615C113.594 233.615 113.377 233.592 113.157 233.459Z" fill="white"/>
<path d="M99.7941 233.726C99.7941 233.726 72.7977 296.158 117.934 308.585C137.238 313.9 158.932 305.764 171.283 307.653C193.456 311.038 202.634 358.126 193.53 399.449H80.1641C65.8452 399.449 53.6874 388.928 51.7009 374.766C48.1786 349.632 45.5944 309.83 57.1131 277.167C69.372 242.414 99.7941 233.726 99.7941 233.726Z" fill="#858990"/>
<path d="M65.3395 376.172L65.0269 376.107C65.0912 375.855 68.425 349.191 76.0443 334.789L76.2972 334.913C68.7377 349.38 65.3395 375.919 65.3395 376.172Z" fill="#3F4249"/>
<path d="M64.1437 366.611H63.831C64.6495 351.957 59.4857 330.512 59.4259 330.264L59.7386 330.2C59.7386 330.388 64.9622 351.897 64.1437 366.611Z" fill="#3F4249"/>
<path d="M75.4739 336.171C75.4739 336.171 75.5383 321.769 88.1283 320.887C88.1881 320.891 89.1997 333.594 75.4739 336.171Z" fill="#4D61FC"/>
<path d="M45.2589 333.089C45.2589 333.089 41.8608 319.38 26.9395 323.276C26.9441 323.216 29.7766 333.277 45.2589 333.089Z" fill="#4D61FC"/>
<path d="M61.4355 338.689C61.4355 338.689 65.905 326.993 55.5175 320.892C55.5819 320.892 51.0526 332.4 61.4355 338.689Z" fill="#4D61FC"/>
<path d="M59.1732 376.171H58.8605C58.8605 349.131 45.3278 333.346 45.1393 333.153L45.3922 332.965C45.5117 333.153 59.1732 349.002 59.1732 376.171Z" fill="#3F4249"/>
<path d="M63.5139 376.171H63.2012C64.7738 348.437 66.0337 343.595 68.4892 334.035C68.7421 333.029 68.995 332.023 69.3076 330.893L69.6203 330.957C69.3674 332.087 69.0548 333.093 68.8018 334.099C66.3464 343.655 65.0865 348.437 63.5139 376.171Z" fill="#3F4249"/>
<path d="M55.9636 375.665H55.651C57.3523 354.85 52.5057 340.131 48.1604 331.453C43.0609 321.328 36.7659 315.668 33.8092 314.285L33.9334 314.033C36.9544 315.415 43.3138 321.139 48.4133 331.329C52.8138 340.007 57.7248 354.786 55.9636 375.665Z" fill="#3F4249"/>
<path d="M53.6319 375.665H53.3193C53.3836 375.413 57.0944 348.813 40.7292 340.007L40.8534 339.754C45.6356 342.331 51.6823 348.12 53.5078 361.135C54.639 368.875 53.6319 375.601 53.6319 375.665Z" fill="#3F4249"/>
<path d="M65.8451 372.147L65.5325 372.023C65.5325 371.958 67.0453 367.681 71.639 364.098L71.8275 364.351C67.3534 367.87 65.8451 372.082 65.8451 372.147Z" fill="#3F4249"/>
<path d="M67.3534 363.906L67.1649 363.653C67.542 363.341 76.6695 355.352 81.3276 353.969L81.3919 354.281C76.7983 355.604 67.4178 363.782 67.3534 363.906Z" fill="#3F4249"/>
<path d="M48.2799 346.674C48.2799 346.674 44.5645 332.588 29.9006 335.855C29.9006 335.859 32.4205 347.868 48.2799 346.674Z" fill="#4D61FC"/>
<path opacity="0.4" d="M48.2799 346.674C48.2799 346.674 44.5645 332.588 29.9006 335.855C29.9006 335.859 32.4205 347.868 48.2799 346.674Z" fill="white"/>
<path d="M55.8348 361.14C55.8348 361.14 53.315 351.139 39.8467 354.41C39.8467 354.41 44.2518 364.411 55.8348 361.14Z" fill="#4D61FC"/>
<path d="M64.9624 354.597C64.9624 354.597 66.2223 338.877 82.6519 336.924C82.5875 336.989 83.406 352.332 64.9624 354.597Z" fill="#4D61FC"/>
<path d="M60.6215 376.171H60.3088C60.433 364.975 61.0629 307.243 61.0629 306.678H61.3756C61.3113 307.243 60.6813 364.975 60.6215 376.171Z" fill="#3F4249"/>
<path d="M63.6427 350.45C63.6427 350.45 49.6042 351.203 49.6042 335.671C49.6042 335.671 63.2013 335.859 63.6427 350.45Z" fill="#4D61FC"/>
<path opacity="0.4" d="M63.6427 350.45C63.6427 350.45 49.6042 351.203 49.6042 335.671C49.6042 335.671 63.2013 335.859 63.6427 350.45Z" fill="white"/>
<path d="M76.858 356.421C76.858 356.421 80.6976 345.731 92.722 348.432C92.722 348.497 90.708 357.427 76.858 356.421Z" fill="#4D61FC"/>
<path opacity="0.4" d="M76.858 356.421C76.858 356.421 80.6976 345.731 92.722 348.432C92.722 348.497 90.708 357.427 76.858 356.421Z" fill="white"/>
<path d="M71.2574 375.854H46.4543V378.996H71.2574V375.854Z" fill="#3F4249"/>
<path d="M68.1122 399.311H49.6042L48.2201 379H69.4962L68.1122 399.311Z" fill="#84888F"/>
<path d="M68.1122 399.311H49.6042L48.2201 379H69.4962L68.1122 399.311Z" fill="#3F4249"/>
<path opacity="0.2" d="M71.2574 375.854H67.2937V379H63.5783H48.2201L48.2799 379.878H63.5783L63.6427 399.311H68.1122L69.4962 379H71.2574V375.854Z" fill="black"/>
<path d="M60.9985 318.691C60.9985 318.691 54.1379 308.314 63.0769 298.441C63.0723 298.377 68.9903 308.502 60.9985 318.691Z" fill="#4D61FC"/>
<path opacity="0.4" d="M60.9985 318.691C60.9985 318.691 54.1379 308.314 63.0769 298.441C63.0723 298.377 68.9903 308.502 60.9985 318.691Z" fill="white"/>
<path d="M67.2291 339.506C67.2291 339.506 59.6741 323.469 73.147 313.532C73.147 313.596 82.4631 328.122 67.2291 339.506Z" fill="#4D61FC"/>
<path opacity="0.4" d="M67.2291 339.506C67.2291 339.506 59.6741 323.469 73.147 313.532C73.147 313.596 82.3987 328.122 67.2291 339.506Z" fill="white"/>
<path d="M69.0549 366.988C69.0549 366.988 70.8804 360.005 80.4494 361.452C80.4494 361.452 78.8722 368.559 69.0549 366.988Z" fill="#4D61FC"/>
<path d="M55.9635 370.195C55.9635 370.195 53.8851 356.61 66.2866 355.039C66.2866 355.039 69.2433 366.8 55.9635 370.195Z" fill="#4D61FC"/>
<path opacity="0.4" d="M55.9635 370.195C55.9635 370.195 53.8851 356.61 66.2866 355.039C66.2866 355.039 69.2433 366.8 55.9635 370.195Z" fill="white"/>
<path d="M30.5306 312.085C30.5306 312.085 38.0212 311.332 39.4697 318.498C39.4053 318.498 32.6688 319.316 30.5306 312.085Z" fill="#4D61FC"/>
<path opacity="0.3" d="M30.5306 312.085C30.5306 312.085 38.0212 311.332 39.4697 318.498C39.4053 318.498 32.6688 319.316 30.5306 312.085Z" fill="white"/>
<path d="M48.7214 311.332C48.7214 311.332 39.4054 321.016 48.5329 331.518C48.5329 331.518 57.6605 321.204 48.7214 311.332Z" fill="#4D61FC"/>
<path opacity="0.4" d="M48.7214 311.332C48.7214 311.332 39.4054 321.016 48.5329 331.518C48.5329 331.518 57.6605 321.204 48.7214 311.332Z" fill="white"/>
</svg>
