<svg width="522" height="400" viewBox="0 0 522 400" fill="none" xmlns="http://www.w3.org/2000/svg">
<path d="M505.339 400L521.094 241.69C521.414 238.299 521.044 234.878 520.01 231.632L464.032 57.9871C462.588 53.5156 459.902 49.5448 456.29 46.5351C452.679 43.5259 448.291 41.6009 443.628 40.9834L134.305 0.210677C130.058 -0.345889 125.739 0.204816 121.768 1.80912C117.797 3.41387 114.309 6.01718 111.643 9.3665L5.37543 142.96C1.56352 147.744 -0.334759 153.771 0.0485078 159.874L14.4944 399.639L505.339 400Z" fill="#F4F4F4"/>
<path d="M61.9856 322.153H24.1103C23.7988 322.153 23.5004 322.029 23.2806 321.809C23.0603 321.59 22.9366 321.291 22.9366 320.98C22.9366 320.669 23.0603 320.371 23.2806 320.151C23.5004 319.931 23.7988 319.808 24.1103 319.808H61.9856C62.14 319.806 62.293 319.836 62.4361 319.894C62.5792 319.953 62.7088 320.039 62.818 320.148C62.9273 320.257 63.014 320.387 63.0726 320.53C63.1309 320.673 63.1607 320.826 63.1593 320.98C63.1535 321.289 63.028 321.584 62.809 321.803C62.5901 322.022 62.2953 322.147 61.9856 322.153Z" fill="#61656D"/>
<path d="M60.4052 322.153L66.6801 399.369H65.4161L55.9811 322.153H60.4052Z" fill="#61656D"/>
<path d="M25.4655 322.153L19.1454 399.369H20.4095L29.8444 322.153H25.4655Z" fill="#61656D"/>
<path d="M25.4642 322.153L25.2837 323.642H27.4505L19.8665 399.369H20.4082L29.8431 322.153H25.4642Z" fill="#3F4249"/>
<path d="M62.1206 351.741H60.9921L55.9811 322.153H60.4052L66.6801 399.369H66.0481L62.1206 351.741Z" fill="#3F4249"/>
<path d="M40.2269 322.153L41.2201 399.369H42.4841L44.651 322.153H40.2269Z" fill="#3F4249"/>
<path d="M49.0299 300.729C49.0299 300.729 51.7837 278.764 58.1037 266.767" stroke="#868A91" stroke-width="0.55" stroke-miterlimit="10"/>
<path d="M44.3798 262.978C44.3798 262.978 48.6684 280.659 47.9912 292.881" stroke="#868A91" stroke-width="0.55" stroke-miterlimit="10"/>
<path d="M57.5173 267.849C57.5173 267.849 57.5625 255.987 67.9454 255.311C67.9454 255.266 68.8032 265.685 57.5173 267.849Z" fill="#3ECC5F"/>
<path d="M32.6434 265.279C32.6434 265.279 29.8445 254.003 17.5655 257.206C17.5655 257.206 19.913 265.459 32.6434 265.279Z" fill="#3ECC5F"/>
<path d="M45.9602 269.924C45.9602 269.924 49.6168 260.317 41.1299 255.311C41.1299 255.266 37.383 264.737 45.9602 269.924Z" fill="#3ECC5F"/>
<path d="M32.6425 265.278C32.6425 265.278 43.9283 278.177 43.9283 300.729" stroke="#868A91" stroke-width="0.55" stroke-miterlimit="10"/>
<path d="M52.5046 263.52C50.0217 273.443 48.9382 275.608 47.4937 300.73" stroke="#868A91" stroke-width="0.55" stroke-miterlimit="10"/>
<path d="M23.2982 249.764C28.264 252.019 43.9287 268.436 41.3104 300.324" stroke="#868A91" stroke-width="0.55" stroke-miterlimit="10"/>
<path d="M39.4131 300.323C39.4131 300.323 42.6635 278.223 28.985 270.871" stroke="#868A91" stroke-width="0.55" stroke-miterlimit="10"/>
<path d="M49.4813 297.392C50.5178 294.83 52.2346 292.6 54.4471 290.942" stroke="#868A91" stroke-width="0.55" stroke-miterlimit="10"/>
<path d="M50.6998 290.536C50.6998 290.536 58.4193 283.725 62.3016 282.598" stroke="#868A91" stroke-width="0.55" stroke-miterlimit="10"/>
<path d="M35.1254 276.464C35.1254 276.464 32.1007 264.873 20.0023 267.579C20.0023 267.579 22.0789 277.457 35.1254 276.464Z" fill="#3ECC5F"/>
<path opacity="0.4" d="M35.1254 276.464C35.1254 276.464 32.1007 264.873 20.0023 267.579C20.0023 267.579 22.0789 277.457 35.1254 276.464Z" fill="white"/>
<path d="M41.3109 288.371C41.3109 288.371 39.2343 280.117 28.1741 282.869C28.2193 282.824 31.8308 291.077 41.3109 288.371Z" fill="#3ECC5F"/>
<path d="M48.848 283.004C48.848 283.004 49.8863 270.06 63.3842 268.481C63.339 268.481 64.0162 281.155 48.848 283.004Z" fill="#3ECC5F"/>
<path d="M45.7349 243.584C45.7349 243.584 45.1932 291.438 45.1029 300.729" stroke="#868A91" stroke-width="0.55" stroke-miterlimit="10"/>
<path d="M47.7194 279.576C47.7194 279.576 36.2078 280.162 36.2078 267.444C36.2078 267.444 47.3582 267.579 47.7194 279.576Z" fill="#3ECC5F"/>
<path opacity="0.4" d="M47.7194 279.576C47.7194 279.576 36.2078 280.162 36.2078 267.444C36.2078 267.444 47.3582 267.579 47.7194 279.576Z" fill="white"/>
<path d="M58.6459 284.492C58.6459 284.492 61.7608 275.742 71.6924 277.952C71.6472 277.952 70.0221 285.349 58.6459 284.492Z" fill="#3ECC5F"/>
<path opacity="0.4" d="M58.6459 284.492C58.6459 284.492 61.7608 275.742 71.6924 277.952C71.6472 277.952 70.0221 285.349 58.6459 284.492Z" fill="white"/>
<path d="M54.04 300.504H33.6352V303.075H54.04V300.504Z" fill="#868A91"/>
<path d="M51.4663 319.762H36.2079L35.0793 303.029H52.5949L51.4663 319.762Z" fill="#868A91"/>
<path d="M51.4663 319.762H36.2079L35.0793 303.029H52.5949L51.4663 319.762Z" fill="#868A91"/>
<path d="M54.0395 300.504H50.744V303.03H35.0793L35.1244 303.752H47.6743L47.7194 319.763H51.4663L52.5949 303.03H54.0395V300.504Z" fill="#61656D"/>
<path d="M45.5991 253.462C45.5991 253.462 39.9561 244.937 47.3145 236.774C47.2694 236.774 52.1449 245.073 45.5991 253.462Z" fill="#3ECC5F"/>
<path opacity="0.4" d="M45.5991 253.462C45.5991 253.462 39.9561 244.937 47.3145 236.774C47.2694 236.774 52.1449 245.073 45.5991 253.462Z" fill="white"/>
<path d="M50.6989 270.6C50.6989 270.6 44.5143 257.385 55.5744 249.267C55.5744 249.267 63.2036 261.219 50.6989 270.6Z" fill="#3ECC5F"/>
<path opacity="0.4" d="M50.6989 270.6C50.6989 270.6 44.5143 257.385 55.5744 249.267C55.5744 249.267 63.2036 261.219 50.6989 270.6Z" fill="white"/>
<path d="M52.1899 293.197C52.1899 293.197 53.6797 287.423 61.5798 288.641C61.5798 288.641 60.2706 294.505 52.1899 293.197Z" fill="#3ECC5F"/>
<path d="M41.4445 295.813C41.4445 295.813 39.729 284.673 49.9314 283.365C49.9314 283.365 52.3691 293.062 41.4445 295.813Z" fill="#3ECC5F"/>
<path opacity="0.4" d="M41.4445 295.813C41.4445 295.813 39.729 284.673 49.9314 283.365C49.9314 283.365 52.3691 293.062 41.4445 295.813Z" fill="white"/>
<path d="M20.4998 248.049C20.4998 248.049 26.6393 247.418 27.8131 253.326C26.1698 253.435 24.5402 252.967 23.2053 252.004C21.8699 251.041 20.9133 249.642 20.4998 248.049Z" fill="#3ECC5F"/>
<path opacity="0.3" d="M20.4998 248.049C20.4998 248.049 26.6393 247.418 27.8131 253.326C26.1698 253.435 24.5402 252.967 23.2053 252.004C21.8699 251.041 20.9133 249.642 20.4998 248.049Z" fill="white"/>
<path d="M35.4861 247.418C35.4861 247.418 27.8568 255.356 35.3055 264.016C35.3055 264.016 42.8444 255.536 35.4861 247.418Z" fill="#3ECC5F"/>
<path opacity="0.4" d="M35.4861 247.418C35.4861 247.418 27.8568 255.356 35.3055 264.016C35.3055 264.016 42.8444 255.536 35.4861 247.418Z" fill="white"/>
<path d="M472.339 275.968H503.443C503.849 275.968 504.242 275.806 504.526 275.519C504.815 275.231 504.977 274.841 504.977 274.434C504.977 274.028 504.815 273.637 504.526 273.35C504.242 273.062 503.849 272.901 503.443 272.901H472.339V275.968Z" fill="#B2B6BB"/>
<path d="M499.425 274.434H468.05V370.999H499.425V274.434Z" fill="#B2B6BB"/>
<path d="M468.998 274.434H333.613V370.999H468.998V274.434Z" fill="#DADDDF"/>
<path d="M464.123 363.648H338.083V287.875L464.123 287.966V363.648ZM338.806 362.971H463.446V288.687H338.806V362.971Z" fill="#B2B6BB"/>
<path d="M330.046 275.968H472.384C472.79 275.968 473.178 275.806 473.467 275.519C473.756 275.231 473.919 274.841 473.919 274.434C473.919 274.028 473.756 273.637 473.467 273.35C473.178 273.062 472.79 272.901 472.384 272.901H330.046C329.639 272.901 329.249 273.062 328.961 273.35C328.673 273.637 328.511 274.028 328.511 274.434C328.511 274.841 328.673 275.231 328.961 275.519C329.249 275.806 329.639 275.968 330.046 275.968Z" fill="#DADDDF"/>
<path d="M338.109 325.982H464.15V325.26H338.109V325.982Z" fill="#B2B6BB"/>
<path d="M400.019 301.677C400.493 301.677 400.954 301.537 401.346 301.274C401.744 301.011 402.051 300.638 402.231 300.201C402.412 299.764 402.457 299.284 402.367 298.82C402.272 298.356 402.046 297.93 401.712 297.596C401.378 297.262 400.949 297.034 400.484 296.942C400.024 296.85 399.541 296.897 399.103 297.078C398.665 297.259 398.295 297.565 398.028 297.958C397.766 298.351 397.627 298.814 397.627 299.286C397.627 299.92 397.879 300.528 398.326 300.976C398.778 301.425 399.383 301.677 400.019 301.677Z" fill="#B2B6BB"/>
<path opacity="0.15" d="M400.922 299.285C400.922 298.787 400.764 298.302 400.471 297.897C400.182 297.493 399.771 297.19 399.297 297.03C399.541 296.938 399.802 296.892 400.064 296.895C400.696 296.895 401.306 297.147 401.757 297.595C402.204 298.043 402.457 298.651 402.457 299.285C402.457 299.92 402.204 300.528 401.757 300.976C401.306 301.424 400.696 301.676 400.064 301.676C399.802 301.679 399.541 301.633 399.297 301.541C399.766 301.374 400.168 301.068 400.462 300.666C400.75 300.263 400.913 299.782 400.922 299.285Z" fill="black"/>
<path d="M400.019 338.931C400.493 338.931 400.954 338.791 401.346 338.528C401.744 338.266 402.051 337.892 402.231 337.456C402.412 337.019 402.457 336.538 402.367 336.074C402.272 335.611 402.046 335.185 401.712 334.851C401.378 334.516 400.949 334.289 400.484 334.196C400.024 334.104 399.541 334.152 399.103 334.332C398.665 334.513 398.295 334.819 398.028 335.213C397.766 335.606 397.627 336.068 397.627 336.541C397.627 337.175 397.879 337.783 398.326 338.231C398.778 338.679 399.383 338.931 400.019 338.931Z" fill="#B2B6BB"/>
<path opacity="0.15" d="M400.922 336.541C400.922 336.043 400.764 335.557 400.471 335.152C400.182 334.748 399.771 334.445 399.297 334.286C399.541 334.193 399.802 334.147 400.064 334.151C400.696 334.151 401.306 334.402 401.757 334.851C402.204 335.299 402.457 335.907 402.457 336.541C402.457 337.175 402.204 337.783 401.757 338.231C401.306 338.679 400.696 338.931 400.064 338.931C399.802 338.934 399.541 338.888 399.297 338.796C399.771 338.641 400.186 338.338 400.475 337.933C400.769 337.528 400.927 337.04 400.922 336.541Z" fill="black"/>
<path d="M473.919 279.215L468.998 275.968H333.613V277.456L473.919 279.215Z" fill="#B2B6BB"/>
<path d="M493.24 371.044L495.678 397.745C495.723 397.975 495.719 398.209 495.664 398.435C495.61 398.66 495.506 398.872 495.357 399.053C495.213 399.233 495.028 399.382 494.816 399.481C494.608 399.585 494.378 399.635 494.143 399.639C493.818 399.644 493.498 399.544 493.231 399.359C492.965 399.175 492.762 398.908 492.653 398.602L485.656 371.044H493.24Z" fill="#DADDDF"/>
<path d="M492.337 386.559L489.403 385.838L485.611 370.999H493.24L495.678 397.7C495.746 398.052 495.691 398.417 495.529 398.737C495.366 399.053 495.1 399.31 494.775 399.459L492.337 386.559Z" fill="#B2B6BB"/>
<path d="M465.928 371.044L468.366 397.745C468.411 397.975 468.407 398.209 468.353 398.435C468.298 398.66 468.195 398.872 468.046 399.053C467.901 399.233 467.716 399.382 467.504 399.481C467.296 399.585 467.066 399.635 466.831 399.639C466.506 399.644 466.186 399.544 465.919 399.359C465.653 399.175 465.45 398.908 465.342 398.602L458.344 371.044H465.928Z" fill="#DADDDF"/>
<path d="M463.4 373.975L459.067 373.163L458.344 371.044H465.974L468.411 397.745C468.479 398.097 468.429 398.462 468.262 398.778C468.1 399.098 467.834 399.355 467.509 399.504L463.4 373.975Z" fill="#B2B6BB"/>
<path d="M366.387 371.044L363.95 397.745C363.904 397.975 363.909 398.209 363.963 398.435C364.017 398.66 364.121 398.872 364.27 399.053C364.414 399.233 364.6 399.382 364.812 399.481C365.019 399.585 365.25 399.635 365.484 399.639C365.809 399.644 366.13 399.544 366.396 399.359C366.663 399.175 366.866 398.908 366.974 398.602L373.971 371.044H366.387Z" fill="#DADDDF"/>
<path d="M367.696 385.251L365.123 384.62L366.342 371.044H373.971L366.974 398.602C366.866 398.908 366.663 399.175 366.396 399.359C366.13 399.544 365.809 399.644 365.484 399.639H365.394L367.696 385.251Z" fill="#B2B6BB"/>
<path d="M338.308 371.044L335.871 397.745C335.824 397.975 335.828 398.209 335.884 398.435C335.939 398.66 336.044 398.872 336.191 399.053C336.337 399.233 336.522 399.382 336.732 399.481C336.942 399.585 337.172 399.635 337.405 399.639C337.731 399.644 338.05 399.544 338.316 399.359C338.584 399.175 338.786 398.908 338.895 398.602L345.892 371.044H338.308Z" fill="#DADDDF"/>
<path d="M341.288 373.344L337.947 372.713L338.308 370.999H345.937L338.94 398.557C338.831 398.863 338.629 399.129 338.362 399.314C338.095 399.499 337.776 399.599 337.45 399.594H337.36L341.288 373.344Z" fill="#B2B6BB"/>
<path d="M181.097 31.4532V84.2684H248.429V31.4532H181.097Z" fill="white"/>
<path d="M187.869 38.4888V77.232H241.657V38.4888H187.869Z" fill="#DDDDDD"/>
<path d="M249.917 31.4672H248.382V84.2372H249.917V31.4672Z" fill="#DADDDF"/>
<path d="M215.744 59.8363C217.405 59.8363 219.028 59.3443 220.409 58.4224C221.79 57.5009 222.866 56.1907 223.501 54.6576C224.137 53.1246 224.303 51.4378 223.979 49.8105C223.655 48.1832 222.855 46.6885 221.681 45.5154C220.507 44.3422 219.011 43.543 217.382 43.2192C215.753 42.8958 214.065 43.0618 212.531 43.6968C210.996 44.3319 209.685 45.4071 208.763 46.7863C207.84 48.166 207.347 49.7879 207.347 51.4473C207.347 53.6722 208.232 55.806 209.807 57.3791C211.381 58.9523 213.517 59.8363 215.744 59.8363Z" fill="#3ECC5F"/>
<path opacity="0.2" d="M193.668 73.8181L207.347 65.0682L193.804 56.3634L193.668 73.8181Z" fill="black"/>
<path opacity="0.2" d="M217.591 53.3826V71.5138H235.738V53.3826H217.591Z" fill="black"/>
<path d="M349.414 398.963H157.6C155.841 398.958 154.154 398.259 152.91 397.019C151.666 395.774 150.966 394.092 150.964 392.333V120.95C150.966 119.193 151.666 117.508 152.91 116.265C154.154 115.022 155.841 114.322 157.6 114.32H349.414C351.174 114.322 352.858 115.022 354.104 116.265C355.35 117.508 356.05 119.193 356.05 120.95V392.287C356.054 393.162 355.882 394.028 355.553 394.836C355.219 395.643 354.731 396.378 354.117 396.996C353.499 397.619 352.768 398.11 351.96 398.448C351.156 398.787 350.289 398.958 349.414 398.963Z" fill="#3ECC5F"/>
<path opacity="0.5" d="M349.414 398.963H157.6C155.841 398.958 154.154 398.259 152.91 397.019C151.666 395.774 150.966 394.092 150.964 392.333V120.95C150.966 119.193 151.666 117.508 152.91 116.265C154.154 115.022 155.841 114.322 157.6 114.32H349.414C351.174 114.322 352.858 115.022 354.104 116.265C355.35 117.508 356.05 119.193 356.05 120.95V392.287C356.054 393.162 355.882 394.028 355.553 394.836C355.219 395.643 354.731 396.378 354.117 396.996C353.499 397.619 352.768 398.11 351.96 398.448C351.156 398.787 350.289 398.958 349.414 398.963Z" fill="white"/>
<path d="M343.635 398.963H151.821C150.062 398.958 148.376 398.259 147.131 397.019C145.888 395.774 145.188 394.092 145.185 392.333V120.95C145.188 119.193 145.888 117.508 147.131 116.265C148.376 115.022 150.062 114.322 151.821 114.32H343.635C345.395 114.322 347.081 115.022 348.325 116.265C349.569 117.508 350.269 119.193 350.272 120.95V392.287C350.274 393.162 350.105 394.028 349.773 394.836C349.441 395.643 348.953 396.378 348.337 396.996C347.721 397.619 346.989 398.11 346.182 398.448C345.375 398.787 344.51 398.958 343.635 398.963Z" fill="#3ECC5F"/>
<path opacity="0.7" d="M343.635 398.963H151.821C150.062 398.958 148.376 398.259 147.131 397.019C145.888 395.774 145.188 394.092 145.185 392.333V120.95C145.188 119.193 145.888 117.508 147.131 116.265C148.376 115.022 150.062 114.322 151.821 114.32H343.635C345.395 114.322 347.081 115.022 348.325 116.265C349.569 117.508 350.269 119.193 350.272 120.95V392.287C350.274 393.162 350.105 394.028 349.773 394.836C349.441 395.643 348.953 396.378 348.337 396.996C347.721 397.619 346.989 398.11 346.182 398.448C345.375 398.787 344.51 398.958 343.635 398.963Z" fill="white"/>
<path d="M314.112 163.031H252.536C251.602 163.031 250.707 162.661 250.046 162.001C249.386 161.341 249.015 160.446 249.015 159.513C249.015 158.58 249.386 157.685 250.046 157.026C250.707 156.366 251.602 155.995 252.536 155.995H314.112C315.045 155.995 315.941 156.366 316.601 157.026C317.262 157.685 317.633 158.58 317.633 159.513C317.633 160.446 317.262 161.341 316.601 162.001C315.941 162.661 315.045 163.031 314.112 163.031Z" fill="white"/>
<path d="M315.737 179.719H250.866C250.375 179.719 249.904 179.525 249.557 179.178C249.21 178.831 249.015 178.36 249.015 177.87C249.015 177.379 249.21 176.91 249.557 176.563C249.904 176.216 250.375 176.021 250.866 176.021H315.737C316.228 176.021 316.698 176.216 317.046 176.563C317.393 176.91 317.588 177.379 317.588 177.87C317.588 178.36 317.393 178.831 317.046 179.178C316.698 179.525 316.228 179.719 315.737 179.719Z" fill="white"/>
<path d="M289.193 194.964H250.866C250.375 194.964 249.904 194.769 249.557 194.422C249.21 194.075 249.015 193.605 249.015 193.114C249.015 192.624 249.21 192.154 249.557 191.807C249.904 191.46 250.375 191.265 250.866 191.265H289.193C289.436 191.262 289.678 191.309 289.904 191.401C290.129 191.493 290.334 191.629 290.507 191.801C290.679 191.974 290.815 192.179 290.908 192.404C291 192.629 291.046 192.871 291.043 193.114C291.041 193.604 290.845 194.073 290.499 194.419C290.152 194.766 289.683 194.961 289.193 194.964Z" fill="white"/>
<path d="M314.112 255.491H252.536C251.602 255.491 250.707 255.121 250.046 254.461C249.386 253.801 249.015 252.907 249.015 251.973C249.015 251.041 249.386 250.146 250.046 249.486C250.707 248.826 251.602 248.455 252.536 248.455H314.112C315.045 248.455 315.941 248.826 316.601 249.486C317.262 250.146 317.633 251.041 317.633 251.973C317.633 252.907 317.262 253.801 316.601 254.461C315.941 255.121 315.045 255.491 314.112 255.491Z" fill="white"/>
<path d="M315.737 272.225H250.866C250.375 272.225 249.904 272.03 249.557 271.683C249.21 271.336 249.015 270.866 249.015 270.376C249.015 269.885 249.21 269.414 249.557 269.068C249.904 268.721 250.375 268.526 250.866 268.526H315.737C315.981 268.524 316.222 268.57 316.448 268.662C316.674 268.754 316.879 268.89 317.051 269.062C317.223 269.234 317.359 269.439 317.452 269.665C317.544 269.89 317.59 270.132 317.588 270.376C317.586 270.865 317.39 271.334 317.043 271.68C316.696 272.027 316.227 272.222 315.737 272.225Z" fill="white"/>
<path d="M289.193 287.469H250.866C250.375 287.469 249.904 287.274 249.557 286.927C249.21 286.58 249.015 286.11 249.015 285.619C249.015 285.129 249.21 284.659 249.557 284.312C249.904 283.965 250.375 283.77 250.866 283.77H289.193C289.436 283.768 289.678 283.814 289.904 283.906C290.129 283.998 290.334 284.135 290.507 284.306C290.679 284.479 290.815 284.683 290.908 284.909C291 285.134 291.046 285.376 291.043 285.619C291.033 286.107 290.834 286.571 290.49 286.916C290.145 287.26 289.68 287.458 289.193 287.469Z" fill="white"/>
<path d="M462.182 338.57L477.395 355.799L466.56 364.188L453.83 352.552L462.182 338.57Z" fill="#FC9D9D"/>
<path d="M475.363 352.958L485.069 360.4C485.588 360.793 485.954 361.358 486.094 361.995C486.234 362.632 486.144 363.297 485.837 363.873L467.192 398.286C466.994 398.651 466.669 398.936 466.28 399.075C465.888 399.22 465.454 399.211 465.071 399.053C464.245 398.746 463.567 398.137 463.175 397.348C462.782 396.563 462.701 395.657 462.949 394.813L463.175 394.001C464.245 390.262 464.809 386.393 464.845 382.5L465.116 364.324C465.125 363.778 465.314 363.251 465.662 362.826C466.005 362.401 466.479 362.103 467.012 361.979C468.75 361.587 470.321 360.664 471.513 359.339C472.7 358.013 473.445 356.351 473.648 354.582L473.738 353.68C473.752 353.498 473.815 353.324 473.919 353.175C474.027 353.027 474.167 352.909 474.334 352.835C474.501 352.761 474.686 352.734 474.867 352.756C475.047 352.777 475.219 352.847 475.363 352.958Z" fill="#3F4249"/>
<path d="M470.669 347.951L422.771 291.032L423.358 240.427L423.9 211.426L396.137 211.38L399.161 296.579C399.175 298.381 399.554 300.162 400.272 301.813C400.994 303.464 402.046 304.952 403.36 306.186L460.286 358.325L470.669 347.951Z" fill="#3ECC5F"/>
<path opacity="0.2" d="M470.669 347.952L422.771 291.033L423.765 211.472L396.137 211.427L399.161 296.625C399.175 298.427 399.554 300.207 400.272 301.859C400.994 303.51 402.046 304.998 403.36 306.232L460.286 358.371L470.669 347.952Z" fill="white"/>
<path d="M452.927 373.524L438.933 373.795L439.655 384.575L452.566 385.748L452.927 373.524Z" fill="#FC9D9D"/>
<path d="M446.111 379.208C444.318 379.21 442.594 379.908 441.307 381.152C440.021 382.396 439.267 384.092 439.204 385.883L439.158 387.597C439.118 388.282 439.014 388.963 438.842 389.626L436.901 396.708C436.825 396.992 436.815 397.289 436.874 397.583C436.928 397.871 437.055 398.142 437.231 398.376C437.411 398.611 437.637 398.805 437.903 398.936C438.165 399.066 438.454 399.139 438.752 399.143H454.643C454.954 399.148 455.266 399.075 455.541 398.931C455.821 398.782 456.056 398.57 456.232 398.313C456.408 398.052 456.516 397.754 456.543 397.443C456.575 397.131 456.525 396.816 456.403 396.527L453.649 389.717C453.279 388.765 453.067 387.759 453.017 386.74L452.972 385.928C452.945 384.133 452.209 382.419 450.923 381.161C449.641 379.9 447.907 379.2 446.111 379.208Z" fill="#3F4249"/>
<path d="M452.34 211.471L453.153 378.486H439.068L426.383 239.75C426.378 239.356 426.216 238.98 425.931 238.705C425.647 238.43 425.268 238.279 424.871 238.285C424.478 238.291 424.099 238.453 423.823 238.737C423.548 239.02 423.399 239.401 423.403 239.796L423.042 252.605L419.657 211.471H452.34Z" fill="#3ECC5F"/>
<path opacity="0.2" d="M452.34 211.471L453.153 378.486H439.068L426.383 239.75C426.378 239.356 426.216 238.98 425.931 238.705C425.647 238.43 425.268 238.279 424.871 238.285C424.478 238.291 424.099 238.453 423.823 238.737C423.548 239.02 423.399 239.401 423.403 239.796L423.042 252.605L419.657 211.471H452.34Z" fill="white"/>
<path opacity="0.4" d="M397.04 216.568H452.385L452.34 211.471H396.137L397.04 216.568Z" fill="black"/>
<path d="M436.554 216.978H438.359V211.476H436.554V216.978Z" fill="#3F4249"/>
<path d="M411.847 216.978H413.652V211.476H411.847V216.978Z" fill="#3F4249"/>
<path opacity="0.5" d="M449.045 386.244C449.094 386.239 449.149 386.226 449.194 386.203C449.239 386.181 449.28 386.149 449.316 386.108C449.356 386.036 449.37 385.951 449.352 385.865C449.338 385.784 449.293 385.707 449.225 385.657C449.18 385.657 446.11 383.628 443.041 385.657C443.005 385.68 442.973 385.711 442.95 385.748C442.928 385.784 442.91 385.824 442.901 385.865C442.892 385.905 442.892 385.951 442.901 385.991C442.91 386.032 442.928 386.072 442.95 386.108C442.973 386.144 443.005 386.176 443.041 386.199C443.077 386.221 443.113 386.239 443.158 386.248C443.199 386.257 443.244 386.257 443.284 386.248C443.325 386.239 443.366 386.221 443.402 386.199C446.11 384.394 448.864 386.199 448.864 386.199C448.918 386.23 448.982 386.244 449.045 386.244Z" fill="black"/>
<path opacity="0.5" d="M449.045 388.048C449.094 388.043 449.149 388.03 449.194 388.007C449.239 387.985 449.28 387.953 449.316 387.912C449.356 387.84 449.37 387.755 449.352 387.669C449.338 387.588 449.293 387.511 449.225 387.461C449.18 387.461 446.11 385.432 443.041 387.461C443.005 387.484 442.973 387.516 442.95 387.552C442.928 387.588 442.91 387.628 442.901 387.669C442.892 387.71 442.892 387.755 442.901 387.795C442.91 387.836 442.928 387.876 442.95 387.912C442.973 387.949 443.005 387.98 443.041 388.003C443.077 388.025 443.113 388.043 443.158 388.052C443.199 388.061 443.244 388.061 443.284 388.052C443.325 388.043 443.366 388.025 443.402 388.003C446.11 386.199 448.864 388.003 448.864 388.003C448.918 388.034 448.982 388.048 449.045 388.048Z" fill="black"/>
<path opacity="0.5" d="M449.045 389.897C449.094 389.893 449.149 389.879 449.194 389.856C449.239 389.834 449.28 389.802 449.316 389.762C449.356 389.69 449.37 389.604 449.352 389.518C449.338 389.437 449.293 389.36 449.225 389.311C449.18 389.311 446.11 387.281 443.041 389.311C443.005 389.333 442.973 389.365 442.95 389.401C442.928 389.437 442.91 389.473 442.901 389.518C442.892 389.559 442.892 389.604 442.901 389.644C442.91 389.685 442.928 389.726 442.95 389.762C442.973 389.798 443.005 389.829 443.041 389.852C443.077 389.874 443.113 389.893 443.158 389.902C443.199 389.906 443.244 389.906 443.284 389.902C443.325 389.893 443.366 389.874 443.402 389.852C446.11 388.048 448.864 389.852 448.864 389.852C448.955 389.852 449 389.897 449.045 389.897Z" fill="black"/>
<path opacity="0.5" d="M468.366 368.879C468.438 368.869 468.506 368.838 468.565 368.79C468.619 368.742 468.66 368.679 468.682 368.609C468.727 368.428 468.592 368.293 468.411 368.248L465.116 367.797C464.935 367.752 464.8 367.887 464.755 368.067C464.71 368.248 464.845 368.383 465.026 368.428L468.321 368.879H468.366Z" fill="black"/>
<path opacity="0.5" d="M468.276 371.134C468.348 371.124 468.416 371.093 468.475 371.045C468.529 370.997 468.569 370.934 468.592 370.864C468.637 370.683 468.502 370.548 468.321 370.503L465.026 370.052C464.845 370.007 464.71 370.142 464.664 370.322C464.619 370.503 464.755 370.638 464.935 370.683L468.231 371.134H468.276Z" fill="black"/>
<path opacity="0.5" d="M468.276 373.57C468.348 373.56 468.416 373.528 468.475 373.481C468.529 373.433 468.569 373.37 468.592 373.299C468.637 373.119 468.502 372.984 468.321 372.938L465.026 372.487C464.845 372.442 464.71 372.578 464.664 372.758C464.619 372.938 464.755 373.074 464.935 373.119L468.231 373.57H468.276Z" fill="black"/>
<path opacity="0.5" d="M485.837 363.873L467.192 398.286C466.994 398.651 466.669 398.936 466.281 399.075C465.888 399.22 465.454 399.211 465.071 399.053C464.908 399.003 464.755 398.931 464.619 398.827L485.069 360.4C485.593 360.788 485.963 361.354 486.103 361.992C486.243 362.631 486.148 363.299 485.837 363.873Z" fill="black"/>
<path opacity="0.5" d="M454.688 399.143H438.797C438.508 399.139 438.224 399.071 437.967 398.949C437.705 398.823 437.479 398.638 437.299 398.417C437.118 398.191 436.987 397.93 436.919 397.65C436.852 397.37 436.843 397.082 436.901 396.798H456.539C456.602 397.077 456.602 397.366 456.539 397.646C456.475 397.925 456.349 398.187 456.173 398.412C455.992 398.633 455.767 398.818 455.514 398.945C455.257 399.071 454.972 399.139 454.688 399.143Z" fill="black"/>
<g opacity="0.2">
<path opacity="0.2" d="M434.464 334.782L435.141 335.548L432.071 302.082L431.394 301.315L434.464 334.782Z" fill="black"/>
</g>
<path d="M407.378 211.561C411.486 157.619 416 124.558 416 124.558L416.406 124.423C416.406 124.423 424.216 134.842 434.328 126.723L435.682 125.055L436.856 125.37H436.811C436.811 125.37 437.308 170.653 441.867 211.516L407.378 211.561Z" fill="white"/>
<path d="M473.377 165.512L454.913 169.842L453.243 164.204L452.521 236.638H441.732C440.752 236.64 439.813 236.275 439.091 235.615C438.373 234.954 437.931 234.048 437.849 233.075C433.064 176.156 436.811 125.415 436.811 125.415L444.666 127.445L459.112 131.143C461.252 131.682 463.197 132.808 464.728 134.394C466.258 135.98 467.319 137.963 467.779 140.119L473.377 165.512Z" fill="#21252B"/>
<path d="M415.91 105.164L416.045 126.182C416.05 126.635 416.189 127.076 416.451 127.445L416.632 127.716C421.823 132.902 429.994 132.497 436.044 127.49C436.346 127.242 436.576 126.921 436.721 126.558C436.861 126.195 436.91 125.802 436.856 125.415L433.606 103.721L415.91 105.164Z" fill="#FC9D9D"/>
<path d="M435.457 96.2341C435.457 96.2341 439.068 119.913 425.977 120.86C413.201 121.807 412.84 97.8578 412.84 97.8578L412.479 91.0022L428.911 88.1156L433.064 90.2354L435.457 96.2341Z" fill="#FC9D9D"/>
<path opacity="0.15" d="M435.773 118.875L434.825 112.38C433.651 116.575 431.168 120.048 426.879 120.769H426.925L425.977 120.905C422.546 121.175 419.747 119.597 417.58 116.214C417.539 116.148 417.472 116.102 417.395 116.085C417.318 116.068 417.241 116.082 417.174 116.124C417.11 116.166 417.061 116.232 417.047 116.308C417.029 116.385 417.043 116.464 417.083 116.53C419.34 120.093 422.365 121.762 426.022 121.491C426.789 121.448 427.548 121.311 428.279 121.085C430.969 121.359 433.665 120.566 435.773 118.875Z" fill="black"/>
<path d="M432.387 90.912C432.387 90.912 436.54 88.1607 438.526 92.8514C440.152 96.8204 437.398 101.15 437.398 101.15L435.005 100.925C434.012 100.88 433.29 100.429 433.2 99.4364L432.387 90.912Z" fill="#21252B"/>
<path d="M435.366 88.0705C435.727 92.5808 431.845 93.7535 430.265 93.8888L417.354 94.9712C416.853 95.0096 416.388 95.2441 416.054 95.6243C415.724 96.0041 415.562 96.4989 415.594 97.0009L415.819 101.105C415.837 101.371 415.752 101.634 415.585 101.843C415.418 102.051 415.178 102.19 414.916 102.233L414.104 102.323L413.201 103.451C408.145 102.233 406.023 87.8901 415.323 84.9585C416.316 84.6423 417.147 83.945 417.625 83.0191C418.979 80.2227 424.532 79.5011 427.331 82.6131C427.597 82.9379 427.936 83.1936 428.319 83.3582C428.708 83.5233 429.128 83.5928 429.543 83.5603C432.974 83.4701 435.141 85.5899 435.366 88.0705Z" fill="#21252B"/>
<path d="M414.104 103.766C414.068 103.387 413.928 103.025 413.702 102.718C413.476 102.411 413.169 102.171 412.817 102.024C412.465 101.876 412.081 101.825 411.702 101.878C411.328 101.931 410.971 102.084 410.673 102.322L410.628 102.368C408.416 104.262 409.815 110.351 414.736 109.764L414.104 103.766Z" fill="#FC9D9D"/>
<path d="M438.481 100.564C438.468 100.564 438.459 100.559 438.45 100.551C438.441 100.542 438.436 100.531 438.436 100.519C438.107 100.328 437.732 100.228 437.353 100.233C436.969 100.237 436.599 100.345 436.274 100.544C435.949 100.743 435.687 101.026 435.511 101.363C435.335 101.7 435.254 102.079 435.276 102.458L435.547 108.231C440.422 108.051 440.919 102.143 438.481 100.564Z" fill="#FC9D9D"/>
<path d="M414.736 104.533C414.781 104.804 414.51 105.074 414.194 105.119C414.045 105.141 413.896 105.107 413.77 105.023C413.643 104.94 413.553 104.814 413.517 104.668L412.975 100.789L414.555 100.835L414.736 104.533Z" fill="#21252B"/>
<path d="M436.269 102.909C436.314 103.18 436.043 103.45 435.727 103.496C435.579 103.517 435.425 103.483 435.303 103.4C435.177 103.317 435.086 103.19 435.05 103.045L434.509 99.1657L436.089 99.2108L436.269 102.909Z" fill="#21252B"/>
<path d="M430.31 94.4755C430.085 94.5013 429.859 94.5013 429.633 94.4755C429.561 94.4755 429.493 94.4467 429.444 94.3962C429.389 94.3452 429.362 94.2766 429.362 94.2049C429.362 94.1332 429.389 94.0642 429.444 94.0132C429.493 93.9627 429.561 93.9343 429.633 93.9343C429.678 93.9343 432.251 94.0696 433.335 92.3557C433.371 92.2957 433.43 92.2524 433.497 92.2357C433.565 92.2186 433.637 92.2294 433.696 92.2655C433.755 92.3011 433.8 92.3593 433.818 92.427C433.831 92.4946 433.822 92.5663 433.786 92.6263C432.974 94.0696 431.258 94.3853 430.31 94.4755Z" fill="#FC9D9D"/>
<path d="M420.65 107.104C420.871 107.104 421.092 107.038 421.277 106.914C421.462 106.79 421.607 106.614 421.692 106.408C421.778 106.202 421.801 105.975 421.756 105.756C421.715 105.537 421.607 105.337 421.449 105.179C421.291 105.021 421.088 104.914 420.871 104.87C420.65 104.827 420.424 104.849 420.216 104.934C420.013 105.02 419.837 105.164 419.711 105.35C419.589 105.535 419.521 105.754 419.521 105.976C419.521 106.275 419.638 106.562 419.851 106.774C420.063 106.985 420.352 107.104 420.65 107.104Z" fill="#21252B"/>
<path d="M420.108 106.112C420.153 106.112 420.198 106.098 420.234 106.074C420.27 106.049 420.298 106.014 420.316 105.973C420.334 105.932 420.338 105.886 420.329 105.842C420.32 105.799 420.298 105.758 420.266 105.727C420.234 105.695 420.198 105.674 420.153 105.665C420.108 105.656 420.063 105.661 420.022 105.678C419.982 105.695 419.945 105.724 419.923 105.761C419.896 105.798 419.882 105.842 419.882 105.886C419.882 105.946 419.905 106.004 419.95 106.046C419.991 106.088 420.049 106.112 420.108 106.112Z" fill="white"/>
<path d="M429.362 106.472C429.588 106.472 429.805 106.406 429.99 106.282C430.175 106.158 430.319 105.982 430.405 105.776C430.491 105.57 430.514 105.343 430.468 105.125C430.428 104.906 430.319 104.705 430.161 104.547C430.003 104.39 429.8 104.282 429.584 104.239C429.362 104.195 429.137 104.218 428.929 104.303C428.726 104.388 428.55 104.533 428.423 104.718C428.301 104.904 428.234 105.122 428.234 105.345C428.234 105.644 428.351 105.931 428.563 106.142C428.775 106.353 429.064 106.472 429.362 106.472Z" fill="#21252B"/>
<path d="M428.821 105.435C428.866 105.435 428.911 105.422 428.947 105.398C428.983 105.373 429.015 105.337 429.028 105.296C429.046 105.255 429.051 105.209 429.042 105.166C429.033 105.122 429.015 105.082 428.983 105.05C428.951 105.019 428.911 104.998 428.866 104.988C428.821 104.98 428.775 104.984 428.735 105.002C428.694 105.019 428.658 105.048 428.635 105.085C428.608 105.122 428.595 105.165 428.595 105.21C428.595 105.269 428.617 105.327 428.663 105.369C428.703 105.412 428.762 105.435 428.821 105.435Z" fill="white"/>
<g opacity="0.3">
<path opacity="0.3" d="M425.57 111.343L426.473 111.253C426.563 111.247 426.645 111.206 426.703 111.138C426.767 111.071 426.794 110.982 426.789 110.892C426.785 110.803 426.739 110.719 426.672 110.66C426.604 110.601 426.518 110.571 426.428 110.577L425.525 110.667C425.435 110.674 425.345 110.664 425.259 110.636C425.178 110.608 425.096 110.563 425.029 110.504C424.961 110.445 424.907 110.373 424.866 110.293C424.83 110.212 424.807 110.125 424.803 110.035C424.789 109.946 424.798 109.854 424.825 109.768C424.852 109.681 424.898 109.601 424.956 109.533C425.015 109.464 425.087 109.409 425.173 109.372C425.254 109.334 425.345 109.314 425.435 109.314C425.525 109.308 425.606 109.266 425.665 109.199C425.728 109.131 425.755 109.043 425.751 108.953C425.746 108.863 425.701 108.78 425.633 108.72C425.566 108.661 425.48 108.631 425.39 108.637C425.209 108.649 425.038 108.695 424.875 108.774C424.717 108.853 424.573 108.962 424.455 109.096C424.338 109.231 424.248 109.387 424.193 109.556C424.135 109.724 424.112 109.903 424.126 110.081C424.135 110.258 424.184 110.432 424.261 110.592C424.342 110.752 424.451 110.895 424.586 111.012C424.717 111.129 424.875 111.219 425.042 111.276C425.214 111.333 425.39 111.356 425.57 111.343Z" fill="black"/>
</g>
<path d="M432.522 102.323L427.602 102.594L426.925 102.639L422.591 102.865H422.546L416.993 103.18C416.781 103.191 416.569 103.244 416.375 103.336C416.185 103.429 416.009 103.558 415.869 103.718C415.724 103.877 415.616 104.063 415.544 104.265C415.476 104.467 415.445 104.681 415.458 104.894L415.548 106.157C415.562 106.753 415.697 107.34 415.946 107.883C416.189 108.426 416.542 108.914 416.979 109.318C417.422 109.722 417.936 110.034 418.496 110.235C419.061 110.437 419.656 110.524 420.252 110.49C420.848 110.457 421.431 110.304 421.963 110.042C422.501 109.779 422.979 109.412 423.367 108.962C423.76 108.511 424.058 107.987 424.238 107.42C424.424 106.853 424.491 106.255 424.442 105.661L424.351 104.398C424.338 104.042 424.193 103.704 423.945 103.451L425.661 103.361C425.457 103.649 425.358 104.001 425.39 104.353L425.48 105.616C425.493 106.212 425.629 106.798 425.877 107.342C426.121 107.885 426.473 108.373 426.911 108.777C427.353 109.181 427.868 109.493 428.428 109.694C428.992 109.896 429.588 109.982 430.184 109.949C430.78 109.916 431.362 109.763 431.895 109.501C432.432 109.238 432.911 108.871 433.299 108.42C433.692 107.97 433.989 107.446 434.17 106.879C434.355 106.312 434.423 105.714 434.373 105.12L434.283 103.857C434.269 103.64 434.215 103.427 434.12 103.231C434.026 103.036 433.89 102.861 433.728 102.719C433.561 102.576 433.371 102.467 433.163 102.399C432.956 102.332 432.739 102.305 432.522 102.323ZM423.719 104.443L423.81 105.706C423.864 106.705 423.516 107.684 422.848 108.429C422.18 109.173 421.241 109.621 420.243 109.675C419.241 109.729 418.262 109.384 417.517 108.715C416.772 108.047 416.325 107.111 416.271 106.112L416.18 104.849C416.171 104.587 416.262 104.33 416.442 104.137C416.618 103.942 416.867 103.826 417.128 103.812L422.681 103.496H422.726C422.979 103.503 423.223 103.604 423.403 103.779C423.588 103.954 423.701 104.191 423.719 104.443ZM433.696 105.12C433.75 106.118 433.403 107.098 432.735 107.842C432.066 108.586 431.127 109.035 430.13 109.089C429.128 109.142 428.148 108.797 427.403 108.129C426.658 107.461 426.211 106.524 426.157 105.526L426.067 104.263C426.058 104 426.148 103.744 426.329 103.55C426.505 103.356 426.753 103.239 427.015 103.225L427.692 103.18L432.613 102.91C432.874 102.9 433.132 102.994 433.326 103.171C433.52 103.348 433.637 103.594 433.651 103.857L433.696 105.12Z" fill="#21252B"/>
<path d="M422.771 113.148L428.324 112.742C428.356 112.741 428.392 112.748 428.423 112.762C428.455 112.776 428.482 112.797 428.5 112.823C428.523 112.849 428.541 112.879 428.545 112.912C428.554 112.945 428.554 112.979 428.55 113.012C428.378 113.636 428.022 114.193 427.52 114.606C427.024 115.02 426.41 115.271 425.764 115.325C425.123 115.379 424.473 115.234 423.914 114.909C423.354 114.584 422.907 114.095 422.636 113.508V113.463C422.613 113.435 422.6 113.402 422.6 113.368C422.595 113.333 422.6 113.299 422.613 113.267C422.627 113.235 422.649 113.207 422.677 113.186C422.704 113.165 422.735 113.152 422.771 113.148Z" fill="white"/>
<g opacity="0.3">
<path opacity="0.3" d="M412.885 106.879C412.804 106.885 412.722 106.861 412.655 106.811C412.587 106.761 412.542 106.689 412.524 106.608L412.434 105.932C412.343 105.21 412.163 104.669 411.802 104.398C411.729 104.333 411.644 104.283 411.549 104.252C411.458 104.221 411.359 104.209 411.26 104.218C411.219 104.228 411.174 104.229 411.129 104.221C411.084 104.213 411.043 104.196 411.007 104.17C410.971 104.146 410.939 104.113 410.917 104.075C410.89 104.038 410.876 103.995 410.872 103.951C410.863 103.907 410.867 103.862 410.876 103.819C410.89 103.777 410.912 103.737 410.939 103.703C410.966 103.668 411.002 103.64 411.043 103.62C411.084 103.6 411.124 103.589 411.17 103.586C411.54 103.542 411.91 103.639 412.208 103.857C412.704 104.218 412.975 104.894 413.111 105.841L413.201 106.518C413.206 106.607 413.174 106.694 413.115 106.761C413.057 106.829 412.975 106.871 412.885 106.879Z" fill="black"/>
</g>
<g opacity="0.3">
<path opacity="0.3" d="M436.946 105.119C436.987 105.121 437.028 105.113 437.068 105.098C437.109 105.083 437.145 105.059 437.172 105.03C437.204 105 437.226 104.965 437.24 104.926C437.258 104.887 437.262 104.846 437.262 104.804V104.082C437.217 103.36 437.353 102.774 437.669 102.503C437.894 102.278 438.165 102.233 438.165 102.278C438.251 102.278 438.328 102.245 438.386 102.185C438.45 102.126 438.481 102.046 438.481 101.962C438.481 101.879 438.45 101.798 438.386 101.739C438.328 101.68 438.251 101.646 438.165 101.646C437.786 101.662 437.434 101.824 437.172 102.097C436.721 102.548 436.54 103.225 436.585 104.172V104.849C436.585 104.984 436.721 105.119 436.946 105.119Z" fill="black"/>
</g>
<g opacity="0.3">
<path opacity="0.3" d="M462.814 140.48L468.502 166.684L473.422 165.512L468.321 142.194C467.328 135.879 464.303 132.902 459.879 131.279L454.281 129.836C459.428 132.136 461.73 135.789 462.814 140.48Z" fill="black"/>
</g>
<path opacity="0.3" d="M453.243 164.204L452.521 236.638H446.833L447.6 150.628C447.609 150.477 447.668 150.333 447.767 150.222C447.871 150.11 448.007 150.037 448.156 150.016C448.309 149.995 448.458 150.026 448.589 150.105C448.72 150.183 448.815 150.305 448.864 150.447L453.243 164.204Z" fill="black"/>
<path d="M436.495 123.341L439.7 126.092L443.989 141.743L436.495 138.179L436.811 125.596L436.495 123.341Z" fill="#21252B"/>
<path opacity="0.3" d="M440.287 126.227L439.655 126.047L443.989 141.743L436.495 138.179L436.405 141.472L444.621 142.329L440.287 126.227Z" fill="black"/>
<path opacity="0.15" d="M419.521 211.561H413.382L416 126.362C416 126.362 421.869 169.029 419.521 211.561Z" fill="black"/>
<path opacity="0.15" d="M419.386 211.471H399.568L400.064 236.593H413.472C414.637 236.595 415.761 236.16 416.623 235.376C417.481 234.591 418.018 233.513 418.122 232.354C418.663 225.859 419.07 218.823 419.386 211.471Z" fill="black"/>
<path d="M329.73 194.919L374.829 190.047C376.856 189.821 378.793 189.092 380.463 187.926C382.133 186.76 383.488 185.194 384.4 183.372L393.609 164.88L382.955 141.337L367.651 174.893L328.421 185.763L329.73 194.919Z" fill="#FC9D9D"/>
<path opacity="0.15" d="M388.417 165.737L379.208 184.229C377.772 187.085 375.276 189.269 372.256 190.318L374.829 190.047C376.856 189.821 378.793 189.091 380.463 187.925C382.138 186.759 383.488 185.194 384.399 183.372L393.609 164.88L388.417 165.737Z" fill="black"/>
<path d="M410.131 236.594H396.724L395.144 158.386L388.869 166.91L381.962 142.329C383.09 138.27 383.948 136.24 386.205 134.166C387.695 132.849 389.451 131.865 391.352 131.279L416 124.604C416 124.604 418.302 190.769 414.781 232.354C414.682 233.516 414.149 234.598 413.287 235.385C412.425 236.17 411.3 236.602 410.131 236.594Z" fill="#21252B"/>
<path d="M372.978 162.625L389.636 172.954L397.401 158.115L385.348 137.503L383.226 138.585L372.978 162.625Z" fill="#21252B"/>
<path d="M416 122.845L413.156 125.37L408.867 141.066L416.361 137.503L416 122.845Z" fill="#21252B"/>
<path opacity="0.3" d="M412.569 125.551L413.201 125.37L408.867 141.066L416.361 137.503L416.451 140.795L408.235 141.652L412.569 125.551Z" fill="black"/>
<path d="M477.124 182.56L473.422 165.467L454.959 169.796L458.66 180.621L427.782 187.477L426.067 187.837C425.48 187.973 424.983 188.018 424.577 187.612L423.9 186.935C423.281 186.453 422.577 186.086 421.823 185.853C420.004 185.306 418.469 184.078 417.535 182.425L416.045 179.809C416.031 179.778 416.009 179.75 415.982 179.728C415.955 179.705 415.919 179.689 415.887 179.681C415.851 179.672 415.815 179.671 415.783 179.677C415.747 179.684 415.715 179.699 415.684 179.719L415.458 179.809C414.939 180.012 414.515 180.404 414.271 180.906C414.032 181.408 413.986 181.983 414.149 182.515L415.278 186.124C415.341 186.309 415.327 186.511 415.241 186.688C415.16 186.865 415.011 187.002 414.826 187.071L407.558 190.047C406.023 190.634 406.565 192.708 407.964 192.393C408.732 192.212 408.867 192.167 408.867 192.167L407.423 192.889C405.797 193.656 406.565 195.866 407.964 195.55C409.364 195.234 411.17 194.738 411.17 194.738L409.364 195.46C409.088 195.625 408.881 195.883 408.777 196.188C408.673 196.493 408.682 196.824 408.804 197.123C408.921 197.421 409.147 197.668 409.432 197.818C409.716 197.967 410.045 198.011 410.357 197.94C411.395 197.67 413.066 197.174 413.066 197.174L411.982 197.715C410.583 198.166 411.079 200.331 412.388 200.06C413.517 199.835 424.216 197.219 429.723 196.226L470.623 191.806C471.68 191.669 472.691 191.313 473.603 190.764C474.51 190.213 475.296 189.481 475.91 188.611C476.519 187.742 476.943 186.755 477.151 185.714C477.363 184.672 477.354 183.598 477.124 182.56Z" fill="#FC9D9D"/>
<g opacity="0.2">
<path opacity="0.2" d="M432.071 302.127L422.771 291.077L423.403 239.796C423.417 239.422 423.579 239.069 423.846 238.809C424.117 238.549 424.473 238.402 424.848 238.397C423.114 238.414 421.462 239.108 420.239 240.331C419.015 241.554 418.32 243.208 418.302 244.937L417.806 293.693L432.883 310.967L432.071 302.127Z" fill="black"/>
<path opacity="0.2" d="M452.927 326.888L452.972 333.924L467.779 350.883L470.669 347.951L452.927 326.888Z" fill="black"/>
</g>
<path opacity="0.15" d="M470.533 191.806L429.633 196.227C424.126 197.219 413.427 199.835 412.298 200.06C412.14 200.08 411.978 200.065 411.824 200.017C411.671 199.969 411.531 199.889 411.409 199.782C411.291 199.676 411.197 199.544 411.129 199.398C411.066 199.252 411.034 199.093 411.034 198.933C411.16 199.103 411.341 199.224 411.549 199.273C411.756 199.323 411.973 199.298 412.163 199.203C412.614 199.068 419.16 196.678 423.313 195.099C425.552 194.262 427.864 193.643 430.22 193.25C439.158 191.761 462.362 187.837 468.592 186.439C470.398 186.033 472.384 184.68 471.932 182.29L468.456 166.639L473.377 165.467L477.079 182.515C477.318 183.56 477.336 184.643 477.128 185.695C476.921 186.746 476.496 187.743 475.878 188.62C475.264 189.496 474.465 190.232 473.544 190.782C472.623 191.331 471.598 191.68 470.533 191.806Z" fill="black"/>
<path d="M427.737 187.522L429.317 196.272L432.071 196.001L430.491 186.89L427.737 187.522Z" fill="#001B34"/>
<path d="M430.039 194.829C430.586 194.829 431.118 194.667 431.57 194.365C432.021 194.063 432.373 193.633 432.581 193.13C432.793 192.628 432.847 192.074 432.739 191.541C432.635 191.007 432.373 190.517 431.985 190.132C431.601 189.747 431.109 189.485 430.577 189.379C430.044 189.273 429.489 189.327 428.983 189.536C428.482 189.744 428.053 190.097 427.751 190.549C427.448 191.001 427.286 191.533 427.286 192.078C427.286 192.807 427.575 193.507 428.094 194.023C428.608 194.539 429.308 194.829 430.039 194.829Z" fill="#3ECC5F"/>
<path d="M430.039 194.378C430.495 194.378 430.938 194.243 431.317 193.99C431.696 193.737 431.994 193.378 432.166 192.957C432.342 192.538 432.387 192.075 432.297 191.629C432.206 191.182 431.99 190.773 431.669 190.451C431.344 190.129 430.933 189.91 430.486 189.821C430.039 189.733 429.579 189.778 429.159 189.952C428.739 190.126 428.378 190.421 428.125 190.799C427.873 191.178 427.737 191.622 427.737 192.077C427.737 192.687 427.981 193.273 428.41 193.704C428.843 194.135 429.43 194.378 430.039 194.378Z" fill="white"/>
<path d="M431.574 192.303L429.994 192.213L428.866 191.401C428.821 191.356 428.775 191.266 428.821 191.221C428.866 191.175 428.956 191.13 429.001 191.175L430.085 191.942L431.574 192.032C431.592 192.03 431.61 192.032 431.628 192.038C431.647 192.044 431.66 192.054 431.674 192.067C431.687 192.08 431.696 192.096 431.705 192.114C431.71 192.131 431.71 192.149 431.71 192.168C431.71 192.203 431.692 192.236 431.669 192.261C431.642 192.286 431.61 192.301 431.574 192.303Z" fill="#001B34"/>
<path opacity="0.3" d="M395.234 162.219L394.963 154.416C394.986 154.296 394.963 154.172 394.895 154.071C394.828 153.969 394.724 153.899 394.602 153.875C394.485 153.851 394.358 153.876 394.259 153.943C394.155 154.011 394.083 154.116 394.06 154.236L385.934 170.698L389.591 172.953L395.234 162.219Z" fill="black"/>
<path opacity="0.2" d="M446.878 236.593L448.007 378.486H453.198L452.521 236.593H446.878Z" fill="black"/>
<path d="M453.153 374.517L453.198 378.486H439.068L438.707 374.517H453.153Z" fill="#3ECC5F"/>
<path opacity="0.2" d="M448.007 374.517V378.486H453.198L453.153 374.517H448.007Z" fill="black"/>
<path d="M468.276 344.84L471.436 347.943L460.263 359.105L456.832 356.255L468.276 344.84Z" fill="#3ECC5F"/>
<path opacity="0.2" d="M464.213 348.903L467.373 352.06L471.436 347.951L468.276 344.848L464.213 348.903Z" fill="black"/>
<path d="M200.666 243.268H195.79V243.765C190.188 244.888 185.149 247.914 181.528 252.329C177.907 256.745 175.928 262.276 175.928 267.985C175.928 273.693 177.907 279.225 181.528 283.64C185.149 288.056 190.188 291.082 195.79 292.205V292.701H200.666C207.227 292.701 213.519 290.097 218.159 285.462C222.798 280.827 225.404 274.54 225.404 267.985C225.404 261.43 222.798 255.143 218.159 250.508C213.519 245.873 207.227 243.268 200.666 243.268Z" fill="#3ECC5F"/>
<path d="M195.836 292.656C200.72 292.656 205.494 291.209 209.555 288.498C213.616 285.787 216.781 281.934 218.65 277.426C220.519 272.918 221.008 267.957 220.055 263.172C219.102 258.386 216.75 253.99 213.297 250.54C209.844 247.089 205.444 244.74 200.653 243.788C195.863 242.836 190.898 243.324 186.386 245.192C181.874 247.059 178.018 250.221 175.304 254.278C172.591 258.336 171.143 263.105 171.143 267.985C171.143 274.528 173.744 280.803 178.375 285.43C183.006 290.057 189.287 292.656 195.836 292.656Z" fill="#3ECC5F"/>
<path opacity="0.4" d="M195.836 292.656C200.72 292.656 205.494 291.209 209.555 288.498C213.616 285.787 216.781 281.934 218.65 277.426C220.519 272.918 221.008 267.957 220.055 263.172C219.102 258.386 216.75 253.99 213.297 250.54C209.844 247.089 205.444 244.74 200.653 243.788C195.863 242.836 190.898 243.324 186.386 245.192C181.874 247.059 178.018 250.221 175.304 254.278C172.591 258.336 171.143 263.105 171.143 267.985C171.143 274.528 173.744 280.803 178.375 285.43C183.006 290.057 189.287 292.656 195.836 292.656Z" fill="white"/>
<path d="M191.231 278.313L182.879 269.969C182.772 269.863 182.687 269.737 182.629 269.597C182.571 269.458 182.541 269.308 182.541 269.157C182.541 269.007 182.571 268.857 182.629 268.718C182.687 268.579 182.772 268.452 182.879 268.346L185.046 266.181C185.153 266.074 185.279 265.989 185.418 265.931C185.558 265.873 185.707 265.843 185.859 265.843C186.009 265.843 186.159 265.873 186.298 265.931C186.438 265.989 186.565 266.074 186.671 266.181L192.043 271.548L204.954 258.649C205.06 258.541 205.187 258.456 205.326 258.398C205.466 258.34 205.616 258.309 205.767 258.309C205.918 258.309 206.067 258.34 206.207 258.398C206.346 258.456 206.473 258.541 206.579 258.649L208.746 260.813C208.853 260.92 208.938 261.047 208.996 261.186C209.054 261.325 209.084 261.475 209.084 261.625C209.084 261.776 209.054 261.926 208.996 262.065C208.938 262.204 208.853 262.331 208.746 262.437L192.856 278.313C192.631 278.509 192.342 278.617 192.043 278.617C191.744 278.617 191.456 278.509 191.231 278.313Z" fill="white"/>
<path d="M292.758 366.804H209.92C209.082 366.804 208.278 366.472 207.685 365.88C207.093 365.288 206.76 364.485 206.76 363.647V342.043C206.76 341.206 207.093 340.403 207.685 339.811C208.278 339.219 209.082 338.886 209.92 338.886H292.803C293.641 338.886 294.445 339.219 295.038 339.811C295.63 340.403 295.963 341.206 295.963 342.043V363.647C295.95 364.488 295.607 365.291 295.007 365.881C294.408 366.472 293.6 366.804 292.758 366.804Z" fill="#3ECC5F"/>
<path opacity="0.5" d="M292.758 366.804H209.92C209.082 366.804 208.278 366.472 207.685 365.88C207.093 365.288 206.76 364.485 206.76 363.647V342.043C206.76 341.206 207.093 340.403 207.685 339.811C208.278 339.219 209.082 338.886 209.92 338.886H292.803C293.641 338.886 294.445 339.219 295.038 339.811C295.63 340.403 295.963 341.206 295.963 342.043V363.647C295.95 364.488 295.607 365.291 295.007 365.881C294.408 366.472 293.6 366.804 292.758 366.804Z" fill="white"/>
<path d="M289.643 366.804H206.76C205.922 366.804 205.118 366.472 204.525 365.88C203.933 365.288 203.6 364.485 203.6 363.647V342.043C203.6 341.206 203.933 340.403 204.525 339.811C205.118 339.219 205.922 338.886 206.76 338.886H289.643C290.482 338.886 291.285 339.219 291.878 339.811C292.471 340.403 292.803 341.206 292.803 342.043V363.647C292.803 364.485 292.471 365.288 291.878 365.88C291.285 366.472 290.482 366.804 289.643 366.804Z" fill="white"/>
<path d="M325.308 136.285L317.408 128.392L309.508 136.285C309.382 136.429 309.214 136.53 309.028 136.572C308.841 136.615 308.646 136.598 308.471 136.522C308.295 136.447 308.148 136.318 308.05 136.154C307.952 135.99 307.91 135.799 307.928 135.609V114.501H326.933V135.609C326.931 135.796 326.875 135.979 326.77 136.135C326.665 136.29 326.517 136.411 326.344 136.483C326.171 136.555 325.98 136.575 325.796 136.54C325.612 136.505 325.442 136.416 325.308 136.285Z" fill="#3F4249"/>
<path d="M349.232 97.9029L331.671 125.506L360.564 129.069L349.232 97.9029Z" fill="#B2B6BB"/>
<path d="M313.841 350.613L304.226 349.395L331.673 125.506L341.289 126.679L313.841 350.613Z" fill="#3ECC5F"/>
<path d="M333.071 352.958L323.456 351.785L350.858 127.896L360.564 129.069L333.071 352.958Z" fill="#3ECC5F"/>
<path d="M323.455 351.785L313.84 350.613L341.287 126.678L350.857 127.896L323.455 351.785Z" fill="#3ECC5F"/>
<path opacity="0.3" d="M323.455 351.785L313.84 350.613L341.287 126.678L350.857 127.896L323.455 351.785Z" fill="black"/>
<path d="M344.583 105.209L349.233 97.9029L352.212 106.157L344.583 105.209Z" fill="#21252B"/>
<path d="M322.057 180.756C322.632 180.756 323.183 180.984 323.589 181.39C323.996 181.796 324.224 182.347 324.224 182.921V185.852L331.357 186.574C331.625 186.605 331.873 186.731 332.056 186.93C332.239 187.129 332.343 187.387 332.35 187.657C332.351 187.929 332.249 188.192 332.065 188.392C331.881 188.592 331.628 188.717 331.357 188.739L324.495 189.19C324.441 189.197 324.393 189.224 324.359 189.266C324.325 189.309 324.309 189.362 324.314 189.416C324.323 189.466 324.344 189.512 324.376 189.552C324.407 189.591 324.448 189.622 324.495 189.641L331.266 190.092C331.56 190.123 331.831 190.263 332.026 190.484C332.222 190.705 332.327 190.991 332.321 191.286C332.316 191.581 332.199 191.862 331.996 192.076C331.792 192.289 331.516 192.418 331.221 192.437L324.404 192.663L331.041 192.437C331.369 192.441 331.682 192.57 331.919 192.797C332.156 193.024 332.296 193.332 332.314 193.66C332.331 193.987 332.223 194.308 332.012 194.559C331.8 194.809 331.502 194.97 331.176 195.008L324.404 195.64L329.46 195.189C329.61 195.177 329.76 195.197 329.902 195.246C330.043 195.296 330.173 195.374 330.283 195.475C330.393 195.577 330.481 195.7 330.541 195.837C330.602 195.973 330.633 196.121 330.634 196.271C330.633 196.528 330.543 196.777 330.378 196.975C330.213 197.172 329.985 197.306 329.731 197.354L325.443 198.211C324.892 198.318 324.322 198.279 323.791 198.096C323.261 197.914 322.787 197.596 322.418 197.173C320.956 195.499 320.038 193.42 319.789 191.212C319.538 189.005 319.968 186.773 321.019 184.815L321.786 181.027C321.785 180.991 321.791 180.955 321.804 180.921C321.817 180.888 321.837 180.858 321.863 180.833C321.888 180.807 321.918 180.787 321.952 180.774C321.985 180.761 322.021 180.755 322.057 180.756Z" fill="#FC9D9D"/>
<g opacity="0.15">
<path opacity="0.15" d="M330.558 192.05L324.283 192.258L324.305 192.889L330.576 192.681L330.558 192.05Z" fill="black"/>
</g>
<g opacity="0.15">
<path opacity="0.15" d="M329.807 194.815L324.769 195.235L324.819 195.862L329.861 195.442L329.807 194.815Z" fill="black"/>
</g>
<path opacity="0.2" d="M324.223 185.808V182.876L322.507 184.68C322.426 184.761 322.371 184.864 322.349 184.977C322.326 185.089 322.338 185.205 322.381 185.311C322.424 185.417 322.498 185.508 322.593 185.572C322.688 185.636 322.799 185.671 322.913 185.672L324.223 185.808Z" fill="black"/>
<path d="M323.095 399.008L302.69 396.482C301.572 396.342 300.556 395.765 299.862 394.876C299.168 393.988 298.855 392.865 298.989 391.746L304.225 349.394L333.072 352.958L327.835 395.309C327.767 395.864 327.59 396.396 327.315 396.883C327.04 397.37 326.672 397.794 326.232 398.137C325.792 398.485 325.288 398.737 324.75 398.886C324.212 399.035 323.65 399.075 323.095 399.008Z" fill="#3F4249"/>
<path opacity="0.4" d="M324.224 351.875L318.987 394.227C318.846 395.345 318.269 396.36 317.381 397.05C316.492 397.745 315.366 398.061 314.247 397.925L323.095 399.008C324.213 399.139 325.337 398.823 326.224 398.128C327.111 397.438 327.69 396.423 327.835 395.309L333.072 352.958L324.224 351.875Z" fill="black"/>
<path d="M333.077 352.994L304.221 349.435L303.282 357.044L332.138 360.602L333.077 352.994Z" fill="#B2B6BB"/>
<path d="M14.4939 400H517.798C517.843 400 517.893 399.982 517.925 399.946C517.961 399.914 517.979 399.869 517.979 399.82C517.979 399.77 517.961 399.725 517.925 399.693C517.893 399.657 517.843 399.639 517.798 399.639H14.4939C14.4461 399.639 14.4005 399.657 14.3666 399.693C14.3328 399.725 14.3134 399.77 14.3134 399.82C14.3134 399.869 14.3328 399.914 14.3666 399.946C14.4005 399.982 14.4461 400 14.4939 400Z" fill="#B1B5BA"/>
<path d="M209.017 152.837L204.458 151.169L204.277 151.62C198.636 150.756 192.868 151.869 187.955 154.772C183.042 157.674 179.286 162.185 177.324 167.54C175.362 172.894 175.315 178.763 177.192 184.148C179.069 189.533 182.753 194.104 187.619 197.083L187.439 197.534L191.998 199.203C198.135 201.384 204.886 201.057 210.782 198.293C216.679 195.529 221.245 190.55 223.488 184.44C225.731 178.33 225.469 171.583 222.759 165.665C220.049 159.747 215.111 155.137 209.017 152.837Z" fill="#3ECC5F"/>
<path d="M195.972 199.023C200.856 199.023 205.63 197.576 209.691 194.865C213.752 192.154 216.917 188.301 218.786 183.793C220.655 179.285 221.144 174.325 220.191 169.539C219.238 164.753 216.886 160.357 213.433 156.907C209.979 153.457 205.579 151.107 200.789 150.155C195.999 149.203 191.034 149.691 186.522 151.559C182.01 153.426 178.154 156.588 175.44 160.646C172.727 164.703 171.279 169.473 171.279 174.352C171.279 180.895 173.88 187.17 178.511 191.797C183.142 196.424 189.423 199.023 195.972 199.023Z" fill="#3ECC5F"/>
<path opacity="0.4" d="M198.423 198.901C203.283 198.417 207.89 196.503 211.661 193.403C215.432 190.303 218.199 186.155 219.611 181.484C221.023 176.812 221.017 171.828 219.593 167.161C218.17 162.493 215.392 158.352 211.613 155.261C207.834 152.17 203.223 150.269 198.361 149.796C193.5 149.324 188.608 150.303 184.304 152.609C180 154.914 176.476 158.443 174.18 162.749C171.883 167.055 170.916 171.945 171.401 176.801C171.722 180.025 172.677 183.154 174.209 186.009C175.741 188.864 177.821 191.391 180.331 193.443C182.84 195.495 185.729 197.033 188.834 197.97C191.938 198.906 195.196 199.223 198.423 198.901Z" fill="white"/>
<path d="M189.588 184.063L182.618 174.56C182.442 174.313 182.368 174.008 182.411 173.708C182.453 173.409 182.61 173.137 182.848 172.95L185.336 171.118C185.582 170.942 185.887 170.866 186.187 170.908C186.487 170.951 186.76 171.106 186.947 171.344L191.435 177.437L206.174 166.671C206.421 166.494 206.726 166.419 207.026 166.462C207.327 166.504 207.599 166.662 207.786 166.901L209.618 169.386C209.796 169.632 209.871 169.936 209.828 170.236C209.785 170.535 209.628 170.806 209.388 170.992L191.245 184.284C191.125 184.384 190.984 184.458 190.833 184.501C190.682 184.544 190.524 184.556 190.368 184.535C190.213 184.515 190.063 184.462 189.929 184.381C189.795 184.299 189.679 184.191 189.588 184.063Z" fill="white"/>
<path d="M75.1671 105.751C75.1671 105.751 67.7636 108.637 69.2533 118.515C69.8402 122.213 66.2287 122.664 64.2424 124.243C59.096 128.302 61.5338 137.368 64.2424 137.548L97.513 155.364C97.513 155.364 110.514 137.548 106.135 128.888C104.194 125.055 104.691 124.559 106 120.86C108.031 115.222 104.194 112.516 104.194 112.516L102.163 112.065L94.7141 95.3771L80.494 105.074L78.3271 105.164L75.1671 105.751Z" fill="#21252B"/>
<path d="M72.7293 375.915C73.1577 377.254 73.3265 378.663 73.2259 380.065L73.271 391.746C73.2182 393.78 72.6431 395.769 71.6007 397.519L71.375 397.925C71.0825 398.43 70.6617 398.854 70.1543 399.148C69.6474 399.441 69.0718 399.594 68.4858 399.594H65.1452C64.399 399.599 63.6731 399.35 63.0835 398.89C62.4944 398.435 62.0759 397.79 61.8949 397.068C61.4516 395.345 61.3897 393.541 61.7143 391.791L64.5583 379.253C64.7439 378.082 65.0933 376.944 65.5966 375.87H72.7293V375.915Z" fill="#3ECC5F"/>
<path d="M118.143 348.448L120.22 370.773C120.355 373.389 121.032 375.013 121.8 376.096L129.926 392.603L127.668 395.715L118.82 391.295L110.965 377.088C110.965 374.652 110.74 373.209 110.288 369.962L106.406 345.877L118.143 348.448Z" fill="#956363"/>
<path opacity="0.15" d="M120.447 378.261C119.544 376.953 118.415 373.795 118.144 372.352L115.436 364.053C115.392 363.77 115.258 363.508 115.055 363.306C114.853 363.103 114.591 362.97 114.307 362.926L108.935 362.204L108.845 361.031H119.318L120.221 370.774C120.402 372.442 120.808 374.652 121.801 376.096L129.927 392.603L128.527 394.903L120.447 378.261Z" fill="black"/>
<path d="M134.576 395.445L129.926 392.648C128.274 392.914 126.581 392.747 125.014 392.161C123.447 391.579 122.059 390.596 120.988 389.311L110.921 377.133C109.12 381.016 108.477 385.342 109.07 389.581L110.514 399.684H111.688L112.004 389.311C112.009 389.144 112.065 388.986 112.163 388.851C112.262 388.72 112.399 388.621 112.555 388.566C112.712 388.512 112.881 388.508 113.041 388.548C113.2 388.594 113.342 388.688 113.449 388.815L119.588 396.302C120.456 397.352 121.545 398.2 122.777 398.787C124.01 399.369 125.356 399.675 126.721 399.684H136.291C136.464 399.689 136.634 399.648 136.787 399.567C136.94 399.486 137.07 399.369 137.164 399.224C137.259 399.08 137.316 398.913 137.329 398.742C137.342 398.57 137.311 398.399 137.239 398.241C136.756 396.992 135.799 395.99 134.576 395.445Z" fill="#3ECC5F"/>
<path d="M73.2263 370.638C72.722 374.843 72.5108 379.078 72.5943 383.312L72.6846 388.363C72.6448 389.428 72.1952 390.434 71.4296 391.173C70.6639 391.913 69.6414 392.328 68.5765 392.333H67.8542C67.2642 392.337 66.6805 392.211 66.1433 391.967C65.6056 391.724 65.1276 391.367 64.7416 390.921C64.3556 390.474 64.0707 389.951 63.9064 389.387C63.7426 388.819 63.7033 388.224 63.7913 387.642L64.965 381.643C65.5596 378.6 65.7722 375.493 65.597 372.397L64.4685 352.011L74.9869 352.191L73.2263 370.638Z" fill="#956363"/>
<path d="M112.231 206.104L113.72 224.1L115.075 239.164C115.797 247.192 116.248 255.221 116.474 263.294L119.995 361.076H108.484L88.7561 232.083C88.6919 231.665 88.4784 231.283 88.1547 231.01C87.8311 230.736 87.4194 230.589 86.9955 230.595C86.5494 230.588 86.1183 230.753 85.7906 231.055C85.4628 231.357 85.2638 231.774 85.2349 232.218L74.8519 361.031L64.4238 360.941L59.2323 267.985C58.1403 248.164 59.6426 228.287 63.7015 208.855L64.2884 206.104H112.231Z" fill="#3F4249"/>
<path opacity="0.15" d="M74.0831 361.031C74.0831 361.031 72.8191 374.111 72.7288 375.87V375.915C72.5934 378.396 72.5031 380.831 72.5483 383.312L72.6386 388.363C72.6015 389.396 72.1772 390.38 71.4495 391.115C70.7222 391.85 69.7449 392.283 68.7111 392.333C70.6523 390.844 70.4717 388.409 70.5168 386.604L70.8328 364.459C70.836 364.108 70.7159 363.766 70.4933 363.494C70.2708 363.222 69.9593 363.037 69.614 362.971L64.919 362.114L64.8739 361.076L74.0831 361.031Z" fill="black"/>
<path opacity="0.2" d="M86.9053 230.549C86.4588 230.554 86.0281 230.713 85.6864 231C85.5194 231.148 85.3853 231.328 85.2918 231.53C85.1984 231.732 85.1483 231.95 85.1447 232.173L74.852 361.031H70.9245L78.5989 239.57C79.4115 231.555 81.8492 230.549 86.9053 230.549Z" fill="black"/>
<path opacity="0.2" d="M112.591 210.524L113.719 224.1L114.532 233.482C115.57 245.299 116.247 257.145 116.564 269.023L119.949 361.077H114.803L108.167 232.895L106.993 210.66H112.185L112.41 210.615L112.591 210.524Z" fill="black"/>
<path d="M113.043 140.344L127.037 168.398L158.051 167.451L157.328 175.208L126.36 181.297C124.652 181.607 122.891 181.423 121.284 180.769C119.677 180.114 118.29 179.014 117.286 177.599L106.678 162.805" fill="#3ECC5F"/>
<path d="M169.472 164.204L174.483 163.527L180.487 165.241C180.598 165.268 180.702 165.32 180.789 165.394C180.876 165.468 180.944 165.562 180.988 165.668C181.032 165.773 181.051 165.887 181.042 166.001C181.034 166.115 180.998 166.226 180.939 166.323C180.83 166.463 180.681 166.568 180.512 166.624C180.344 166.68 180.162 166.686 179.991 166.639L174.213 165.557L170.646 166.729L174.213 165.557L179.223 167C179.312 167.02 179.395 167.061 179.467 167.118C179.538 167.175 179.595 167.248 179.634 167.33C179.673 167.413 179.693 167.503 179.692 167.594C179.692 167.685 179.67 167.775 179.63 167.857C179.539 167.995 179.407 168.099 179.253 168.156C179.098 168.213 178.93 168.219 178.772 168.173L173.716 167.18L168.524 168.804L173.716 167.18L177.282 168.624C177.342 168.647 177.394 168.685 177.436 168.734C177.477 168.782 177.506 168.841 177.519 168.903C177.532 168.966 177.53 169.031 177.512 169.092C177.495 169.153 177.462 169.209 177.418 169.255C177.345 169.336 177.253 169.395 177.15 169.427C177.046 169.459 176.936 169.462 176.831 169.436L172.678 168.398L167.757 169.616L169.472 164.204Z" fill="#956363"/>
<path opacity="0.15" d="M169.472 164.204L174.483 163.527L180.487 165.241C180.598 165.268 180.702 165.32 180.789 165.394C180.876 165.468 180.944 165.562 180.988 165.668C181.032 165.773 181.051 165.887 181.042 166.001C181.034 166.115 180.998 166.226 180.939 166.323C180.83 166.463 180.681 166.568 180.512 166.624C180.344 166.68 180.162 166.686 179.991 166.639L174.213 165.557L170.646 166.729L174.213 165.557L179.223 167C179.312 167.02 179.395 167.061 179.467 167.118C179.538 167.175 179.595 167.248 179.634 167.33C179.673 167.413 179.693 167.503 179.692 167.594C179.692 167.685 179.67 167.775 179.63 167.857C179.539 167.995 179.407 168.099 179.253 168.156C179.098 168.213 178.93 168.219 178.772 168.173L173.716 167.18L168.524 168.804L173.716 167.18L177.282 168.624C177.342 168.647 177.394 168.685 177.436 168.734C177.477 168.782 177.506 168.841 177.519 168.903C177.532 168.966 177.53 169.031 177.512 169.092C177.495 169.153 177.462 169.209 177.418 169.255C177.345 169.336 177.253 169.395 177.15 169.427C177.046 169.459 176.936 169.462 176.831 169.436L172.678 168.398L167.757 169.616L169.472 164.204Z" fill="black"/>
<path d="M169.788 162.625L162.385 166.91C161.966 167.173 161.481 167.314 160.986 167.316L158.096 167.451L157.374 175.209L159.767 174.713C160.168 174.622 160.584 174.622 160.986 174.713L161.617 174.848C164.08 175.514 166.705 175.19 168.931 173.946H168.976C169.281 173.774 169.62 173.666 169.969 173.63C171.233 173.495 174.393 173.179 174.393 173.179C174.435 173.18 174.477 173.173 174.515 173.157C174.554 173.142 174.589 173.119 174.619 173.089C174.649 173.06 174.672 173.024 174.687 172.986C174.703 172.947 174.71 172.905 174.709 172.863C174.682 172.442 174.501 172.045 174.202 171.746C173.903 171.447 173.506 171.267 173.084 171.24L170.872 170.924C169.698 170.744 169.021 169.661 169.563 168.759L171.775 164.88C171.928 164.633 172.17 164.456 172.452 164.384L180.307 162.354C180.462 162.33 180.602 162.245 180.695 162.119C180.788 161.992 180.827 161.833 180.803 161.678C180.755 161.484 180.635 161.316 180.468 161.207C180.3 161.098 180.097 161.057 179.901 161.092C177.914 161.362 171.82 162.219 170.375 162.445C170.165 162.434 169.957 162.498 169.788 162.625Z" fill="#956363"/>
<path opacity="0.15" d="M127.038 168.353L124.555 168.443C124.27 168.45 123.989 168.366 123.754 168.204C123.519 168.042 123.341 167.81 123.246 167.541L119.138 152.477L127.038 168.353Z" fill="black"/>
<path d="M63.2496 135.293L76.9732 132.497L99.3191 132.722L107.535 134.932C112.636 136.556 115.21 141.021 115.164 146.389L114.397 150.267L116.564 157.619C117.783 162.355 116.203 165.106 112.862 168.94C111.824 170.158 111.282 170.654 110.876 172.954C110.876 172.954 108.89 180.486 108.528 183.598C107.687 190.691 107.385 197.838 107.626 204.977L65.4165 204.887C63.4753 204.887 62.6176 202.812 63.5656 201.098C63.5656 201.098 66.4548 195.37 66.9514 190.544C68.712 174.803 64.1976 156.086 64.1976 156.086L55.3495 146.298C55.0787 141.202 58.4193 136.421 63.2496 135.293Z" fill="#3ECC5F"/>
<path d="M92.0958 189.461L97.1519 188.469L98.2804 189.596L96.9713 191.175L92.0958 189.461Z" fill="#956363"/>
<path opacity="0.15" d="M159.269 173.224C159.854 173.096 160.462 173.127 161.03 173.314C162.52 173.81 165.86 174.667 169.02 173.855C168.975 173.855 168.93 173.9 168.885 173.9H168.84C167.746 174.539 166.533 174.948 165.276 175.103C164.019 175.258 162.743 175.156 161.526 174.802L160.894 174.667C160.493 174.577 160.077 174.577 159.675 174.667L147.848 177.012L159.089 174.802L159.269 173.224Z" fill="black"/>
<path opacity="0.15" d="M92.9982 198.12L85.9559 196.632L65.4608 194.918L65.2351 195.008C64.2419 197.85 63.8356 198.842 63.0682 200.691L66.0928 200.781C70.7678 200.873 75.4433 200.646 80.0872 200.105C84.3948 199.609 88.7475 199.654 93.0434 200.24V198.12H92.9982Z" fill="black"/>
<path d="M107.671 209.757L107.22 205.156L64.6496 205.066L63.4758 209.757H107.671Z" fill="#21252B"/>
<path opacity="0.6" d="M88.1241 189.371L86.3635 188.875L83.3389 196.362L85.3703 196.543L88.1241 189.371Z" fill="black"/>
<path opacity="0.6" d="M78.417 136.6L72.9998 133.308L76.1598 132.677L98.5058 132.902L100.673 133.488L95.3006 136.691C92.7459 138.215 89.8224 139.013 86.8466 138.997C83.8707 138.981 80.9558 138.152 78.417 136.6Z" fill="black"/>
<path d="M80.0886 115.358L78.96 129.836C78.9424 130.425 78.7356 130.994 78.3695 131.457C78.0038 131.92 77.4987 132.253 76.9285 132.407L75.2131 132.858L79.1406 135.293C81.4117 136.707 84.0296 137.468 86.7057 137.492C89.3818 137.516 92.0123 136.802 94.3087 135.429L98.5522 132.903L96.3853 132.317C95.8553 132.173 95.3813 131.871 95.0265 131.453C94.6721 131.034 94.4532 130.517 94.399 129.971L93.6767 113.554L80.0886 115.358Z" fill="#956363"/>
<path d="M89.343 126.589L88.6207 126.498C86.1753 126.306 83.905 125.154 82.3065 123.295C80.708 121.436 79.9107 119.02 80.0886 116.576L81.0818 103.631C81.1418 102.818 81.5228 102.062 82.1408 101.529C82.7588 100.996 83.5633 100.73 84.3772 100.79L96.4756 101.737C97.5338 101.819 98.5166 102.315 99.2095 103.118C99.9029 103.92 100.251 104.964 100.177 106.022L99.2294 118.064C99.1427 119.273 98.8177 120.453 98.2732 121.536C97.7293 122.62 96.9763 123.585 96.0576 124.377C95.1389 125.169 94.0731 125.772 92.9211 126.152C91.769 126.531 90.5528 126.679 89.343 126.589Z" fill="#956363"/>
<path d="M90.0648 113.599C90.2612 113.599 90.453 113.54 90.6165 113.431C90.7799 113.322 90.9072 113.167 90.9826 112.986C91.0575 112.805 91.0774 112.605 91.039 112.413C91.0006 112.22 90.9058 112.043 90.7672 111.904C90.6282 111.766 90.4512 111.671 90.2585 111.633C90.0657 111.595 89.8662 111.614 89.6847 111.689C89.5032 111.765 89.3484 111.892 89.2391 112.055C89.1299 112.218 89.0717 112.41 89.0717 112.606C89.0712 112.737 89.0965 112.866 89.1462 112.986C89.1958 113.107 89.2689 113.217 89.361 113.309C89.4536 113.401 89.5633 113.474 89.6843 113.524C89.8048 113.574 89.9344 113.599 90.0648 113.599Z" fill="#21252B"/>
<path d="M90.6056 113.103C90.6503 113.103 90.6941 113.089 90.7311 113.065C90.7681 113.04 90.7974 113.005 90.8141 112.964C90.8313 112.923 90.8358 112.877 90.8272 112.833C90.8187 112.789 90.797 112.749 90.7654 112.718C90.7338 112.686 90.6936 112.665 90.6498 112.656C90.606 112.647 90.5604 112.652 90.5194 112.669C90.4783 112.686 90.4431 112.715 90.4183 112.752C90.3934 112.789 90.3799 112.833 90.3799 112.877C90.3799 112.937 90.4038 112.995 90.4462 113.037C90.4887 113.079 90.546 113.103 90.6056 113.103Z" fill="white"/>
<path d="M97.7852 114.32C97.9816 114.32 98.1735 114.262 98.3369 114.153C98.5003 114.044 98.6276 113.889 98.7026 113.708C98.7779 113.526 98.7974 113.327 98.759 113.134C98.7206 112.942 98.6263 112.765 98.4872 112.626C98.3486 112.487 98.1717 112.393 97.9789 112.355C97.7861 112.316 97.5866 112.336 97.4051 112.411C97.2236 112.486 97.0684 112.613 96.9591 112.776C96.8503 112.94 96.7921 113.131 96.7921 113.328C96.7912 113.458 96.8165 113.588 96.8661 113.708C96.9158 113.829 96.9889 113.939 97.0815 114.031C97.174 114.123 97.2837 114.196 97.4042 114.246C97.5252 114.295 97.6543 114.321 97.7852 114.32Z" fill="#21252B"/>
<path d="M98.2362 113.824C98.2809 113.824 98.3242 113.811 98.3617 113.786C98.3987 113.761 98.4276 113.726 98.4447 113.685C98.4619 113.644 98.4659 113.599 98.4574 113.555C98.4488 113.511 98.4271 113.471 98.3955 113.439C98.3639 113.408 98.3237 113.386 98.28 113.378C98.2362 113.369 98.191 113.374 98.1495 113.39C98.1084 113.407 98.0732 113.436 98.0484 113.474C98.0235 113.511 98.0104 113.554 98.0104 113.599C98.0104 113.659 98.0339 113.716 98.0763 113.758C98.1188 113.801 98.1761 113.824 98.2362 113.824Z" fill="white"/>
<g opacity="0.3">
<path opacity="0.3" d="M93.4953 118.695L92.141 118.65C91.9604 118.65 91.8701 118.515 91.8701 118.334C91.8701 118.154 92.0055 118.064 92.1861 118.064L93.5404 118.109C93.6208 118.112 93.7007 118.1 93.7761 118.073C93.8514 118.045 93.9205 118.003 93.9797 117.948C94.0383 117.894 94.0857 117.828 94.1187 117.755C94.1521 117.682 94.1702 117.603 94.1724 117.522C94.1796 117.442 94.1693 117.361 94.1431 117.283C94.1164 117.207 94.0745 117.136 94.0189 117.077C93.9639 117.018 93.8966 116.97 93.8221 116.938C93.7472 116.906 93.6668 116.89 93.5856 116.891C93.405 116.891 93.3147 116.756 93.3147 116.575C93.3147 116.395 93.4501 116.305 93.6307 116.305C93.7887 116.311 93.944 116.349 94.0871 116.417C94.2297 116.484 94.358 116.579 94.4631 116.697C94.5683 116.815 94.6491 116.953 94.6997 117.103C94.7507 117.252 94.771 117.41 94.7593 117.568C94.7308 117.881 94.5846 118.171 94.3498 118.38C94.1151 118.59 93.8099 118.702 93.4953 118.695Z" fill="black"/>
</g>
<path d="M104.241 112.516C102.886 111.343 103.654 109.449 103.654 109.449V109.494C106.137 99.1654 99.5458 92.5804 93.5869 91.3626C90.2011 90.6861 81.1273 91.092 78.2833 101.42C77.877 102.909 77.7415 104.533 75.1232 105.75C75.1232 105.75 76.7033 111.163 77.1095 113.147C77.2901 114.004 79.1861 110.802 79.9536 110.486C80.0439 110.441 80.5856 111.433 80.9467 112.065C80.9928 112.157 81.0636 112.234 81.1512 112.288C81.2388 112.343 81.3399 112.371 81.4433 112.371C81.5462 112.371 81.6473 112.343 81.7349 112.288C81.8225 112.234 81.8934 112.157 81.9399 112.065L82.0302 111.929C82.668 110.485 83.0644 108.946 83.2039 107.374C87.5828 106.337 87.5828 101.917 87.5828 101.917C91.4651 110.937 100.088 108.682 100.088 108.682L99.6361 113.508C100.364 112.914 101.016 112.232 101.577 111.478L102.977 112.741L104.241 112.516Z" fill="#21252B"/>
<path d="M80.7201 117.161C80.7201 117.161 76.2961 117.342 75.5287 112.967C74.7613 108.592 80.1789 107.96 80.8109 112.38L81.2167 117.206L80.7201 117.161Z" fill="#956363"/>
<path opacity="0.3" d="M76.9728 110.712C77.1655 110.571 77.3849 110.47 77.6174 110.416C77.8504 110.362 78.0914 110.355 78.3271 110.396C78.5546 110.463 78.765 110.579 78.9442 110.734C79.1234 110.89 79.267 111.082 79.3654 111.298C79.6561 111.823 79.8109 112.412 79.8168 113.012V113.508C79.8168 113.869 79.2299 113.959 79.2299 113.553V113.057C79.2223 112.554 79.0986 112.061 78.8688 111.614C78.806 111.467 78.7135 111.335 78.597 111.226C78.4806 111.118 78.3424 111.035 78.1916 110.982C77.8725 110.936 77.5483 111.017 77.2888 111.208C77.2558 111.228 77.2197 111.243 77.1813 111.25C77.1434 111.256 77.1046 111.256 77.0667 111.247C77.0288 111.239 76.9931 111.223 76.9615 111.201C76.9299 111.178 76.9028 111.15 76.8825 111.117C76.7922 110.937 76.8373 110.757 76.9728 110.712Z" fill="black"/>
<path d="M98.4168 110.441C97.8159 110.42 97.2178 110.53 96.6643 110.763C96.1104 110.998 95.6147 111.349 95.2116 111.794C94.441 111.416 93.5621 111.32 92.7287 111.523C92.3206 110.637 91.6015 109.93 90.7067 109.538C89.812 109.146 88.8044 109.096 87.8749 109.398C86.9458 109.699 86.1599 110.331 85.666 111.173C85.1726 112.016 85.0056 113.01 85.1974 113.967C85.3888 114.924 85.9256 115.777 86.7057 116.365C87.4853 116.953 88.4541 117.234 89.4278 117.155C90.4016 117.076 91.3126 116.643 91.9875 115.938C92.6628 115.232 93.0546 114.303 93.0894 113.328C93.0962 112.87 93.0357 112.414 92.9088 111.974C93.5774 111.819 94.2789 111.898 94.8951 112.2C94.5471 112.715 94.3227 113.304 94.2401 113.919C94.1575 114.535 94.2189 115.162 94.4193 115.75C94.6198 116.339 94.9538 116.873 95.3953 117.31C95.8373 117.748 96.374 118.077 96.9645 118.273C97.555 118.468 98.1829 118.524 98.7987 118.437C99.4144 118.349 100.002 118.12 100.514 117.768C101.026 117.416 101.45 116.949 101.752 116.406C102.054 115.862 102.226 115.257 102.254 114.636C102.281 114.108 102.202 113.58 102.023 113.083C101.844 112.585 101.568 112.128 101.212 111.738C100.855 111.348 100.424 111.033 99.944 110.81C99.4641 110.587 98.9449 110.462 98.4168 110.441ZM88.9367 116.71C88.2442 116.68 87.5769 116.444 87.0185 116.034C86.4601 115.624 86.0362 115.057 85.8001 114.406C85.564 113.756 85.5265 113.049 85.6922 112.377C85.8579 111.705 86.219 111.097 86.7305 110.63C87.2424 110.163 87.8812 109.858 88.566 109.754C89.2509 109.65 89.9515 109.751 90.579 110.045C91.2069 110.338 91.7328 110.811 92.0913 111.403C92.4497 111.996 92.6244 112.681 92.5928 113.373C92.5739 113.832 92.4642 114.284 92.2696 114.7C92.075 115.118 91.8001 115.492 91.4602 115.802C91.1202 116.112 90.7221 116.353 90.2891 116.508C89.8558 116.664 89.3962 116.733 88.9367 116.71ZM98.1003 117.973C97.4083 117.942 96.741 117.707 96.1826 117.297C95.6242 116.887 95.2003 116.32 94.9642 115.669C94.7281 115.018 94.6906 114.312 94.8563 113.64C95.0215 112.968 95.3831 112.36 95.8946 111.893C96.4065 111.426 97.0453 111.121 97.7301 111.017C98.415 110.913 99.1156 111.014 99.7435 111.307C100.371 111.601 100.897 112.074 101.255 112.666C101.614 113.259 101.789 113.944 101.757 114.636C101.738 115.095 101.628 115.547 101.434 115.963C101.239 116.381 100.964 116.755 100.624 117.065C100.284 117.375 99.8862 117.615 99.4533 117.771C99.0199 117.927 98.5603 117.996 98.1003 117.973Z" fill="white"/>
<path d="M79.5925 116.44C79.7618 116.44 79.9279 116.39 80.0687 116.296C80.21 116.201 80.3197 116.068 80.3847 115.911C80.4497 115.755 80.4664 115.582 80.4335 115.416C80.4005 115.25 80.3188 115.097 80.1987 114.977C80.0786 114.857 79.9261 114.776 79.7595 114.743C79.5934 114.71 79.4209 114.727 79.2638 114.792C79.1072 114.857 78.9735 114.966 78.8792 115.107C78.7849 115.248 78.7347 115.414 78.7347 115.583C78.7347 115.81 78.825 116.029 78.9857 116.189C79.1464 116.35 79.3649 116.44 79.5925 116.44Z" fill="#3ECC5F"/>
<path opacity="0.15" d="M79.862 116.349C79.7365 116.347 79.6128 116.319 79.4986 116.266C79.3844 116.215 79.2819 116.14 79.1975 116.047C79.1131 115.954 79.0485 115.845 79.0074 115.727C78.9663 115.608 78.9501 115.483 78.9591 115.357C78.9713 115.178 79.0336 115.006 79.1397 114.861C79.0164 114.937 78.914 115.043 78.8431 115.17C78.7722 115.296 78.7343 115.438 78.7334 115.583C78.7289 115.699 78.7474 115.814 78.788 115.923C78.8286 116.032 78.8909 116.131 78.9713 116.215C79.0512 116.299 79.1474 116.367 79.2539 116.413C79.3604 116.459 79.4751 116.484 79.5911 116.485C79.7663 116.489 79.9392 116.442 80.0877 116.349C79.9974 116.304 79.9522 116.349 79.862 116.349Z" fill="black"/>
<path opacity="0.15" d="M79.8633 117.116L81.3079 117.251L79.4119 120.093L79.8633 117.116Z" fill="black"/>
<path opacity="0.15" d="M94.2184 125.596L94.0379 125.686C92.5025 126.285 90.8449 126.502 89.2075 126.318L88.1241 126.183C87.9887 126.138 87.8532 126.138 87.7178 126.092H87.6275C87.4113 126.053 87.1996 125.993 86.9955 125.912C86.9052 125.867 86.8149 125.867 86.7246 125.822C85.6006 125.484 84.546 124.95 83.6098 124.243C83.5556 124.201 83.4874 124.183 83.4197 124.191C83.352 124.199 83.2901 124.235 83.2486 124.288C83.2066 124.342 83.1877 124.411 83.1962 124.478C83.2048 124.546 83.2396 124.607 83.2937 124.649C84.5027 125.544 85.8872 126.174 87.3566 126.498C88.2428 127.343 89.3064 127.98 90.4702 128.362C91.6335 128.744 92.8678 128.862 94.083 128.708L94.399 128.663L94.2184 125.596Z" fill="black"/>
<path d="M94.0826 120.319C94.218 120.319 94.2632 120.499 94.218 120.589C93.9219 121.037 93.5088 121.395 93.0235 121.626C92.5383 121.857 91.9992 121.951 91.4643 121.897C90.9311 121.824 90.4292 121.604 90.0147 121.262C89.5999 120.919 89.2888 120.467 89.1168 119.958C89.0717 119.823 89.162 119.687 89.2974 119.733L94.0826 120.319Z" fill="white"/>
<path opacity="0.6" d="M159.946 167.361L158.05 167.451L157.328 175.209L159.089 174.848L159.946 167.361Z" fill="black"/>
<path opacity="0.15" d="M112.095 169.165C115.39 165.331 115.932 161.542 114.668 156.806L113.314 151.89L112.185 146.568V146.478C112.194 146.428 112.214 146.381 112.246 146.342C112.278 146.302 112.319 146.272 112.366 146.252C112.398 146.244 112.432 146.241 112.466 146.246C112.499 146.25 112.532 146.261 112.561 146.277C112.59 146.294 112.616 146.316 112.637 146.343C112.658 146.37 112.673 146.4 112.682 146.433L114.081 152.702L114.758 154.822C114.758 154.822 120.13 162.489 118.46 168.308C117.828 170.427 117.467 171.826 118.776 173.63L121.123 177.103C123.245 179.042 126.405 178.546 126.405 178.546L157.419 173.539L157.238 175.253L128.301 180.981H128.346L126.27 181.342C124.798 181.612 123.281 181.514 121.856 181.058C120.431 180.602 119.14 179.801 118.099 178.726C117.763 178.396 117.461 178.033 117.196 177.644L111.643 169.706C111.779 169.525 111.959 169.345 112.095 169.165Z" fill="black"/>
<path d="M99.0488 110.261C91.4196 110.17 88.4401 103.315 88.3949 103.225C88.3498 103.044 88.3949 102.864 88.5755 102.819C88.613 102.797 88.655 102.785 88.6983 102.783C88.7416 102.78 88.785 102.788 88.8243 102.806C88.864 102.824 88.8987 102.85 88.9263 102.884C88.9534 102.917 88.9728 102.957 88.9818 102.999C89.0269 103.044 91.871 109.539 99.0488 109.629C99.1327 109.629 99.2131 109.662 99.2722 109.722C99.3314 109.781 99.3648 109.861 99.3648 109.945C99.3648 110.029 99.3314 110.109 99.2722 110.168C99.2131 110.227 99.1327 110.261 99.0488 110.261Z" fill="#21252B"/>
<g opacity="0.3">
<path opacity="0.3" d="M88.1679 143.547C77.3321 143.574 66.5154 142.638 55.8453 140.75L56.387 139.803L57.0641 138.856C60.811 139.533 85.7753 143.817 112.681 139.578L113.674 141.562L113.358 141.652C105.024 142.94 96.6016 143.573 88.1679 143.547Z" fill="white"/>
</g>
<g opacity="0.3">
<path opacity="0.3" d="M97.0169 174.803C86.6456 174.767 76.2929 173.938 66.0485 172.322L65.8228 170.202C66.0485 170.247 89.7939 174.171 110.334 172.097L109.838 174.171C105.58 174.628 101.299 174.839 97.0169 174.803Z" fill="white"/>
</g>
<g opacity="0.3">
<path opacity="0.3" d="M96.9717 188.243C86.7684 188.227 76.5809 187.427 66.4999 185.853L66.5451 183.733C66.7708 183.778 87.0853 187.747 107.626 185.673L107.851 187.747C103.517 188.243 101.351 188.243 96.9717 188.243Z" fill="white"/>
</g>
<g opacity="0.3">
<path opacity="0.3" d="M95.8892 200.736C79.457 200.736 64.2888 198.211 64.0631 198.211L64.8757 196.046C65.1014 196.091 88.3051 200.15 108.89 198.075L109.116 200.15C104.737 200.556 100.268 200.736 95.8892 200.736Z" fill="white"/>
</g>
<path opacity="0.15" d="M67.4028 185.042L85.0087 188.469" stroke="black" stroke-width="1.18" stroke-miterlimit="10" stroke-linecap="round"/>
<path opacity="0.15" d="M92.0958 189.461L97.1519 188.469L98.2804 189.596L96.9713 191.175L92.0958 189.461Z" fill="black"/>
<path d="M55.0796 142.599L59.3682 142.915C62.7991 148.598 64.8306 153.108 64.65 159.738L64.966 162.354L56.6596 183.327L86.9057 189.1L83.3394 196.316L47.2247 193.745C43.3423 193.52 40.5886 189.325 42.0332 185.447L55.0796 142.599Z" fill="#3ECC5F"/>
<path d="M86.3175 207.097L101.847 180.306C102.026 180.017 102.297 179.798 102.616 179.683C102.936 179.568 103.285 179.565 103.607 179.674L125.502 187.071C125.698 187.131 125.877 187.235 126.028 187.375C126.178 187.514 126.294 187.686 126.368 187.877C126.442 188.068 126.472 188.274 126.454 188.478C126.437 188.682 126.374 188.879 126.269 189.056L111.643 214.448C111.476 214.728 111.223 214.945 110.921 215.067C110.619 215.189 110.287 215.209 109.973 215.125L87.1752 209.126C86.9725 209.067 86.7851 208.963 86.6276 208.823C86.47 208.683 86.3454 208.509 86.2633 208.315C86.1811 208.121 86.1437 207.91 86.1527 207.7C86.1622 207.489 86.2181 207.283 86.3175 207.097Z" fill="#3F4249"/>
<path opacity="0.8" d="M86.3175 207.097L101.847 180.306C102.026 180.017 102.297 179.798 102.616 179.683C102.936 179.568 103.285 179.565 103.607 179.674L125.502 187.071C125.698 187.131 125.877 187.235 126.028 187.375C126.178 187.514 126.294 187.686 126.368 187.877C126.442 188.068 126.472 188.274 126.454 188.478C126.437 188.682 126.374 188.879 126.269 189.056L111.643 214.448C111.476 214.728 111.223 214.945 110.921 215.067C110.619 215.189 110.287 215.209 109.973 215.125L87.1752 209.126C86.9725 209.067 86.7851 208.963 86.6276 208.823C86.47 208.683 86.3454 208.509 86.2633 208.315C86.1811 208.121 86.1437 207.91 86.1527 207.7C86.1622 207.489 86.2181 207.283 86.3175 207.097Z" fill="black"/>
<path d="M87.0854 207.322L102.615 180.531C102.793 180.243 103.065 180.023 103.385 179.908C103.704 179.794 104.054 179.791 104.375 179.9L126.27 187.297C126.466 187.357 126.646 187.46 126.796 187.6C126.946 187.74 127.062 187.911 127.136 188.103C127.21 188.294 127.239 188.499 127.222 188.703C127.205 188.907 127.142 189.105 127.037 189.281L112.411 214.674C112.244 214.953 111.991 215.17 111.689 215.292C111.388 215.414 111.055 215.435 110.74 215.35L87.9431 209.352C87.739 209.295 87.5503 209.193 87.391 209.053C87.2321 208.913 87.1066 208.739 87.024 208.544C86.9418 208.349 86.9043 208.138 86.9152 207.926C86.9255 207.715 86.9838 207.508 87.0854 207.322Z" fill="#21252B"/>
<path d="M109.702 193.385C109.841 193.265 109.944 193.108 109.999 192.933C110.055 192.758 110.062 192.571 110.018 192.393C110.656 192.162 111.349 192.131 112.005 192.303C112.998 192.663 113.223 193.52 112.501 194.287C112.091 194.671 111.589 194.942 111.044 195.076C110.499 195.211 109.927 195.203 109.386 195.054C109.142 194.99 108.923 194.851 108.761 194.657C108.599 194.463 108.502 194.223 108.483 193.971C108.944 193.918 109.373 193.711 109.702 193.385Z" fill="#3F4249"/>
<path opacity="0.4" d="M124.415 190.399C124.984 190.088 125.268 189.497 125.051 189.123C124.835 188.748 124.198 188.672 123.629 188.978C123.061 189.285 122.781 189.881 122.997 190.259C123.214 190.638 123.833 190.715 124.415 190.399Z" fill="black"/>
<path d="M124.595 190.489C125.159 190.173 125.443 189.587 125.227 189.208C125.01 188.829 124.373 188.757 123.809 189.068C123.245 189.379 122.956 189.97 123.173 190.345C123.389 190.719 124.026 190.8 124.595 190.489Z" fill="#3F4249"/>
<path opacity="0.5" d="M124.46 190.255C124.83 190.052 125.011 189.674 124.866 189.412C124.754 189.279 124.595 189.195 124.422 189.175C124.249 189.156 124.075 189.204 123.936 189.308C123.562 189.516 123.381 189.89 123.525 190.152C123.638 190.285 123.798 190.371 123.972 190.39C124.146 190.409 124.32 190.361 124.46 190.255Z" fill="black"/>
<path opacity="0.4" d="M124.646 189.777C124.675 189.719 124.69 189.654 124.689 189.588C124.688 189.523 124.671 189.459 124.641 189.401C124.609 189.344 124.565 189.295 124.511 189.258C124.456 189.221 124.394 189.198 124.329 189.19H124.465C124.826 189.19 125.052 189.461 124.916 189.777C124.831 189.945 124.702 190.089 124.544 190.192C124.385 190.295 124.202 190.354 124.013 190.363H123.878C124.046 190.343 124.207 190.278 124.342 190.175C124.477 190.072 124.582 189.934 124.646 189.777Z" fill="black"/>
<path d="M88.1232 189.371L88.7552 189.506C88.9024 189.546 89.055 189.561 89.2067 189.551L96.7005 189.416C97.4855 189.419 98.2642 189.557 99.0028 189.822L107.625 192.979C107.802 193.046 107.949 193.174 108.04 193.339C108.131 193.504 108.16 193.697 108.122 193.881C108.065 194.077 107.934 194.242 107.757 194.344C107.58 194.445 107.371 194.473 107.174 194.422L98.9125 192.258L106.767 196.542C106.863 196.59 106.947 196.656 107.015 196.737C107.083 196.818 107.133 196.913 107.163 197.014C107.193 197.116 107.201 197.223 107.187 197.328C107.174 197.433 107.138 197.534 107.083 197.625C106.986 197.804 106.829 197.944 106.639 198.018C106.449 198.092 106.238 198.097 106.045 198.031L98.0548 194.873L105.278 197.715C105.373 197.75 105.46 197.804 105.535 197.873C105.609 197.942 105.669 198.025 105.711 198.117C105.753 198.209 105.776 198.309 105.779 198.41C105.782 198.512 105.765 198.612 105.729 198.707C105.662 198.906 105.522 199.071 105.338 199.172C105.154 199.272 104.94 199.299 104.736 199.248L97.3776 197.264L103.698 198.978C103.778 198.997 103.855 199.033 103.922 199.082C103.988 199.132 104.044 199.194 104.086 199.266C104.129 199.337 104.156 199.416 104.167 199.499C104.178 199.581 104.172 199.665 104.149 199.745C104.134 199.829 104.101 199.909 104.054 199.98C104.006 200.051 103.945 200.112 103.873 200.159C103.801 200.205 103.72 200.236 103.636 200.251C103.551 200.265 103.465 200.261 103.382 200.241L86.4981 196.678L85.3243 196.587L88.1232 189.371Z" fill="#956363"/>
<path opacity="0.15" d="M105.278 197.715L98.5518 195.054" stroke="black" stroke-width="1.18" stroke-miterlimit="10" stroke-linecap="round"/>
<path opacity="0.15" d="M97.3771 197.219L103.742 198.933" stroke="black" stroke-width="1.18" stroke-miterlimit="10" stroke-linecap="round"/>
<path opacity="0.15" d="M104.195 199.699C104.18 199.784 104.147 199.864 104.1 199.935C104.052 200.006 103.991 200.067 103.919 200.113C103.847 200.159 103.766 200.191 103.682 200.205C103.597 200.219 103.511 200.216 103.428 200.196L86.5441 196.632L85.3704 196.542L85.9572 195.054L104.195 199.699Z" fill="black"/>
<path opacity="0.15" d="M54.8539 183.011L56.6596 183.372L64.1083 164.474L64.7403 162.895C64.1534 160.189 63.386 156.671 62.9345 154.506C62.907 154.398 62.8456 154.302 62.7594 154.232C62.6727 154.161 62.5662 154.12 62.4547 154.115C62.3432 154.11 62.233 154.141 62.1405 154.203C62.0479 154.265 61.978 154.356 61.9414 154.461L53.5899 180.936C53.5271 181.156 53.5109 181.386 53.5416 181.611C53.5723 181.837 53.6494 182.055 53.7682 182.25C53.8869 182.445 54.0444 182.613 54.2313 182.744C54.4182 182.875 54.63 182.966 54.8539 183.011Z" fill="black"/>
<path opacity="0.15" d="M85.0079 188.469L78.417 187.206" stroke="black" stroke-width="1.18" stroke-miterlimit="10" stroke-linecap="round"/>
<path opacity="0.15" d="M76.2961 186.8L67.4028 185.042" stroke="black" stroke-width="1.18" stroke-miterlimit="10" stroke-linecap="round"/>
<path opacity="0.15" d="M92.0958 189.461L97.1519 188.469L98.2804 189.596L96.9713 191.175L92.0958 189.461Z" fill="black"/>
<path d="M86.3175 207.097L101.847 180.306C102.026 180.017 102.297 179.798 102.616 179.683C102.936 179.568 103.285 179.565 103.607 179.674L125.502 187.071C125.698 187.131 125.877 187.235 126.028 187.375C126.178 187.514 126.294 187.686 126.368 187.877C126.442 188.068 126.472 188.274 126.454 188.478C126.437 188.682 126.374 188.879 126.269 189.056L111.643 214.448C111.476 214.728 111.223 214.945 110.921 215.067C110.619 215.189 110.287 215.209 109.973 215.125L87.1752 209.126C86.9725 209.067 86.7851 208.963 86.6276 208.823C86.47 208.683 86.3454 208.509 86.2633 208.315C86.1811 208.121 86.1437 207.91 86.1527 207.7C86.1622 207.489 86.2181 207.283 86.3175 207.097Z" fill="#3F4249"/>
<path opacity="0.8" d="M86.3175 207.097L101.847 180.306C102.026 180.017 102.297 179.798 102.616 179.683C102.936 179.568 103.285 179.565 103.607 179.674L125.502 187.071C125.698 187.131 125.877 187.235 126.028 187.375C126.178 187.514 126.294 187.686 126.368 187.877C126.442 188.068 126.472 188.274 126.454 188.478C126.437 188.682 126.374 188.879 126.269 189.056L111.643 214.448C111.476 214.728 111.223 214.945 110.921 215.067C110.619 215.189 110.287 215.209 109.973 215.125L87.1752 209.126C86.9725 209.067 86.7851 208.963 86.6276 208.823C86.47 208.683 86.3454 208.509 86.2633 208.315C86.1811 208.121 86.1437 207.91 86.1527 207.7C86.1622 207.489 86.2181 207.283 86.3175 207.097Z" fill="black"/>
<path d="M87.0854 207.322L102.615 180.531C102.793 180.243 103.065 180.023 103.385 179.908C103.704 179.794 104.054 179.791 104.375 179.9L126.27 187.297C126.466 187.357 126.646 187.46 126.796 187.6C126.946 187.74 127.062 187.911 127.136 188.103C127.21 188.294 127.239 188.499 127.222 188.703C127.205 188.907 127.142 189.105 127.037 189.281L112.411 214.674C112.244 214.953 111.991 215.17 111.689 215.292C111.388 215.414 111.055 215.435 110.74 215.35L87.9431 209.352C87.739 209.295 87.5503 209.193 87.391 209.053C87.2321 208.913 87.1066 208.739 87.024 208.544C86.9418 208.349 86.9043 208.138 86.9152 207.926C86.9255 207.715 86.9838 207.508 87.0854 207.322Z" fill="#21252B"/>
<path d="M109.702 193.385C109.841 193.265 109.944 193.108 109.999 192.933C110.055 192.758 110.062 192.571 110.018 192.393C110.656 192.162 111.349 192.131 112.005 192.303C112.998 192.663 113.223 193.52 112.501 194.287C112.091 194.671 111.589 194.942 111.044 195.076C110.499 195.211 109.927 195.203 109.386 195.054C109.142 194.99 108.923 194.851 108.761 194.657C108.599 194.463 108.502 194.223 108.483 193.971C108.944 193.918 109.373 193.711 109.702 193.385Z" fill="#3F4249"/>
<path opacity="0.4" d="M124.415 190.399C124.984 190.088 125.268 189.497 125.051 189.123C124.835 188.748 124.198 188.672 123.629 188.978C123.061 189.285 122.781 189.881 122.997 190.259C123.214 190.638 123.833 190.715 124.415 190.399Z" fill="black"/>
<path d="M124.595 190.489C125.159 190.173 125.443 189.587 125.227 189.208C125.01 188.829 124.373 188.757 123.809 189.068C123.245 189.379 122.956 189.97 123.173 190.345C123.389 190.719 124.026 190.8 124.595 190.489Z" fill="#3F4249"/>
<path opacity="0.5" d="M124.46 190.255C124.83 190.052 125.011 189.674 124.866 189.412C124.754 189.279 124.595 189.195 124.422 189.175C124.249 189.156 124.075 189.204 123.936 189.308C123.562 189.516 123.381 189.89 123.525 190.152C123.638 190.285 123.798 190.371 123.972 190.39C124.146 190.409 124.32 190.361 124.46 190.255Z" fill="black"/>
<path opacity="0.4" d="M124.646 189.777C124.675 189.719 124.69 189.654 124.689 189.588C124.688 189.523 124.671 189.459 124.641 189.401C124.609 189.344 124.565 189.295 124.511 189.258C124.456 189.221 124.394 189.198 124.329 189.19H124.465C124.826 189.19 125.052 189.461 124.916 189.777C124.831 189.945 124.702 190.089 124.544 190.192C124.385 190.295 124.202 190.354 124.013 190.363H123.878C124.046 190.343 124.207 190.278 124.342 190.175C124.477 190.072 124.582 189.934 124.646 189.777Z" fill="black"/>
<path d="M88.1232 189.371L88.7552 189.506C88.9024 189.546 89.055 189.561 89.2067 189.551L96.7005 189.416C97.4855 189.419 98.2642 189.557 99.0028 189.822L107.625 192.979C107.802 193.046 107.949 193.174 108.04 193.339C108.131 193.504 108.16 193.697 108.122 193.881C108.065 194.077 107.934 194.242 107.757 194.344C107.58 194.445 107.371 194.473 107.174 194.422L98.9125 192.258L106.767 196.542C106.863 196.59 106.947 196.656 107.015 196.737C107.083 196.818 107.133 196.913 107.163 197.014C107.193 197.116 107.201 197.223 107.187 197.328C107.174 197.433 107.138 197.534 107.083 197.625C106.986 197.804 106.829 197.944 106.639 198.018C106.449 198.092 106.238 198.097 106.045 198.031L98.0548 194.873L105.278 197.715C105.373 197.75 105.46 197.804 105.535 197.873C105.609 197.942 105.669 198.025 105.711 198.117C105.753 198.209 105.776 198.309 105.779 198.41C105.782 198.512 105.765 198.612 105.729 198.707C105.662 198.906 105.522 199.071 105.338 199.172C105.154 199.272 104.94 199.299 104.736 199.248L97.3776 197.264L103.698 198.978C103.778 198.997 103.855 199.033 103.922 199.082C103.988 199.132 104.044 199.194 104.086 199.266C104.129 199.337 104.156 199.416 104.167 199.499C104.178 199.581 104.172 199.665 104.149 199.745C104.134 199.829 104.101 199.909 104.054 199.98C104.006 200.051 103.945 200.112 103.873 200.159C103.801 200.205 103.72 200.236 103.636 200.251C103.551 200.265 103.465 200.261 103.382 200.241L86.4981 196.678L85.3243 196.587L88.1232 189.371Z" fill="#956363"/>
<path opacity="0.15" d="M105.278 197.715L98.5518 195.054" stroke="black" stroke-width="1.18" stroke-miterlimit="10" stroke-linecap="round"/>
<path opacity="0.15" d="M97.3771 197.219L103.742 198.933" stroke="black" stroke-width="1.18" stroke-miterlimit="10" stroke-linecap="round"/>
<path opacity="0.15" d="M104.195 199.699C104.18 199.784 104.147 199.864 104.1 199.935C104.052 200.006 103.991 200.067 103.919 200.113C103.847 200.159 103.766 200.191 103.682 200.205C103.597 200.219 103.511 200.216 103.428 200.196L86.5441 196.632L85.3704 196.542L85.9572 195.054L104.195 199.699Z" fill="black"/>
<path opacity="0.15" d="M64.7389 162.851L64.1069 164.429L60.2246 174.307L57.7868 180.486L57.2 181.929L56.884 182.741L56.6582 183.327L55.3491 183.057L54.8525 182.966C54.4756 182.898 54.1356 182.696 53.895 182.398C53.6544 182.1 53.5298 181.725 53.5434 181.343C53.5434 181.207 53.5885 181.072 53.5885 180.892L56.1165 172.954L56.7485 170.969L60.7212 158.34L61.308 156.401L61.94 154.416C61.977 154.311 62.047 154.221 62.1396 154.158C62.2321 154.096 62.3418 154.065 62.4533 154.07C62.5648 154.075 62.6718 154.116 62.758 154.186C62.8447 154.257 62.9061 154.353 62.9332 154.462C63.204 155.679 63.5652 157.303 63.9263 158.972L64.0166 159.288C64.2423 160.55 64.5132 161.768 64.7389 162.851Z" fill="black"/>
<g opacity="0.3">
<path opacity="0.3" d="M63.9715 159.332L63.1589 159.152C58.9154 157.979 52.5051 155.002 51.4668 154.506L51.7828 153.514L52.0988 152.522C53.0017 152.973 59.4572 156.04 63.5201 157.167L63.9715 159.332Z" fill="white"/>
</g>
<g opacity="0.3">
<path opacity="0.3" d="M60.9473 172.367L60.225 174.307C56.4781 173.269 49.3906 170.473 46.8626 169.481L47.4946 167.496C49.8421 168.398 57.2456 171.33 60.9473 172.367Z" fill="white"/>
</g>
<g opacity="0.3">
<path opacity="0.3" d="M57.7882 180.531L57.2014 181.975L56.8853 182.786C56.3888 182.877 55.8922 182.967 55.3505 183.102C50.6104 184.139 44.0646 186.034 41.7172 186.71C41.7849 186.281 41.8905 185.858 42.0332 185.447L42.3492 184.32C44.9675 183.553 49.6173 182.245 53.5447 181.343C55.1248 180.982 56.6145 180.712 57.7882 180.531Z" fill="white"/>
</g>
<g opacity="0.3">
<path opacity="0.3" d="M64.287 184.816C62.8424 187.341 60.5401 191.671 59.0053 194.648L56.7481 194.468C58.1475 191.716 60.495 187.251 62.1202 184.41L64.287 184.816Z" fill="white"/>
</g>
<g opacity="0.3">
<path opacity="0.3" d="M78.2819 187.477C76.9728 190.048 75.3476 193.385 74.2642 195.731L72.007 195.55C73.0453 193.34 74.7156 189.913 76.1602 187.071C76.2053 187.071 76.1602 187.071 78.2819 187.477Z" fill="white"/>
</g>
<g opacity="0.3">
<path opacity="0.3" d="M114.984 158.159L114.488 156.04L119.408 153.198L120.447 155.002L114.984 158.159Z" fill="white"/>
</g>
<g opacity="0.3">
<path opacity="0.3" d="M126.585 167.451L116.789 176.923L115.57 175.209L125.592 165.512L126.585 167.451Z" fill="white"/>
</g>
<g opacity="0.3">
<path opacity="0.3" d="M136.789 168.082V179.268L134.712 179.673V168.127L136.789 168.082Z" fill="white"/>
</g>
<g opacity="0.3">
<path opacity="0.3" d="M150.421 167.677L148.932 176.833L146.855 177.284L148.345 167.722L150.421 167.677Z" fill="white"/>
</g>
<g opacity="0.3">
<path opacity="0.3" d="M91.7794 159.198C82.3137 159.168 72.8598 158.535 63.4745 157.303L63.0682 155.229C63.3842 155.274 94.6685 159.559 114.261 155.048L114.712 157.078C107.85 158.657 99.6343 159.198 91.7794 159.198Z" fill="white"/>
</g>
<path d="M174.664 172.818C174.665 172.86 174.658 172.901 174.642 172.94C174.627 172.979 174.603 173.015 174.574 173.044C174.544 173.074 174.509 173.097 174.47 173.112C174.431 173.128 174.389 173.135 174.348 173.134L169.924 173.585C169.721 173.586 169.52 173.632 169.337 173.72V169.435C169.37 169.819 169.537 170.179 169.81 170.451C170.082 170.724 170.443 170.891 170.827 170.924L173.039 171.239C173.465 171.288 173.863 171.478 174.167 171.781C174.463 172.048 174.641 172.421 174.664 172.818Z" fill="#956363"/>
</svg>
