<svg width="232" height="61" viewBox="0 0 232 61" fill="none" xmlns="http://www.w3.org/2000/svg">
<path d="M7.06168 30.7125C7.06168 40.4591 14.9628 48.3601 24.7093 48.3601H25.4158C25.8018 48.3601 26.1211 48.6791 26.1211 49.0726V50.4712C26.1211 50.8708 25.8069 51.1837 25.4193 51.1837H24.7093C13.4033 51.1837 4.23803 42.0184 4.23803 30.7125V29.8855L2.91142 31.2121C2.63523 31.4883 2.18718 31.4852 1.90892 31.207L0.919922 30.2181C0.637445 29.9355 0.641101 29.4892 0.91861 29.2117L4.65157 25.4787C5.20293 24.9274 6.09677 24.9274 6.64813 25.4787L10.3811 29.2117C10.6559 29.4865 10.658 29.9398 10.3798 30.2181L9.39078 31.207C9.1083 31.4895 8.66363 31.4875 8.38828 31.2121L7.06168 29.8855V30.7125ZM42.3568 30.7125C42.3568 20.9659 34.4557 13.0649 24.7093 13.0649H24.0066C23.6138 13.0649 23.2975 12.7459 23.2975 12.3524V10.9538C23.2975 10.5542 23.6133 10.2413 24.0027 10.2413H24.7094C36.0153 10.2413 45.1806 19.4066 45.1806 30.7125V31.5395L46.5072 30.2129C46.7834 29.9367 47.2314 29.9398 47.5097 30.2181L48.4987 31.207C48.7812 31.4895 48.7775 31.9358 48.5 32.2133L44.767 35.9463C44.2157 36.4976 43.3218 36.4976 42.7705 35.9463L39.0374 32.2133C38.7626 31.9385 38.7605 31.4852 39.0387 31.207L40.0277 30.2181C40.3102 29.9355 40.7548 29.9375 41.0302 30.2129L42.3568 31.5395V30.7125Z" fill="black"/>
<path d="M17 30.4709C17 25.7923 20.7919 22 25.4709 22C30.1494 22 33.9417 25.7919 33.9417 30.4709C33.9417 35.1494 30.1498 38.9417 25.4709 38.9417C20.7923 38.9417 17 35.1498 17 30.4709Z" fill="#F43F5E"/>
<path d="M76.7 20.45C80.0666 20.45 82.7666 21.45 84.8 23.45C86.8666 25.45 87.9 28.4667 87.9 32.5V48H78.4V34.05C78.4 30.35 76.9166 28.5 73.95 28.5C72.3166 28.5 71 29.0333 70 30.1C69.0333 31.1667 68.55 32.7667 68.55 34.9V48H59.05V20.9H68.1V23.85C69.1666 22.75 70.4333 21.9167 71.9 21.35C73.3666 20.75 74.9666 20.45 76.7 20.45ZM124.414 20.45C127.748 20.45 130.398 21.45 132.364 23.45C134.364 25.45 135.364 28.4667 135.364 32.5V48H125.864V34.05C125.864 32.15 125.498 30.75 124.764 29.85C124.064 28.95 123.064 28.5 121.764 28.5C120.331 28.5 119.181 29 118.314 30C117.448 31 117.014 32.5167 117.014 34.55V48H107.514V34.05C107.514 30.35 106.148 28.5 103.414 28.5C101.948 28.5 100.781 29 99.9144 30C99.0478 31 98.6144 32.5167 98.6144 34.55V48H89.1144V20.9H98.1644V23.75C99.1644 22.65 100.348 21.8333 101.714 21.3C103.114 20.7333 104.631 20.45 106.264 20.45C108.164 20.45 109.864 20.8 111.364 21.5C112.864 22.2 114.081 23.2667 115.014 24.7C116.081 23.3333 117.431 22.2833 119.064 21.55C120.698 20.8167 122.481 20.45 124.414 20.45ZM145.661 24.15C146.627 22.9167 147.877 22 149.411 21.4C150.977 20.7667 152.761 20.45 154.761 20.45V29C153.894 28.9 153.177 28.85 152.611 28.85C150.577 28.85 148.977 29.4 147.811 30.5C146.677 31.6 146.111 33.2833 146.111 35.55V48H136.611V20.9H145.661V24.15Z" fill="#F43F5E"/>
<path d="M176.578 48L169.328 37.15L162.178 48H150.878L163.628 30.3L151.428 13H162.578L169.578 23.1L176.478 13H187.178L174.978 29.9L187.978 48H176.578ZM188.655 20.9H198.155V48H188.655V20.9ZM193.405 17.9C191.672 17.9 190.272 17.4167 189.205 16.45C188.139 15.4833 187.605 14.2833 187.605 12.85C187.605 11.4167 188.139 10.2167 189.205 9.25C190.272 8.28333 191.672 7.8 193.405 7.8C195.139 7.8 196.539 8.26667 197.605 9.2C198.672 10.1 199.205 11.2667 199.205 12.7C199.205 14.2 198.672 15.45 197.605 16.45C196.539 17.4167 195.139 17.9 193.405 17.9ZM231.129 20.9L219.929 48H210.129L198.979 20.9H208.729L215.229 37.45L222.079 20.9H231.129Z" fill="black"/>
</svg>
